<svg width="1204" height="630" viewBox="0 0 1204 630" fill="none" xmlns="http://www.w3.org/2000/svg">
<path d="M738.287 155.151C761.955 131.171 791.019 112.98 823.145 102.038C855.271 91.0964 889.561 87.7099 923.261 92.1505C956.96 96.5911 989.129 108.735 1017.18 127.606C1045.24 146.477 1068.39 171.549 1084.79 200.807C1101.18 230.065 1110.36 262.693 1111.59 296.07C1112.81 329.446 1106.05 362.639 1091.84 392.982C1077.64 423.326 1056.38 449.972 1029.78 470.78C1003.18 491.588 971.99 505.977 938.703 512.791" stroke="#248C8A" stroke-opacity="0.38" stroke-width="3"/>
<path d="M248.98 517.702C217.143 508.559 187.859 492.381 163.37 470.407C138.881 448.433 119.837 421.245 107.695 390.925C95.5539 360.606 90.6375 327.959 93.3228 295.485C96.008 263.011 106.224 231.571 123.188 203.573C140.152 175.575 163.414 151.762 191.194 133.957C218.973 116.152 250.532 104.827 283.454 100.851C316.376 96.8745 349.787 100.351 381.13 111.015C412.472 121.679 440.914 139.246 464.278 162.373" stroke="#248C8A" stroke-opacity="0.38" stroke-width="3"/>
<path d="M516.253 520.128C469.58 499.28 431.911 462.896 409.905 417.407C387.899 371.919 382.972 320.253 395.995 271.54C409.019 222.827 439.154 180.204 481.075 151.204C522.997 122.203 574.005 108.692 625.086 113.059C676.167 117.425 724.032 139.387 760.222 175.063C796.413 210.739 818.599 257.833 822.86 308.022C827.121 358.212 813.182 408.266 783.507 449.339C753.831 490.411 710.329 519.857 660.689 532.474" stroke="#178F8D" stroke-opacity="0.38" stroke-width="3"/>
</svg>
