<svg width="161" height="48" viewBox="0 0 161 48" fill="none" xmlns="http://www.w3.org/2000/svg">
<rect width="161" height="48" rx="8" fill="black"/>
<g clip-path="url(#clip0_26_1848)">
<path d="M29.3918 18.6627C25.4421 16.4535 19.1027 12.9062 9.26975 7.40047C8.60682 6.96266 7.84408 6.90528 7.18506 7.12834L24.0556 23.9989L29.3918 18.6627Z" fill="#32BBFF"/>
<path d="M7.18514 7.12842C7.06163 7.17025 6.94143 7.22072 6.82648 7.28168C6.09874 7.67534 5.56396 8.43284 5.56396 9.39088V38.607C5.56396 39.5651 6.09867 40.3226 6.82648 40.7162C6.94123 40.7771 7.06136 40.8277 7.18475 40.8698L24.0557 23.999L7.18514 7.12842Z" fill="#32BBFF"/>
<path d="M24.0555 23.999L7.18457 40.8699C7.84379 41.0946 8.60653 41.0416 9.26966 40.5974C18.8055 35.2577 25.0735 31.7524 29.0689 29.5244C29.1801 29.4619 29.2891 29.4009 29.3968 29.3404L24.0555 23.999Z" fill="#32BBFF"/>
<path d="M5.56396 23.9985V38.6066C5.56396 39.5647 6.09867 40.3222 6.82648 40.7157C6.94123 40.7766 7.06136 40.8273 7.18475 40.8694L24.0557 23.9985H5.56396Z" fill="#2C9FD9"/>
<path d="M9.26953 7.40029C8.48228 6.88046 7.55392 6.89527 6.82617 7.28149L23.7993 24.2547L29.3915 18.6625C25.4419 16.4533 19.1025 12.906 9.26953 7.40029Z" fill="#29CC5E"/>
<path d="M23.7994 23.7427L6.82617 40.7158C7.55399 41.102 8.48228 41.1243 9.26953 40.597C18.8054 35.2573 25.0733 31.7519 29.0687 29.524C29.18 29.4615 29.2889 29.4004 29.3966 29.3399L23.7994 23.7427Z" fill="#D93F21"/>
<path d="M36.4361 23.9989C36.4361 23.1894 36.0276 22.3725 35.218 21.9195C35.218 21.9195 33.704 21.0747 29.0634 18.479L23.5435 23.9989L29.0687 29.5242C33.6585 26.9472 35.218 26.0783 35.218 26.0783C36.0276 25.6253 36.4361 24.8084 36.4361 23.9989Z" fill="#FFD500"/>
<path d="M35.218 26.078C36.0276 25.625 36.4361 24.808 36.4361 23.9985H23.5435L29.0687 29.5239C33.6585 26.9469 35.218 26.078 35.218 26.078Z" fill="#FFAA00"/>
</g>
<path d="M49.0227 10C48.929 9.71307 48.8054 9.45597 48.652 9.22869C48.5014 8.99858 48.321 8.80256 48.1108 8.64062C47.9034 8.47869 47.6676 8.35511 47.4034 8.26989C47.1392 8.18466 46.8494 8.14205 46.5341 8.14205C46.017 8.14205 45.5469 8.27557 45.1236 8.54261C44.7003 8.80966 44.3636 9.20312 44.1136 9.72301C43.8636 10.2429 43.7386 10.8807 43.7386 11.6364C43.7386 12.392 43.8651 13.0298 44.1179 13.5497C44.3707 14.0696 44.7131 14.4631 45.1449 14.7301C45.5767 14.9972 46.0625 15.1307 46.6023 15.1307C47.1023 15.1307 47.5426 15.0241 47.9233 14.8111C48.3068 14.5952 48.6051 14.2912 48.8182 13.8991C49.0341 13.5043 49.142 13.0398 49.142 12.5057L49.4659 12.5739H46.8409V11.6364H50.1648V12.5739C50.1648 13.2926 50.0114 13.9176 49.7045 14.4489C49.4006 14.9801 48.9801 15.392 48.4432 15.6847C47.9091 15.9744 47.2955 16.1193 46.6023 16.1193C45.8295 16.1193 45.1506 15.9375 44.5653 15.5739C43.983 15.2102 43.5284 14.6932 43.2017 14.0227C42.8778 13.3523 42.7159 12.5568 42.7159 11.6364C42.7159 10.946 42.8082 10.3253 42.9929 9.77415C43.1804 9.22017 43.4446 8.74858 43.7855 8.35938C44.1264 7.97017 44.5298 7.67188 44.9957 7.46449C45.4616 7.2571 45.9744 7.15341 46.5341 7.15341C46.9943 7.15341 47.4233 7.22301 47.821 7.36222C48.2216 7.49858 48.5781 7.69318 48.8906 7.94602C49.206 8.19602 49.4688 8.49574 49.679 8.84517C49.8892 9.19176 50.0341 9.5767 50.1136 10H49.0227ZM51.9748 16V7.27273H57.2418V8.21023H53.0316V11.1591H56.9691V12.0966H53.0316V15.0625H57.31V16H51.9748ZM58.6694 8.21023V7.27273H65.2148V8.21023H62.4705V16H61.4137V8.21023H58.6694ZM71.2777 7.27273V16H70.2209V7.27273H71.2777ZM72.9194 8.21023V7.27273H79.4648V8.21023H76.7205V16H75.6637V8.21023H72.9194ZM91.8345 11.6364C91.8345 12.5568 91.6683 13.3523 91.3359 14.0227C91.0036 14.6932 90.5476 15.2102 89.968 15.5739C89.3885 15.9375 88.7266 16.1193 87.9822 16.1193C87.2379 16.1193 86.576 15.9375 85.9964 15.5739C85.4169 15.2102 84.9609 14.6932 84.6286 14.0227C84.2962 13.3523 84.13 12.5568 84.13 11.6364C84.13 10.7159 84.2962 9.92045 84.6286 9.25C84.9609 8.57955 85.4169 8.0625 85.9964 7.69886C86.576 7.33523 87.2379 7.15341 87.9822 7.15341C88.7266 7.15341 89.3885 7.33523 89.968 7.69886C90.5476 8.0625 91.0036 8.57955 91.3359 9.25C91.6683 9.92045 91.8345 10.7159 91.8345 11.6364ZM90.8118 11.6364C90.8118 10.8807 90.6854 10.2429 90.4325 9.72301C90.1825 9.20312 89.843 8.80966 89.4141 8.54261C88.9879 8.27557 88.5107 8.14205 87.9822 8.14205C87.4538 8.14205 86.9751 8.27557 86.5462 8.54261C86.12 8.80966 85.7805 9.20312 85.5277 9.72301C85.2777 10.2429 85.1527 10.8807 85.1527 11.6364C85.1527 12.392 85.2777 13.0298 85.5277 13.5497C85.7805 14.0696 86.12 14.4631 86.5462 14.7301C86.9751 14.9972 87.4538 15.1307 87.9822 15.1307C88.5107 15.1307 88.9879 14.9972 89.4141 14.7301C89.843 14.4631 90.1825 14.0696 90.4325 13.5497C90.6854 13.0298 90.8118 12.392 90.8118 11.6364ZM100.532 7.27273V16H99.5092L94.7536 9.14773H94.6683V16H93.6115V7.27273H94.6342L99.407 14.142H99.4922V7.27273H100.532ZM53.179 30.0994C53.0606 29.7159 52.8973 29.3726 52.6889 29.0696C52.4853 28.7618 52.2391 28.4991 51.9503 28.2812C51.6662 28.0634 51.3395 27.9001 50.9702 27.7912C50.6009 27.6776 50.1984 27.6207 49.7628 27.6207C48.9815 27.6207 48.2855 27.8172 47.6747 28.2102C47.0639 28.6032 46.5833 29.1809 46.233 29.9432C45.8873 30.7008 45.7145 31.6241 45.7145 32.7131C45.7145 33.8116 45.8873 34.742 46.233 35.5043C46.5786 36.2666 47.0592 36.8466 47.6747 37.2443C48.2902 37.6373 49.0052 37.8338 49.8196 37.8338C50.5582 37.8338 51.1974 37.6918 51.7372 37.4077C52.2817 37.1236 52.7008 36.7211 52.9943 36.2003C53.2879 35.6747 53.4347 35.0592 53.4347 34.3537L54.0312 34.446H50.0824V32.3864H55.9844V34.1335C55.9844 35.3788 55.7192 36.456 55.1889 37.3651C54.6586 38.2741 53.9295 38.9749 53.0014 39.4673C52.0734 39.955 51.008 40.1989 49.8054 40.1989C48.4654 40.1989 47.2888 39.8982 46.2756 39.2969C45.267 38.6908 44.4787 37.8314 43.9105 36.7188C43.3471 35.6013 43.0653 34.2756 43.0653 32.7415C43.0653 31.5672 43.2311 30.5185 43.5625 29.5952C43.8987 28.6719 44.3674 27.8883 44.9688 27.2443C45.5701 26.5956 46.2756 26.1032 47.0852 25.767C47.8949 25.4261 48.7756 25.2557 49.7273 25.2557C50.5322 25.2557 51.2827 25.3741 51.9787 25.6108C52.6747 25.8428 53.2926 26.1742 53.8324 26.6051C54.3769 27.036 54.8243 27.5473 55.1747 28.1392C55.5251 28.7311 55.7547 29.3845 55.8636 30.0994H53.179ZM63.1772 40.2131C62.1119 40.2131 61.1886 39.9787 60.4073 39.5099C59.6261 39.0412 59.02 38.3854 58.5891 37.5426C58.163 36.6998 57.9499 35.715 57.9499 34.5881C57.9499 33.4612 58.163 32.474 58.5891 31.6264C59.02 30.7789 59.6261 30.1207 60.4073 29.652C61.1886 29.1832 62.1119 28.9489 63.1772 28.9489C64.2425 28.9489 65.1658 29.1832 65.9471 29.652C66.7283 30.1207 67.332 30.7789 67.7582 31.6264C68.189 32.474 68.4045 33.4612 68.4045 34.5881C68.4045 35.715 68.189 36.6998 67.7582 37.5426C67.332 38.3854 66.7283 39.0412 65.9471 39.5099C65.1658 39.9787 64.2425 40.2131 63.1772 40.2131ZM63.1914 38.1534C63.7691 38.1534 64.252 37.9948 64.6403 37.6776C65.0285 37.3556 65.3174 36.9247 65.5067 36.3849C65.7009 35.8452 65.7979 35.2438 65.7979 34.581C65.7979 33.9134 65.7009 33.3097 65.5067 32.7699C65.3174 32.2254 65.0285 31.7921 64.6403 31.4702C64.252 31.1482 63.7691 30.9872 63.1914 30.9872C62.5996 30.9872 62.1071 31.1482 61.7141 31.4702C61.3259 31.7921 61.0347 32.2254 60.8406 32.7699C60.6512 33.3097 60.5565 33.9134 60.5565 34.581C60.5565 35.2438 60.6512 35.8452 60.8406 36.3849C61.0347 36.9247 61.3259 37.3556 61.7141 37.6776C62.1071 37.9948 62.5996 38.1534 63.1914 38.1534ZM75.3452 40.2131C74.2798 40.2131 73.3565 39.9787 72.5753 39.5099C71.794 39.0412 71.188 38.3854 70.7571 37.5426C70.331 36.6998 70.1179 35.715 70.1179 34.5881C70.1179 33.4612 70.331 32.474 70.7571 31.6264C71.188 30.7789 71.794 30.1207 72.5753 29.652C73.3565 29.1832 74.2798 28.9489 75.3452 28.9489C76.4105 28.9489 77.3338 29.1832 78.1151 29.652C78.8963 30.1207 79.5 30.7789 79.9261 31.6264C80.357 32.474 80.5724 33.4612 80.5724 34.5881C80.5724 35.715 80.357 36.6998 79.9261 37.5426C79.5 38.3854 78.8963 39.0412 78.1151 39.5099C77.3338 39.9787 76.4105 40.2131 75.3452 40.2131ZM75.3594 38.1534C75.937 38.1534 76.42 37.9948 76.8082 37.6776C77.1965 37.3556 77.4853 36.9247 77.6747 36.3849C77.8688 35.8452 77.9659 35.2438 77.9659 34.581C77.9659 33.9134 77.8688 33.3097 77.6747 32.7699C77.4853 32.2254 77.1965 31.7921 76.8082 31.4702C76.42 31.1482 75.937 30.9872 75.3594 30.9872C74.7675 30.9872 74.2751 31.1482 73.8821 31.4702C73.4938 31.7921 73.2027 32.2254 73.0085 32.7699C72.8191 33.3097 72.7244 33.9134 72.7244 34.581C72.7244 35.2438 72.8191 35.8452 73.0085 36.3849C73.2027 36.9247 73.4938 37.3556 73.8821 37.6776C74.2751 37.9948 74.7675 38.1534 75.3594 38.1534ZM87.4989 44.3182C86.5756 44.3182 85.7826 44.1927 85.1197 43.9418C84.4568 43.6955 83.9241 43.3641 83.5217 42.9474C83.1192 42.5308 82.8398 42.0691 82.6836 41.5625L84.9989 41.0014C85.1031 41.2145 85.2546 41.4252 85.4535 41.6335C85.6523 41.8466 85.9199 42.0218 86.256 42.1591C86.5969 42.3011 87.0254 42.3722 87.5415 42.3722C88.2707 42.3722 88.8744 42.1946 89.3526 41.8395C89.8308 41.4891 90.07 40.9115 90.07 40.1065V38.0398H89.9421C89.8095 38.3049 89.6154 38.5772 89.3597 38.8565C89.1088 39.1359 88.775 39.3703 88.3583 39.5597C87.9464 39.7491 87.4279 39.8438 86.8029 39.8438C85.9648 39.8438 85.2049 39.6473 84.5231 39.2543C83.846 38.8565 83.3062 38.2647 82.9038 37.4787C82.506 36.688 82.3072 35.6984 82.3072 34.5099C82.3072 33.312 82.506 32.3011 82.9038 31.4773C83.3062 30.6487 83.8484 30.0213 84.5302 29.5952C85.212 29.1643 85.9719 28.9489 86.81 28.9489C87.4492 28.9489 87.9748 29.0578 88.3867 29.2756C88.8034 29.4886 89.1348 29.7467 89.381 30.0497C89.6272 30.348 89.8143 30.6297 89.9421 30.8949H90.0842V29.0909H92.6197V40.1776C92.6197 41.1103 92.3971 41.8821 91.9521 42.4929C91.507 43.1037 90.8986 43.5606 90.1268 43.8636C89.355 44.1667 88.479 44.3182 87.4989 44.3182ZM87.5202 37.8267C88.0647 37.8267 88.5288 37.6941 88.9123 37.429C89.2958 37.1638 89.587 36.7827 89.7859 36.2855C89.9847 35.7884 90.0842 35.1918 90.0842 34.4957C90.0842 33.8092 89.9847 33.2079 89.7859 32.6918C89.5917 32.1757 89.3029 31.7756 88.9194 31.4915C88.5406 31.2027 88.0742 31.0582 87.5202 31.0582C86.9473 31.0582 86.4691 31.2074 86.0856 31.5057C85.7021 31.804 85.4132 32.2135 85.2191 32.7344C85.025 33.2505 84.9279 33.8376 84.9279 34.4957C84.9279 35.1634 85.025 35.7481 85.2191 36.25C85.418 36.7472 85.7092 37.1354 86.0927 37.4148C86.4809 37.6894 86.9568 37.8267 87.5202 37.8267ZM97.8256 25.4545V40H95.2546V25.4545H97.8256ZM105.299 40.2131C104.205 40.2131 103.261 39.9858 102.465 39.5312C101.674 39.072 101.066 38.4233 100.64 37.5852C100.214 36.7424 100.001 35.7505 100.001 34.6094C100.001 33.4872 100.214 32.5024 100.64 31.6548C101.071 30.8026 101.672 30.1397 102.444 29.6662C103.216 29.188 104.122 28.9489 105.164 28.9489C105.836 28.9489 106.471 29.0578 107.067 29.2756C107.669 29.4886 108.199 29.8201 108.658 30.2699C109.122 30.7197 109.487 31.2926 109.752 31.9886C110.017 32.6799 110.15 33.5038 110.15 34.4602V35.2486H101.208V33.5156H107.685C107.681 33.0232 107.574 32.5852 107.366 32.2017C107.157 31.8134 106.866 31.508 106.492 31.2855C106.123 31.063 105.692 30.9517 105.2 30.9517C104.674 30.9517 104.212 31.0795 103.815 31.3352C103.417 31.5862 103.107 31.9176 102.884 32.3295C102.666 32.7367 102.555 33.1842 102.55 33.6719V35.1847C102.55 35.8191 102.666 36.3636 102.898 36.8182C103.13 37.268 103.455 37.6136 103.871 37.8551C104.288 38.0919 104.776 38.2102 105.335 38.2102C105.709 38.2102 106.047 38.1581 106.35 38.054C106.653 37.9451 106.916 37.7865 107.138 37.5781C107.361 37.3698 107.529 37.1117 107.643 36.804L110.043 37.0739C109.892 37.7083 109.603 38.2623 109.177 38.7358C108.755 39.2045 108.216 39.5691 107.558 39.8295C106.899 40.0852 106.147 40.2131 105.299 40.2131ZM117.4 40V25.4545H122.854C123.971 25.4545 124.909 25.6629 125.667 26.0795C126.429 26.4962 127.004 27.0691 127.392 27.7983C127.785 28.5227 127.982 29.3466 127.982 30.2699C127.982 31.2027 127.785 32.0312 127.392 32.7557C126.999 33.4801 126.419 34.0507 125.652 34.4673C124.885 34.8793 123.941 35.0852 122.819 35.0852H119.203V32.919H122.463C123.117 32.919 123.652 32.8054 124.069 32.5781C124.485 32.3509 124.793 32.0384 124.992 31.6406C125.195 31.2429 125.297 30.786 125.297 30.2699C125.297 29.7538 125.195 29.2992 124.992 28.9062C124.793 28.5133 124.483 28.2079 124.061 27.9901C123.645 27.7675 123.107 27.6562 122.449 27.6562H120.034V40H117.4ZM132.728 25.4545V40H130.157V25.4545H132.728ZM138.511 40.2202C137.82 40.2202 137.197 40.0971 136.643 39.8509C136.094 39.5999 135.658 39.2306 135.336 38.7429C135.019 38.2552 134.86 37.6539 134.86 36.9389C134.86 36.3234 134.974 35.8144 135.201 35.4119C135.429 35.0095 135.739 34.6875 136.132 34.446C136.525 34.2045 136.967 34.0223 137.46 33.8991C137.957 33.7713 138.471 33.679 139.001 33.6222C139.64 33.5559 140.159 33.4967 140.556 33.4446C140.954 33.3878 141.243 33.3026 141.423 33.1889C141.608 33.0705 141.7 32.8883 141.7 32.642V32.5994C141.7 32.0644 141.541 31.6501 141.224 31.3565C140.907 31.063 140.45 30.9162 139.853 30.9162C139.224 30.9162 138.724 31.0535 138.355 31.3281C137.99 31.6027 137.744 31.9271 137.616 32.3011L135.216 31.9602C135.405 31.2973 135.717 30.7434 136.153 30.2983C136.589 29.8485 137.121 29.5123 137.751 29.2898C138.381 29.0625 139.077 28.9489 139.839 28.9489C140.365 28.9489 140.888 29.0104 141.409 29.1335C141.93 29.2566 142.405 29.4602 142.836 29.7443C143.267 30.0237 143.613 30.4048 143.873 30.8878C144.138 31.3707 144.271 31.9744 144.271 32.6989V40H141.799V38.5014H141.714C141.558 38.8045 141.338 39.0885 141.054 39.3537C140.774 39.6141 140.422 39.8248 139.995 39.9858C139.574 40.142 139.079 40.2202 138.511 40.2202ZM139.179 38.331C139.695 38.331 140.142 38.2292 140.521 38.0256C140.9 37.8172 141.191 37.5426 141.395 37.2017C141.603 36.8608 141.707 36.4891 141.707 36.0866V34.8011C141.627 34.8674 141.489 34.929 141.295 34.9858C141.106 35.0426 140.893 35.0923 140.656 35.1349C140.419 35.1776 140.185 35.2154 139.953 35.2486C139.721 35.2817 139.52 35.3101 139.349 35.3338C138.966 35.3859 138.622 35.4711 138.319 35.5895C138.016 35.7079 137.777 35.8736 137.602 36.0866C137.427 36.295 137.339 36.5649 137.339 36.8963C137.339 37.3698 137.512 37.7273 137.858 37.9688C138.203 38.2102 138.644 38.331 139.179 38.331ZM148.064 44.0909C147.713 44.0909 147.389 44.0625 147.091 44.0057C146.797 43.9536 146.563 43.892 146.387 43.821L146.984 41.8182C147.358 41.9271 147.692 41.9792 147.985 41.9744C148.279 41.9697 148.537 41.8774 148.76 41.6974C148.987 41.5223 149.179 41.2287 149.335 40.8168L149.555 40.2273L145.599 29.0909H148.326L150.841 37.3295H150.954L153.475 29.0909H156.21L151.842 41.321C151.638 41.8987 151.368 42.3935 151.032 42.8054C150.696 43.2221 150.284 43.5393 149.797 43.7571C149.314 43.9796 148.736 44.0909 148.064 44.0909Z" fill="#F4FFFF"/>
<defs>
<clipPath id="clip0_26_1848">
<rect width="34" height="34" fill="white" transform="translate(4 7)"/>
</clipPath>
</defs>
</svg>
