<svg width="234" height="108" viewBox="0 0 234 108" fill="none" xmlns="http://www.w3.org/2000/svg">
<g filter="url(#filter0_d_26_2485)">
<rect x="40" y="22" width="174" height="48" rx="8" fill="black"/>
<g clip-path="url(#clip0_26_2485)">
<path d="M76.3918 40.6624C72.4421 38.4533 66.1027 34.9059 56.2698 29.4002C55.6068 28.9624 54.8441 28.905 54.1851 29.1281L71.0556 45.9986L76.3918 40.6624Z" fill="#32BBFF"/>
<path d="M54.1851 29.1282C54.0616 29.17 53.9414 29.2205 53.8265 29.2814C53.0987 29.6751 52.564 30.4326 52.564 31.3906V60.6068C52.564 61.5648 53.0987 62.3223 53.8265 62.7159C53.9412 62.7768 54.0614 62.8275 54.1847 62.8696L71.0557 45.9987L54.1851 29.1282Z" fill="#32BBFF"/>
<path d="M71.0555 45.9985L54.1846 62.8694C54.8438 63.0941 55.6065 63.0411 56.2697 62.5969C65.8055 57.2572 72.0735 53.7519 76.0689 51.5239C76.1801 51.4615 76.2891 51.4004 76.3968 51.3399L71.0555 45.9985Z" fill="#32BBFF"/>
<path d="M52.564 45.9988V60.6069C52.564 61.5649 53.0987 62.3224 53.8265 62.716C53.9412 62.7769 54.0614 62.8276 54.1847 62.8697L71.0557 45.9988H52.564Z" fill="#2C9FD9"/>
<path d="M56.2695 29.4003C55.4823 28.8805 54.5539 28.8953 53.8262 29.2815L70.7993 46.2547L76.3915 40.6625C72.4419 38.4533 66.1025 34.906 56.2695 29.4003Z" fill="#29CC5E"/>
<path d="M70.7994 45.7427L53.8262 62.7158C54.554 63.102 55.4823 63.1243 56.2695 62.597C65.8054 57.2573 72.0733 53.7519 76.0687 51.524C76.18 51.4615 76.2889 51.4004 76.3966 51.3399L70.7994 45.7427Z" fill="#D93F21"/>
<path d="M83.4361 45.9987C83.4361 45.1892 83.0276 44.3722 82.218 43.9192C82.218 43.9192 80.704 43.0745 76.0634 40.4788L70.5435 45.9987L76.0687 51.524C80.6585 48.947 82.218 48.078 82.218 48.078C83.0276 47.6251 83.4361 46.8082 83.4361 45.9987Z" fill="#FFD500"/>
<path d="M82.218 48.0782C83.0276 47.6252 83.4361 46.8083 83.4361 45.9988H70.5435L76.0687 51.5241C80.6585 48.9472 82.218 48.0782 82.218 48.0782Z" fill="#FFAA00"/>
</g>
<path d="M100.418 33.6406V36.8984C100.297 37.0586 100.107 37.2344 99.8496 37.4258C99.5957 37.6133 99.2578 37.7754 98.8359 37.9121C98.4141 38.0488 97.8887 38.1172 97.2598 38.1172C96.7246 38.1172 96.2344 38.0273 95.7891 37.8477C95.3438 37.6641 94.959 37.3965 94.6348 37.0449C94.3145 36.6934 94.0664 36.2656 93.8906 35.7617C93.7148 35.2539 93.627 34.6758 93.627 34.0273V33.4355C93.627 32.791 93.707 32.2168 93.8672 31.7129C94.0312 31.2051 94.2656 30.7754 94.5703 30.4238C94.875 30.0723 95.2422 29.8066 95.6719 29.627C96.1055 29.4434 96.5957 29.3516 97.1426 29.3516C97.8418 29.3516 98.4199 29.4688 98.877 29.7031C99.3379 29.9336 99.6934 30.2539 99.9434 30.6641C100.193 31.0742 100.352 31.543 100.418 32.0703H98.9766C98.9297 31.7734 98.8379 31.5078 98.7012 31.2734C98.5684 31.0391 98.377 30.8555 98.127 30.7227C97.8809 30.5859 97.5605 30.5176 97.166 30.5176C96.8262 30.5176 96.5273 30.582 96.2695 30.7109C96.0117 30.8398 95.7969 31.0293 95.625 31.2793C95.457 31.5293 95.3301 31.834 95.2441 32.1934C95.1582 32.5527 95.1152 32.9629 95.1152 33.4238V34.0273C95.1152 34.4961 95.1641 34.9121 95.2617 35.2754C95.3633 35.6387 95.5078 35.9453 95.6953 36.1953C95.8867 36.4453 96.1191 36.6348 96.3926 36.7637C96.666 36.8887 96.9746 36.9512 97.3184 36.9512C97.6543 36.9512 97.9297 36.9238 98.1445 36.8691C98.3594 36.8105 98.5293 36.7422 98.6543 36.6641C98.7832 36.582 98.8828 36.5039 98.9531 36.4297V34.7363H97.1777V33.6406H100.418ZM107.631 36.834V38H103.102V36.834H107.631ZM103.518 29.4688V38H102.047V29.4688H103.518ZM107.039 33.0312V34.1797H103.102V33.0312H107.039ZM107.602 29.4688V30.6406H103.102V29.4688H107.602ZM112.459 29.4688V38H111V29.4688H112.459ZM115.137 29.4688V30.6406H108.346V29.4688H115.137ZM120.539 29.4688V38H119.068V29.4688H120.539ZM125.701 29.4688V38H124.242V29.4688H125.701ZM128.379 29.4688V30.6406H121.588V29.4688H128.379ZM139.014 33.5V33.9688C139.014 34.6133 138.93 35.1914 138.762 35.7031C138.594 36.2148 138.354 36.6504 138.041 37.0098C137.732 37.3691 137.361 37.6445 136.928 37.8359C136.494 38.0234 136.014 38.1172 135.486 38.1172C134.963 38.1172 134.484 38.0234 134.051 37.8359C133.621 37.6445 133.248 37.3691 132.932 37.0098C132.615 36.6504 132.369 36.2148 132.193 35.7031C132.021 35.1914 131.936 34.6133 131.936 33.9688V33.5C131.936 32.8555 132.021 32.2793 132.193 31.7715C132.365 31.2598 132.607 30.8242 132.92 30.4648C133.236 30.1016 133.609 29.8262 134.039 29.6387C134.473 29.4473 134.951 29.3516 135.475 29.3516C136.002 29.3516 136.482 29.4473 136.916 29.6387C137.35 29.8262 137.723 30.1016 138.035 30.4648C138.348 30.8242 138.588 31.2598 138.756 31.7715C138.928 32.2793 139.014 32.8555 139.014 33.5ZM137.543 33.9688V33.4883C137.543 33.0117 137.496 32.5918 137.402 32.2285C137.312 31.8613 137.178 31.5547 136.998 31.3086C136.822 31.0586 136.605 30.8711 136.348 30.7461C136.09 30.6172 135.799 30.5527 135.475 30.5527C135.15 30.5527 134.861 30.6172 134.607 30.7461C134.354 30.8711 134.137 31.0586 133.957 31.3086C133.781 31.5547 133.646 31.8613 133.553 32.2285C133.459 32.5918 133.412 33.0117 133.412 33.4883V33.9688C133.412 34.4453 133.459 34.8672 133.553 35.2344C133.646 35.6016 133.783 35.9121 133.963 36.166C134.146 36.416 134.365 36.6055 134.619 36.7344C134.873 36.8594 135.162 36.9219 135.486 36.9219C135.814 36.9219 136.105 36.8594 136.359 36.7344C136.613 36.6055 136.828 36.416 137.004 36.166C137.18 35.9121 137.312 35.6016 137.402 35.2344C137.496 34.8672 137.543 34.4453 137.543 33.9688ZM147.252 29.4688V38H145.781L141.955 31.8887V38H140.484V29.4688H141.955L145.793 35.5918V29.4688H147.252ZM105.363 53.7344V59.1641C105.161 59.431 104.846 59.724 104.416 60.043C103.993 60.3555 103.43 60.6257 102.727 60.8535C102.023 61.0814 101.148 61.1953 100.1 61.1953C99.2077 61.1953 98.3906 61.0456 97.6484 60.7461C96.9062 60.4401 96.265 59.9941 95.7246 59.4082C95.1908 58.8223 94.7773 58.1094 94.4844 57.2695C94.1914 56.4232 94.0449 55.4596 94.0449 54.3789V53.3926C94.0449 52.3184 94.1784 51.3613 94.4453 50.5215C94.7188 49.6751 95.1094 48.959 95.6172 48.373C96.125 47.7871 96.737 47.3444 97.4531 47.0449C98.1758 46.7389 98.9928 46.5859 99.9043 46.5859C101.07 46.5859 102.033 46.7812 102.795 47.1719C103.563 47.556 104.156 48.0898 104.572 48.7734C104.989 49.457 105.253 50.2383 105.363 51.1172H102.961C102.883 50.6224 102.73 50.1797 102.502 49.7891C102.281 49.3984 101.962 49.0924 101.545 48.8711C101.135 48.6432 100.601 48.5293 99.9434 48.5293C99.377 48.5293 98.8789 48.6367 98.4492 48.8516C98.0195 49.0664 97.6615 49.3822 97.375 49.7988C97.0951 50.2155 96.8835 50.7233 96.7402 51.3223C96.597 51.9212 96.5254 52.6048 96.5254 53.373V54.3789C96.5254 55.1602 96.6068 55.8535 96.7695 56.459C96.9388 57.0645 97.1797 57.5755 97.4922 57.9922C97.8112 58.4089 98.1986 58.7246 98.6543 58.9395C99.11 59.1478 99.6243 59.252 100.197 59.252C100.757 59.252 101.216 59.2064 101.574 59.1152C101.932 59.0176 102.215 58.9036 102.424 58.7734C102.639 58.6367 102.805 58.5065 102.922 58.3828V55.5605H99.9629V53.7344H105.363ZM107.395 55.834V55.6094C107.395 54.8477 107.505 54.1413 107.727 53.4902C107.948 52.8327 108.267 52.263 108.684 51.7812C109.107 51.293 109.621 50.9154 110.227 50.6484C110.839 50.375 111.529 50.2383 112.297 50.2383C113.072 50.2383 113.762 50.375 114.367 50.6484C114.979 50.9154 115.497 51.293 115.92 51.7812C116.343 52.263 116.665 52.8327 116.887 53.4902C117.108 54.1413 117.219 54.8477 117.219 55.6094V55.834C117.219 56.5957 117.108 57.3021 116.887 57.9531C116.665 58.6042 116.343 59.1738 115.92 59.6621C115.497 60.1439 114.982 60.5215 114.377 60.7949C113.771 61.0618 113.085 61.1953 112.316 61.1953C111.542 61.1953 110.848 61.0618 110.236 60.7949C109.631 60.5215 109.117 60.1439 108.693 59.6621C108.27 59.1738 107.948 58.6042 107.727 57.9531C107.505 57.3021 107.395 56.5957 107.395 55.834ZM109.748 55.6094V55.834C109.748 56.3092 109.797 56.7585 109.895 57.1816C109.992 57.6048 110.145 57.9759 110.354 58.2949C110.562 58.6139 110.829 58.8646 111.154 59.0469C111.48 59.2292 111.867 59.3203 112.316 59.3203C112.753 59.3203 113.13 59.2292 113.449 59.0469C113.775 58.8646 114.042 58.6139 114.25 58.2949C114.458 57.9759 114.611 57.6048 114.709 57.1816C114.813 56.7585 114.865 56.3092 114.865 55.834V55.6094C114.865 55.1406 114.813 54.6979 114.709 54.2812C114.611 53.8581 114.455 53.4837 114.24 53.1582C114.032 52.8327 113.765 52.5788 113.439 52.3965C113.12 52.2077 112.74 52.1133 112.297 52.1133C111.854 52.1133 111.47 52.2077 111.145 52.3965C110.826 52.5788 110.562 52.8327 110.354 53.1582C110.145 53.4837 109.992 53.8581 109.895 54.2812C109.797 54.6979 109.748 55.1406 109.748 55.6094ZM118.742 55.834V55.6094C118.742 54.8477 118.853 54.1413 119.074 53.4902C119.296 52.8327 119.615 52.263 120.031 51.7812C120.454 51.293 120.969 50.9154 121.574 50.6484C122.186 50.375 122.876 50.2383 123.645 50.2383C124.419 50.2383 125.109 50.375 125.715 50.6484C126.327 50.9154 126.844 51.293 127.268 51.7812C127.691 52.263 128.013 52.8327 128.234 53.4902C128.456 54.1413 128.566 54.8477 128.566 55.6094V55.834C128.566 56.5957 128.456 57.3021 128.234 57.9531C128.013 58.6042 127.691 59.1738 127.268 59.6621C126.844 60.1439 126.33 60.5215 125.725 60.7949C125.119 61.0618 124.432 61.1953 123.664 61.1953C122.889 61.1953 122.196 61.0618 121.584 60.7949C120.979 60.5215 120.464 60.1439 120.041 59.6621C119.618 59.1738 119.296 58.6042 119.074 57.9531C118.853 57.3021 118.742 56.5957 118.742 55.834ZM121.096 55.6094V55.834C121.096 56.3092 121.145 56.7585 121.242 57.1816C121.34 57.6048 121.493 57.9759 121.701 58.2949C121.91 58.6139 122.176 58.8646 122.502 59.0469C122.827 59.2292 123.215 59.3203 123.664 59.3203C124.1 59.3203 124.478 59.2292 124.797 59.0469C125.122 58.8646 125.389 58.6139 125.598 58.2949C125.806 57.9759 125.959 57.6048 126.057 57.1816C126.161 56.7585 126.213 56.3092 126.213 55.834V55.6094C126.213 55.1406 126.161 54.6979 126.057 54.2812C125.959 53.8581 125.803 53.4837 125.588 53.1582C125.38 52.8327 125.113 52.5788 124.787 52.3965C124.468 52.2077 124.087 52.1133 123.645 52.1133C123.202 52.1133 122.818 52.2077 122.492 52.3965C122.173 52.5788 121.91 52.8327 121.701 53.1582C121.493 53.4837 121.34 53.8581 121.242 54.2812C121.145 54.6979 121.096 55.1406 121.096 55.6094ZM137.307 50.4336H139.445V60.707C139.445 61.6576 139.243 62.4648 138.84 63.1289C138.436 63.793 137.873 64.2975 137.15 64.6426C136.428 64.9941 135.591 65.1699 134.641 65.1699C134.237 65.1699 133.788 65.1113 133.293 64.9941C132.805 64.877 132.329 64.6882 131.867 64.4277C131.411 64.1738 131.031 63.8385 130.725 63.4219L131.828 62.0352C132.206 62.4844 132.622 62.8132 133.078 63.0215C133.534 63.2298 134.012 63.334 134.514 63.334C135.054 63.334 135.513 63.2331 135.891 63.0312C136.275 62.8359 136.571 62.5462 136.779 62.1621C136.988 61.778 137.092 61.3092 137.092 60.7559V52.8262L137.307 50.4336ZM130.129 55.834V55.6289C130.129 54.8281 130.227 54.099 130.422 53.4414C130.617 52.7773 130.897 52.2077 131.262 51.7324C131.626 51.2507 132.069 50.8828 132.59 50.6289C133.111 50.3685 133.7 50.2383 134.357 50.2383C135.041 50.2383 135.624 50.362 136.105 50.6094C136.594 50.8568 137.001 51.2116 137.326 51.6738C137.652 52.1296 137.906 52.6764 138.088 53.3145C138.277 53.946 138.417 54.6491 138.508 55.4238V56.0781C138.423 56.8333 138.28 57.5234 138.078 58.1484C137.876 58.7734 137.609 59.3138 137.277 59.7695C136.945 60.2253 136.535 60.5768 136.047 60.8242C135.565 61.0716 134.995 61.1953 134.338 61.1953C133.693 61.1953 133.111 61.0618 132.59 60.7949C132.076 60.528 131.633 60.1536 131.262 59.6719C130.897 59.1901 130.617 58.6237 130.422 57.9727C130.227 57.3151 130.129 56.6022 130.129 55.834ZM132.482 55.6289V55.834C132.482 56.3158 132.528 56.765 132.619 57.1816C132.717 57.5983 132.863 57.9661 133.059 58.2852C133.26 58.5977 133.514 58.8451 133.82 59.0273C134.133 59.2031 134.501 59.291 134.924 59.291C135.477 59.291 135.93 59.1738 136.281 58.9395C136.639 58.7051 136.913 58.3893 137.102 57.9922C137.297 57.5885 137.434 57.1393 137.512 56.6445V54.877C137.473 54.4928 137.391 54.1348 137.268 53.8027C137.15 53.4707 136.991 53.181 136.789 52.9336C136.587 52.6797 136.333 52.4844 136.027 52.3477C135.721 52.2044 135.36 52.1328 134.943 52.1328C134.52 52.1328 134.152 52.224 133.84 52.4062C133.527 52.5885 133.27 52.8392 133.068 53.1582C132.873 53.4772 132.727 53.8483 132.629 54.2715C132.531 54.6947 132.482 55.1471 132.482 55.6289ZM144.406 46V61H142.043V46H144.406ZM151.643 61.1953C150.861 61.1953 150.155 61.0684 149.523 60.8145C148.898 60.554 148.365 60.1927 147.922 59.7305C147.486 59.2682 147.15 58.7246 146.916 58.0996C146.682 57.4746 146.564 56.8008 146.564 56.0781V55.6875C146.564 54.8607 146.685 54.112 146.926 53.4414C147.167 52.7708 147.502 52.1979 147.932 51.7227C148.361 51.2409 148.869 50.873 149.455 50.6191C150.041 50.3652 150.676 50.2383 151.359 50.2383C152.115 50.2383 152.775 50.3652 153.342 50.6191C153.908 50.873 154.377 51.2311 154.748 51.6934C155.126 52.1491 155.406 52.6927 155.588 53.3242C155.777 53.9557 155.871 54.6523 155.871 55.4141V56.4199H147.707V54.7305H153.547V54.5449C153.534 54.1217 153.449 53.7246 153.293 53.3535C153.143 52.9824 152.912 52.6829 152.6 52.4551C152.287 52.2272 151.87 52.1133 151.35 52.1133C150.959 52.1133 150.611 52.1979 150.305 52.3672C150.005 52.5299 149.755 52.7676 149.553 53.0801C149.351 53.3926 149.195 53.7702 149.084 54.2129C148.98 54.6491 148.928 55.1406 148.928 55.6875V56.0781C148.928 56.5404 148.99 56.9701 149.113 57.3672C149.243 57.7578 149.432 58.0996 149.68 58.3926C149.927 58.6855 150.227 58.9167 150.578 59.0859C150.93 59.2487 151.33 59.3301 151.779 59.3301C152.346 59.3301 152.85 59.2161 153.293 58.9883C153.736 58.7604 154.12 58.4382 154.445 58.0215L155.686 59.2227C155.458 59.5547 155.161 59.8737 154.797 60.1797C154.432 60.4792 153.986 60.7233 153.459 60.9121C152.938 61.1009 152.333 61.1953 151.643 61.1953ZM168.322 55.6973H164.621V53.7539H168.322C168.967 53.7539 169.488 53.6497 169.885 53.4414C170.282 53.2331 170.572 52.9466 170.754 52.582C170.943 52.2109 171.037 51.7878 171.037 51.3125C171.037 50.8633 170.943 50.4434 170.754 50.0527C170.572 49.6556 170.282 49.3366 169.885 49.0957C169.488 48.8548 168.967 48.7344 168.322 48.7344H165.373V61H162.922V46.7812H168.322C169.423 46.7812 170.357 46.9766 171.125 47.3672C171.9 47.7513 172.489 48.2852 172.893 48.9688C173.296 49.6458 173.498 50.4206 173.498 51.293C173.498 52.2109 173.296 52.9987 172.893 53.6562C172.489 54.3138 171.9 54.8184 171.125 55.1699C170.357 55.5215 169.423 55.6973 168.322 55.6973ZM177.98 46V61H175.617V46H177.98ZM186.516 58.8809V53.8418C186.516 53.4642 186.447 53.1387 186.311 52.8652C186.174 52.5918 185.965 52.3802 185.686 52.2305C185.412 52.0807 185.067 52.0059 184.65 52.0059C184.266 52.0059 183.934 52.071 183.654 52.2012C183.374 52.3314 183.156 52.5072 183 52.7285C182.844 52.9499 182.766 53.2005 182.766 53.4805H180.422C180.422 53.0638 180.523 52.6602 180.725 52.2695C180.926 51.8789 181.219 51.5306 181.604 51.2246C181.988 50.9186 182.447 50.6777 182.98 50.502C183.514 50.3262 184.113 50.2383 184.777 50.2383C185.572 50.2383 186.275 50.3717 186.887 50.6387C187.505 50.9056 187.99 51.3092 188.342 51.8496C188.7 52.3835 188.879 53.054 188.879 53.8613V58.5586C188.879 59.0404 188.911 59.4733 188.977 59.8574C189.048 60.235 189.149 60.5638 189.279 60.8438V61H186.867C186.757 60.7461 186.669 60.4238 186.604 60.0332C186.545 59.6361 186.516 59.252 186.516 58.8809ZM186.857 54.5742L186.877 56.0293H185.188C184.751 56.0293 184.367 56.0716 184.035 56.1562C183.703 56.2344 183.426 56.3516 183.205 56.5078C182.984 56.6641 182.818 56.8529 182.707 57.0742C182.596 57.2956 182.541 57.5462 182.541 57.8262C182.541 58.1061 182.606 58.3633 182.736 58.5977C182.867 58.8255 183.055 59.0046 183.303 59.1348C183.557 59.265 183.863 59.3301 184.221 59.3301C184.702 59.3301 185.122 59.2324 185.48 59.0371C185.845 58.8353 186.132 58.5911 186.34 58.3047C186.548 58.0117 186.659 57.735 186.672 57.4746L187.434 58.5195C187.355 58.7865 187.222 59.0729 187.033 59.3789C186.844 59.6849 186.597 59.9779 186.291 60.2578C185.992 60.5312 185.63 60.7559 185.207 60.9316C184.79 61.1074 184.309 61.1953 183.762 61.1953C183.072 61.1953 182.456 61.0586 181.916 60.7852C181.376 60.5052 180.952 60.1309 180.646 59.6621C180.34 59.1868 180.188 58.6497 180.188 58.0508C180.188 57.4909 180.292 56.9961 180.5 56.5664C180.715 56.1302 181.027 55.7656 181.438 55.4727C181.854 55.1797 182.362 54.9583 182.961 54.8086C183.56 54.6523 184.243 54.5742 185.012 54.5742H186.857ZM194.25 59.8477L197.121 50.4336H199.641L195.402 62.6113C195.305 62.8717 195.178 63.1549 195.021 63.4609C194.865 63.7669 194.66 64.0566 194.406 64.3301C194.159 64.61 193.85 64.8346 193.479 65.0039C193.107 65.1797 192.658 65.2676 192.131 65.2676C191.923 65.2676 191.721 65.248 191.525 65.209C191.337 65.1764 191.158 65.1406 190.988 65.1016L190.979 63.3047C191.044 63.3112 191.122 63.3177 191.213 63.3242C191.311 63.3307 191.389 63.334 191.447 63.334C191.838 63.334 192.163 63.2852 192.424 63.1875C192.684 63.0964 192.896 62.9466 193.059 62.7383C193.228 62.5299 193.371 62.25 193.488 61.8984L194.25 59.8477ZM192.629 50.4336L195.139 58.3438L195.559 60.8242L193.928 61.2441L190.09 50.4336H192.629Z" fill="white"/>
</g>
<defs>
<filter id="filter0_d_26_2485" x="-3" y="0" width="237" height="108" filterUnits="userSpaceOnUse" color-interpolation-filters="sRGB">
<feFlood flood-opacity="0" result="BackgroundImageFix"/>
<feColorMatrix in="SourceAlpha" type="matrix" values="0 0 0 0 0 0 0 0 0 0 0 0 0 0 0 0 0 0 127 0" result="hardAlpha"/>
<feOffset dx="-10" dy="8"/>
<feGaussianBlur stdDeviation="15"/>
<feComposite in2="hardAlpha" operator="out"/>
<feColorMatrix type="matrix" values="0 0 0 0 0 0 0 0 0 0 0 0 0 0 0 0 0 0 0.25 0"/>
<feBlend mode="normal" in2="BackgroundImageFix" result="effect1_dropShadow_26_2485"/>
<feBlend mode="normal" in="SourceGraphic" in2="effect1_dropShadow_26_2485" result="shape"/>
</filter>
<clipPath id="clip0_26_2485">
<rect width="34" height="34" fill="white" transform="translate(51 29)"/>
</clipPath>
</defs>
</svg>
