<svg width="1440" height="727" viewBox="0 0 1440 727" fill="none" xmlns="http://www.w3.org/2000/svg">
<rect x="-1" y="-11" width="1440" height="659" fill="#007E7C"/>
<path d="M-2.15912 610.729C3.56074 603.123 10.7509 596.698 19.0019 591.819C27.2529 586.941 36.4027 583.706 45.9288 582.3C55.455 580.894 65.1698 581.345 74.5182 583.627C83.8665 585.908 92.6644 589.976 100.41 595.596C108.155 601.216 114.696 608.279 119.659 616.379C124.623 624.479 127.913 633.459 129.343 642.806C130.773 652.152 130.315 661.684 127.994 670.857C125.673 680.03 121.536 688.666 115.816 696.271C110.096 703.877 102.906 710.302 94.6547 715.181C86.4037 720.059 77.2539 723.294 67.7278 724.7C58.2016 726.106 48.4868 725.655 39.1384 723.373C29.7901 721.092 20.9922 717.024 13.247 711.404C5.50173 705.784 -1.03894 698.721 -6.00282 690.621C-10.9667 682.521 -14.2568 673.541 -15.6866 664.194C-17.1164 654.848 -16.6579 645.316 -14.3373 636.143C-12.0166 626.97 -7.8789 618.334 -2.15909 610.729L-2.15912 610.729Z" stroke="#248C8A" stroke-opacity="0.09" stroke-width="3"/>
<path d="M1302.21 312.294C1307.45 305.322 1314.04 299.432 1321.6 294.96C1329.17 290.488 1337.56 287.522 1346.29 286.233C1355.02 284.944 1363.93 285.358 1372.5 287.449C1381.07 289.541 1389.13 293.27 1396.23 298.422C1403.33 303.574 1409.33 310.048 1413.88 317.473C1418.43 324.898 1421.44 333.13 1422.75 341.697C1424.06 350.265 1423.64 359.002 1421.52 367.41C1419.39 375.819 1415.6 383.735 1410.35 390.706C1405.11 397.678 1398.52 403.568 1390.96 408.04C1383.39 412.512 1375 415.478 1366.27 416.767C1357.54 418.056 1348.63 417.642 1340.06 415.551C1331.49 413.459 1323.43 409.73 1316.33 404.578C1309.23 399.426 1303.23 392.952 1298.68 385.527C1294.13 378.102 1291.12 369.87 1289.81 361.303C1288.5 352.735 1288.92 343.998 1291.04 335.59C1293.17 327.181 1296.96 319.265 1302.21 312.294L1302.21 312.294Z" stroke="#056F6E" stroke-opacity="0.29" stroke-width="3"/>
<path d="M1233.65 608.294C1238.89 601.322 1245.48 595.432 1253.04 590.96C1260.61 586.488 1269 583.522 1277.73 582.233C1286.46 580.944 1295.37 581.358 1303.94 583.449C1312.51 585.541 1320.57 589.27 1327.67 594.422C1334.77 599.574 1340.77 606.048 1345.32 613.473C1349.87 620.898 1352.88 629.13 1354.19 637.697C1355.5 646.265 1355.08 655.002 1352.96 663.41C1350.83 671.819 1347.04 679.735 1341.79 686.706C1336.55 693.678 1329.96 699.568 1322.4 704.04C1314.83 708.512 1306.44 711.478 1297.71 712.767C1288.98 714.056 1280.07 713.642 1271.5 711.551C1262.93 709.459 1254.87 705.73 1247.77 700.578C1240.67 695.426 1234.67 688.952 1230.12 681.527C1225.57 674.102 1222.56 665.87 1221.25 657.303C1219.94 648.735 1220.36 639.998 1222.48 631.59C1224.61 623.181 1228.4 615.265 1233.65 608.294L1233.65 608.294Z" stroke="#248C8A" stroke-opacity="0.09" stroke-width="3"/>
<path d="M833.893 195.294C839.136 188.322 845.727 182.432 853.291 177.96C860.854 173.488 869.242 170.522 877.975 169.233C886.708 167.944 895.614 168.358 904.184 170.449C912.754 172.541 920.819 176.27 927.919 181.422C935.019 186.574 941.014 193.048 945.565 200.473C950.115 207.898 953.131 216.13 954.441 224.697C955.752 233.265 955.332 242.002 953.204 250.41C951.077 258.819 947.284 266.735 942.041 273.706C936.798 280.678 930.207 286.568 922.643 291.04C915.079 295.512 906.692 298.478 897.959 299.767C889.226 301.056 880.32 300.642 871.75 298.551C863.18 296.459 855.115 292.73 848.015 287.578C840.915 282.426 834.919 275.952 830.369 268.527C825.819 261.102 822.803 252.87 821.493 244.303C820.182 235.735 820.602 226.998 822.729 218.59C824.857 210.181 828.65 202.265 833.893 195.294L833.893 195.294Z" stroke="#056F6E" stroke-opacity="0.29" stroke-width="3"/>
<path d="M833.893 195.294C839.136 188.322 845.727 182.432 853.291 177.96C860.854 173.488 869.242 170.522 877.975 169.233C886.708 167.944 895.614 168.358 904.184 170.449C912.754 172.541 920.819 176.27 927.919 181.422C935.019 186.574 941.014 193.048 945.565 200.473C950.115 207.898 953.131 216.13 954.441 224.697C955.752 233.265 955.332 242.002 953.204 250.41C951.077 258.819 947.284 266.735 942.041 273.706C936.798 280.678 930.207 286.568 922.643 291.04C915.079 295.512 906.692 298.478 897.959 299.767C889.226 301.056 880.32 300.642 871.75 298.551C863.18 296.459 855.115 292.73 848.015 287.578C840.915 282.426 834.919 275.952 830.369 268.527C825.819 261.102 822.803 252.87 821.493 244.303C820.182 235.735 820.602 226.998 822.729 218.59C824.857 210.181 828.65 202.265 833.893 195.294L833.893 195.294Z" stroke="#056F6E" stroke-opacity="0.29" stroke-width="3"/>
<path d="M53.0311 379.294C58.2743 372.322 64.8654 366.432 72.4291 361.96C79.9929 357.488 88.3807 354.522 97.1135 353.233C105.846 351.944 114.752 352.358 123.322 354.449C131.892 356.541 139.957 360.27 147.057 365.422C154.157 370.574 160.153 377.048 164.703 384.473C169.253 391.898 172.269 400.13 173.58 408.697C174.89 417.265 174.47 426.002 172.343 434.41C170.216 442.819 166.423 450.735 161.18 457.706C155.936 464.678 149.345 470.568 141.782 475.04C134.218 479.512 125.83 482.478 117.097 483.767C108.364 485.056 99.4585 484.642 90.8886 482.551C82.3187 480.459 74.2537 476.73 67.1536 471.578C60.0536 466.426 54.0579 459.952 49.5077 452.527C44.9576 445.102 41.9417 436.87 40.6311 428.303C39.3205 419.735 39.7407 410.998 41.8679 402.59C43.9951 394.181 47.788 386.265 53.0311 379.294L53.0311 379.294Z" stroke="#248C8A" stroke-opacity="0.29" stroke-width="3"/>
<path d="M213.499 172.134C216.557 168.067 220.403 164.63 224.816 162.021C229.23 159.411 234.125 157.68 239.222 156.928C244.319 156.176 249.517 156.417 254.519 157.638C259.521 158.859 264.228 161.035 268.37 164.041C272.513 167.047 276.011 170.824 278.665 175.155C281.319 179.486 283.078 184.287 283.842 189.283C284.607 194.28 284.362 199.375 283.121 204.278C281.88 209.182 279.668 213.799 276.61 217.866C273.551 221.933 269.706 225.37 265.292 227.979C260.878 230.589 255.983 232.32 250.886 233.072C245.789 233.824 240.591 233.583 235.589 232.362C230.587 231.141 225.881 228.965 221.738 225.959C217.595 222.953 214.097 219.176 211.443 214.845C208.789 210.514 207.03 205.713 206.266 200.717C205.502 195.72 205.747 190.625 206.987 185.721C208.228 180.818 210.44 176.201 213.499 172.134L213.499 172.134Z" stroke="#248C8A" stroke-opacity="0.47" stroke-width="3"/>
<ellipse cx="90" cy="209.5" rx="108" ry="109.5" fill="url(#paint0_radial_156_1141)" fill-opacity="0.7"/>
<ellipse cx="372" cy="88.5" rx="108" ry="109.5" fill="url(#paint1_radial_156_1141)"/>
<ellipse cx="245" cy="413.5" rx="108" ry="109.5" fill="url(#paint2_radial_156_1141)"/>
<ellipse cx="1131" cy="318.5" rx="108" ry="109.5" fill="url(#paint3_radial_156_1141)" fill-opacity="0.64"/>
<ellipse cx="1009" cy="59.5" rx="108" ry="109.5" fill="url(#paint4_radial_156_1141)"/>
<ellipse cx="1009" cy="59.5" rx="108" ry="109.5" fill="url(#paint5_radial_156_1141)"/>
<ellipse cx="1009" cy="59.5" rx="108" ry="109.5" fill="url(#paint6_radial_156_1141)"/>
<ellipse cx="1438" cy="524.5" rx="108" ry="109.5" fill="url(#paint7_radial_156_1141)"/>
<ellipse cx="1438" cy="524.5" rx="108" ry="109.5" fill="url(#paint8_radial_156_1141)"/>
<ellipse cx="1438" cy="524.5" rx="108" ry="109.5" fill="url(#paint9_radial_156_1141)"/>
<defs>
<radialGradient id="paint0_radial_156_1141" cx="0" cy="0" r="1" gradientUnits="userSpaceOnUse" gradientTransform="translate(90 209.5) rotate(90) scale(109.5 108)">
<stop stop-color="#007E7C"/>
<stop offset="1" stop-color="#007E7C" stop-opacity="0"/>
</radialGradient>
<radialGradient id="paint1_radial_156_1141" cx="0" cy="0" r="1" gradientUnits="userSpaceOnUse" gradientTransform="translate(372 88.5) rotate(90) scale(109.5 108)">
<stop stop-color="#007E7C"/>
<stop offset="1" stop-color="#007E7C" stop-opacity="0"/>
</radialGradient>
<radialGradient id="paint2_radial_156_1141" cx="0" cy="0" r="1" gradientUnits="userSpaceOnUse" gradientTransform="translate(245 413.5) rotate(90) scale(109.5 108)">
<stop stop-color="#007E7C"/>
<stop offset="1" stop-color="#007E7C" stop-opacity="0"/>
</radialGradient>
<radialGradient id="paint3_radial_156_1141" cx="0" cy="0" r="1" gradientUnits="userSpaceOnUse" gradientTransform="translate(1131 318.5) rotate(90) scale(109.5 108)">
<stop stop-color="#0E9492"/>
<stop offset="1" stop-color="#007E7C" stop-opacity="0"/>
</radialGradient>
<radialGradient id="paint4_radial_156_1141" cx="0" cy="0" r="1" gradientUnits="userSpaceOnUse" gradientTransform="translate(1009 59.5) rotate(90) scale(109.5 108)">
<stop stop-color="#0E9492"/>
<stop offset="1" stop-color="#007E7C" stop-opacity="0"/>
</radialGradient>
<radialGradient id="paint5_radial_156_1141" cx="0" cy="0" r="1" gradientUnits="userSpaceOnUse" gradientTransform="translate(1009 59.5) rotate(90) scale(109.5 108)">
<stop stop-color="#0E9492"/>
<stop offset="1" stop-color="#007E7C" stop-opacity="0"/>
</radialGradient>
<radialGradient id="paint6_radial_156_1141" cx="0" cy="0" r="1" gradientUnits="userSpaceOnUse" gradientTransform="translate(1009 59.5) rotate(90) scale(109.5 108)">
<stop stop-color="#0E9492"/>
<stop offset="1" stop-color="#007E7C" stop-opacity="0"/>
</radialGradient>
<radialGradient id="paint7_radial_156_1141" cx="0" cy="0" r="1" gradientUnits="userSpaceOnUse" gradientTransform="translate(1438 524.5) rotate(90) scale(109.5 108)">
<stop stop-color="#0E9492"/>
<stop offset="1" stop-color="#007E7C" stop-opacity="0"/>
</radialGradient>
<radialGradient id="paint8_radial_156_1141" cx="0" cy="0" r="1" gradientUnits="userSpaceOnUse" gradientTransform="translate(1438 524.5) rotate(90) scale(109.5 108)">
<stop stop-color="#0E9492"/>
<stop offset="1" stop-color="#007E7C" stop-opacity="0"/>
</radialGradient>
<radialGradient id="paint9_radial_156_1141" cx="0" cy="0" r="1" gradientUnits="userSpaceOnUse" gradientTransform="translate(1438 524.5) rotate(90) scale(109.5 108)">
<stop stop-color="#0E9492"/>
<stop offset="1" stop-color="#007E7C" stop-opacity="0"/>
</radialGradient>
</defs>
</svg>
