<svg width="359" height="301" viewBox="0 0 359 301" fill="none" xmlns="http://www.w3.org/2000/svg">
<ellipse cx="179.5" cy="150.5" rx="179.5" ry="150.5" fill="url(#paint0_radial_175_1143)"/>
<path d="M307.796 101.01H141.209V203.788H307.796V101.01Z" fill="#E0E0E0"/>
<path d="M302.745 105.605H136.158V208.384H302.745V105.605Z" fill="#EBEBEB"/>
<path d="M146.347 239.685C147.984 238.973 149.824 238.766 151.598 239.092C152.554 239.24 153.545 239.49 154.172 240.167C154.798 240.843 154.944 241.997 154.197 242.554C153.72 242.861 153.141 243.002 152.563 242.952C151.173 242.952 149.633 242.714 148.526 243.486C147.891 243.927 147.471 244.679 146.716 244.882C146.339 244.965 145.944 244.932 145.589 244.788C145.234 244.645 144.938 244.399 144.747 244.087C144.384 243.442 144.304 242.692 144.524 241.993C144.612 241.503 144.823 241.039 145.14 240.639C145.457 240.238 145.87 239.911 146.347 239.685V239.685Z" fill="#EBEBEB"/>
<path d="M142.686 233.147C143.664 234.44 145.56 234.01 146.44 233.222C147.319 232.434 147.692 231.284 148.031 230.194C148.808 227.699 149.588 225.084 149.009 222.542C148.871 221.772 148.508 221.052 147.958 220.46C147.679 220.17 147.322 219.953 146.924 219.83C146.526 219.707 146.1 219.683 145.689 219.76C144.732 219.995 144.136 220.866 143.707 221.694C142.439 224.136 141.775 226.811 141.764 229.521C141.764 230.783 141.918 232.104 142.686 233.147" fill="#EBEBEB"/>
<path d="M140.006 234.986C141.066 233.82 141.268 232.117 140.796 230.652C140.259 229.2 139.302 227.912 138.029 226.932C136.584 225.736 134.9 224.814 133.074 224.218C132.367 223.952 131.605 223.833 130.843 223.867C130.463 223.889 130.094 223.995 129.768 224.178C129.442 224.361 129.169 224.615 128.973 224.918C128.454 225.841 128.951 226.959 129.492 227.871C130.445 229.48 131.534 231.017 132.748 232.467C133.722 233.633 134.841 234.787 136.326 235.312C137.81 235.837 139.359 235.778 140.148 234.823" fill="#EBEBEB"/>
<path d="M142.619 252.646C142.674 252.454 142.704 252.256 142.709 252.057C142.756 251.627 142.812 251.09 142.876 250.465C142.963 249.674 143.094 248.888 143.266 248.11C143.494 247.16 143.802 246.229 144.189 245.324C144.567 244.422 145.083 243.575 145.72 242.809C146.236 242.185 146.895 241.675 147.651 241.317C148.165 241.083 148.714 240.925 149.281 240.847C149.493 240.838 149.704 240.81 149.911 240.764C149.697 240.743 149.482 240.743 149.268 240.764C148.675 240.801 148.094 240.936 147.552 241.162C146.756 241.511 146.057 242.025 145.51 242.666C144.848 243.444 144.315 244.309 143.927 245.233C143.531 246.147 143.224 247.093 143.009 248.058C142.845 248.847 142.732 249.644 142.67 250.445C142.619 251.126 142.597 251.679 142.584 252.037C142.573 252.241 142.584 252.445 142.619 252.646V252.646Z" fill="#E0E0E0"/>
<path d="M142.74 251.417C142.753 251.327 142.753 251.236 142.74 251.146V250.35C142.74 249.67 142.74 248.691 142.774 247.481C142.843 245.062 143.066 242.455 143.499 238.783C143.928 235.332 144.46 231.313 145.044 228.699C145.168 228.106 145.292 227.573 145.413 227.107C145.533 226.642 145.623 226.232 145.713 225.913C145.803 225.595 145.859 225.356 145.91 225.153C145.939 225.067 145.956 224.977 145.962 224.887C145.916 224.967 145.882 225.053 145.859 225.141C145.794 225.336 145.717 225.587 145.618 225.89C145.52 226.192 145.395 226.618 145.271 227.083C145.147 227.549 145.001 228.082 144.842 228.675C144.123 231.766 143.58 234.89 143.216 238.034C142.787 241.715 142.586 245.066 142.568 247.489C142.568 248.703 142.568 249.686 142.616 250.362C142.616 250.681 142.654 250.939 142.667 251.158C142.68 251.247 142.705 251.334 142.74 251.417Z" fill="#E0E0E0"/>
<path d="M142.756 244.954C142.782 244.683 142.782 244.41 142.756 244.139C142.721 243.617 142.644 242.861 142.486 241.934C142.294 240.848 142.036 239.773 141.713 238.715C141.333 237.414 140.848 236.141 140.263 234.907C139.256 232.641 137.816 230.562 136.012 228.77C135.697 228.464 135.362 228.176 135.008 227.907C134.854 227.788 134.721 227.664 134.579 227.569L134.193 227.322C133.96 227.156 133.712 227.01 133.451 226.884C134.305 227.498 135.114 228.163 135.875 228.874C137.625 230.683 139.03 232.756 140.032 235.002C140.607 236.228 141.094 237.489 141.49 238.775C141.868 239.968 142.121 241.047 142.314 241.958C142.507 242.869 142.597 243.625 142.661 244.143C142.67 244.415 142.702 244.686 142.756 244.954Z" fill="#E0E0E0"/>
<path d="M136.025 256.355L136.72 265.229H149.011L149.706 256.355H136.025Z" fill="#E0E0E0"/>
<path d="M151.174 252.856H134.838V256.354H151.174V252.856Z" fill="#E0E0E0"/>
<path d="M134.838 264.886V265.857H135.606H150.903V264.886H134.838Z" fill="#EBEBEB"/>
<path d="M136.354 267.564L135.604 265.857H150.318L149.438 267.564H136.354Z" fill="#E0E0E0"/>
<path d="M149.479 259.255C149.463 259.283 149.445 259.31 149.423 259.334L149.238 259.561L148.522 260.409L148.492 260.449L148.458 260.409L146.703 258.153H146.802C146.278 258.841 145.695 259.605 145.086 260.429L145.03 260.496L144.97 260.433L142.915 258.164H143.035L142.919 258.296L141.083 260.429L141.023 260.5L140.968 260.429L139.252 258.153H139.355L137.21 260.405L137.175 260.445L137.145 260.401L136.442 259.366L136.27 259.092C136.248 259.061 136.23 259.028 136.219 258.992C136.219 258.992 136.244 259.02 136.292 259.08L136.48 259.346C136.652 259.593 136.909 259.939 137.18 260.369H137.115L139.213 258.089L139.265 258.029L139.316 258.093C139.844 258.781 140.431 259.541 141.062 260.357H140.946C141.525 259.677 142.139 258.96 142.778 258.22L142.889 258.089L142.945 258.021L143.005 258.085L145.056 260.357H144.94L146.69 258.093L146.737 258.029L146.789 258.093L148.505 260.373H148.453L149.195 259.545L149.397 259.33C149.453 259.275 149.474 259.251 149.479 259.255Z" fill="#F5F5F5"/>
<path d="M149.878 256.295C149.878 256.335 146.798 256.367 143.014 256.367C139.23 256.367 136.15 256.335 136.15 256.295C136.15 256.256 139.226 256.228 143.014 256.228C146.802 256.228 149.878 256.26 149.878 256.295Z" fill="#F5F5F5"/>
<path d="M150.5 265.952C150.5 265.992 147.154 266.024 143.028 266.024C138.901 266.024 135.555 265.992 135.555 265.952C135.555 265.912 138.901 265.881 143.028 265.881C147.154 265.881 150.5 265.912 150.5 265.952Z" fill="#F5F5F5"/>
<path d="M310.742 267.559C310.742 267.618 269.559 267.666 218.811 267.666C168.062 267.666 126.871 267.618 126.871 267.559C126.871 267.499 168.028 267.455 218.811 267.455C269.594 267.455 310.742 267.503 310.742 267.559Z" fill="#263238"/>
<path d="M297.054 110.938H130.467V212.98H297.054V110.938Z" fill="#FAFAFA"/>
<path d="M297.053 212.979C297.053 212.307 297.019 173.186 296.963 110.937L297.053 111.021H130.479L130.591 110.917C130.591 147.229 130.591 181.773 130.591 212.959L130.488 212.864L297.075 212.959L130.488 213.055H130.385V212.959C130.385 181.773 130.385 147.229 130.385 110.917V110.814H130.509H297.083H297.173V110.898C297.088 173.17 297.053 212.307 297.053 212.979Z" fill="#263238"/>
<path d="M144.713 121.414L144.932 120.965C145.252 121.186 145.64 121.306 146.038 121.307C146.562 121.307 146.785 121.132 146.785 120.909C146.785 120.236 144.786 120.678 144.786 119.52C144.786 119.015 145.215 118.589 146.141 118.589C146.535 118.583 146.922 118.678 147.261 118.863L147.064 119.313C146.783 119.159 146.463 119.076 146.137 119.07C145.618 119.07 145.408 119.257 145.408 119.492C145.408 120.157 147.398 119.723 147.398 120.869C147.398 121.366 146.969 121.796 146.038 121.796C145.563 121.807 145.098 121.673 144.713 121.414Z" fill="#263238"/>
<path d="M150.367 120.73H148.351C148.389 120.904 148.495 121.058 148.649 121.164C148.803 121.27 148.993 121.319 149.183 121.303C149.312 121.308 149.441 121.288 149.561 121.243C149.681 121.199 149.789 121.131 149.878 121.044L150.2 121.387C150.072 121.52 149.912 121.625 149.734 121.694C149.556 121.763 149.363 121.794 149.17 121.785C148.988 121.802 148.804 121.783 148.63 121.73C148.456 121.676 148.296 121.588 148.162 121.472C148.027 121.357 147.921 121.216 147.85 121.059C147.779 120.902 147.745 120.733 147.751 120.563C147.746 120.4 147.777 120.239 147.842 120.088C147.907 119.937 148.004 119.8 148.128 119.685C148.253 119.57 148.401 119.48 148.564 119.42C148.727 119.361 148.901 119.332 149.076 119.337C149.25 119.333 149.423 119.361 149.584 119.422C149.745 119.483 149.89 119.574 150.011 119.689C150.132 119.805 150.226 119.943 150.287 120.094C150.347 120.245 150.373 120.406 150.363 120.567C150.376 120.611 150.372 120.678 150.367 120.73ZM148.347 120.364H149.801C149.784 120.199 149.699 120.047 149.564 119.939C149.429 119.831 149.254 119.775 149.076 119.783C148.898 119.778 148.725 119.835 148.59 119.942C148.455 120.05 148.368 120.2 148.347 120.364Z" fill="#263238"/>
<path d="M152.494 121.614C152.325 121.726 152.122 121.783 151.915 121.777C151.797 121.791 151.678 121.78 151.566 121.745C151.454 121.71 151.352 121.653 151.267 121.576C151.182 121.5 151.117 121.407 151.076 121.304C151.035 121.201 151.02 121.091 151.031 120.982V119.828H150.598V119.382H151.027V118.837H151.627V119.382H152.314V119.828H151.632V120.962C151.632 121.192 151.756 121.316 151.988 121.316C152.109 121.318 152.227 121.284 152.326 121.22L152.494 121.614Z" fill="#263238"/>
<path d="M155.471 119.366V121.754H154.887V121.451C154.784 121.56 154.657 121.646 154.514 121.704C154.37 121.762 154.215 121.79 154.059 121.785C153.908 121.798 153.756 121.78 153.613 121.731C153.471 121.682 153.342 121.604 153.236 121.503C153.13 121.402 153.05 121.28 153.002 121.146C152.954 121.013 152.938 120.871 152.957 120.731V119.366H153.557V120.647C153.557 121.081 153.776 121.284 154.158 121.284C154.258 121.289 154.357 121.273 154.449 121.237C154.541 121.202 154.623 121.148 154.69 121.079C154.757 121.011 154.807 120.929 154.836 120.841C154.865 120.752 154.872 120.659 154.857 120.568V119.374L155.471 119.366Z" fill="#263238"/>
<path d="M158.985 120.556C158.994 120.716 158.968 120.877 158.907 121.027C158.846 121.178 158.752 121.315 158.631 121.429C158.51 121.544 158.364 121.635 158.204 121.695C158.043 121.754 157.871 121.783 157.698 121.778C157.543 121.783 157.39 121.757 157.247 121.701C157.105 121.645 156.978 121.561 156.874 121.455V122.609H156.273V119.366H156.848V119.676C156.954 119.563 157.086 119.473 157.235 119.415C157.384 119.356 157.545 119.33 157.706 119.338C157.878 119.334 158.049 119.363 158.209 119.423C158.368 119.483 158.512 119.574 158.632 119.688C158.752 119.802 158.846 119.938 158.906 120.088C158.967 120.237 158.994 120.396 158.985 120.556V120.556ZM158.375 120.556C158.368 120.417 158.317 120.284 158.228 120.172C158.14 120.06 158.018 119.975 157.877 119.927C157.737 119.879 157.585 119.87 157.439 119.902C157.293 119.934 157.161 120.004 157.058 120.105C156.955 120.205 156.887 120.332 156.861 120.469C156.835 120.605 156.853 120.746 156.912 120.873C156.972 121 157.07 121.109 157.195 121.185C157.32 121.26 157.467 121.301 157.616 121.3C157.72 121.303 157.824 121.285 157.92 121.248C158.016 121.211 158.103 121.155 158.175 121.085C158.246 121.015 158.301 120.931 158.336 120.84C158.37 120.749 158.384 120.652 158.375 120.556V120.556Z" fill="#263238"/>
<path d="M165.656 118.625L164.523 121.745H164.146L163.163 119.083L162.181 121.745H161.812L160.68 118.625H161.044L162.005 121.327L163.009 118.645H163.339L164.326 121.327L165.313 118.633L165.656 118.625Z" fill="#263238"/>
<path d="M166.145 118.66C166.145 118.599 166.171 118.541 166.217 118.497C166.264 118.454 166.327 118.43 166.393 118.43C166.459 118.43 166.523 118.454 166.569 118.497C166.616 118.541 166.642 118.599 166.642 118.66C166.642 118.722 166.616 118.78 166.569 118.824C166.523 118.867 166.459 118.891 166.393 118.891C166.327 118.891 166.264 118.867 166.217 118.824C166.171 118.78 166.145 118.722 166.145 118.66V118.66ZM166.217 119.401H166.561V121.744H166.217V119.401Z" fill="#263238"/>
<path d="M169.293 121.482V121.745H167.238V121.534L168.83 119.667H167.268V119.401H169.267V119.608L167.676 121.482H169.293Z" fill="#263238"/>
<path d="M171.876 120.292V121.745H171.55V121.379C171.457 121.509 171.329 121.615 171.178 121.685C171.028 121.755 170.86 121.786 170.692 121.777C170.121 121.777 169.77 121.502 169.77 121.096C169.77 120.69 170.018 120.432 170.743 120.432H171.546V120.288C171.546 119.89 171.301 119.672 170.833 119.672C170.521 119.663 170.216 119.761 169.975 119.946L169.821 119.711C170.112 119.497 170.475 119.384 170.846 119.393C170.981 119.374 171.119 119.383 171.249 119.421C171.379 119.458 171.499 119.523 171.598 119.61C171.697 119.696 171.774 119.803 171.822 119.921C171.87 120.039 171.889 120.166 171.876 120.292V120.292ZM171.533 121.04V120.643H170.76C170.267 120.643 170.108 120.822 170.108 121.064C170.108 121.307 170.344 121.506 170.748 121.506C170.914 121.513 171.079 121.472 171.22 121.389C171.361 121.306 171.47 121.184 171.533 121.04V121.04Z" fill="#263238"/>
<path d="M174.076 119.382V119.688H173.994C173.873 119.682 173.752 119.7 173.639 119.743C173.526 119.785 173.425 119.85 173.343 119.933C173.261 120.016 173.2 120.115 173.164 120.223C173.128 120.33 173.119 120.444 173.136 120.556V121.749H172.793V119.401H173.119V119.859C173.207 119.699 173.346 119.567 173.517 119.482C173.688 119.397 173.883 119.362 174.076 119.382Z" fill="#263238"/>
<path d="M176.976 118.438V121.745H176.646V121.28C176.545 121.434 176.401 121.56 176.23 121.646C176.059 121.731 175.866 121.772 175.672 121.765C175.33 121.765 175.003 121.639 174.762 121.416C174.52 121.192 174.385 120.888 174.385 120.571C174.385 120.255 174.52 119.951 174.762 119.727C175.003 119.503 175.33 119.378 175.672 119.378C175.862 119.371 176.05 119.411 176.218 119.493C176.387 119.574 176.53 119.695 176.633 119.843V118.438H176.976ZM176.637 120.571C176.628 120.401 176.565 120.237 176.456 120.099C176.347 119.962 176.197 119.857 176.024 119.798C175.852 119.739 175.665 119.728 175.485 119.766C175.306 119.805 175.143 119.892 175.017 120.016C174.89 120.14 174.806 120.295 174.774 120.463C174.741 120.631 174.763 120.804 174.836 120.961C174.909 121.117 175.03 121.251 175.184 121.344C175.338 121.438 175.518 121.487 175.702 121.487C175.83 121.489 175.956 121.466 176.074 121.42C176.192 121.374 176.298 121.306 176.386 121.22C176.474 121.134 176.542 121.032 176.585 120.92C176.628 120.808 176.646 120.69 176.637 120.571V120.571Z" fill="#263238"/>
<path d="M146.447 156.671L146.585 156.417C146.89 156.673 147.288 156.815 147.7 156.815C148.331 156.815 148.605 156.568 148.605 156.261C148.605 155.402 146.529 155.927 146.529 154.773C146.529 154.312 146.915 153.914 147.769 153.914C148.139 153.91 148.503 154.007 148.815 154.192L148.695 154.455C148.419 154.288 148.098 154.198 147.769 154.196C147.155 154.196 146.881 154.451 146.881 154.761C146.881 155.621 148.957 155.104 148.957 156.242C148.957 156.703 148.562 157.097 147.7 157.097C147.239 157.108 146.792 156.955 146.447 156.671V156.671Z" fill="#1A9C9A"/>
<path d="M150.993 156.911C150.84 157.022 150.65 157.08 150.456 157.074C150.357 157.085 150.256 157.074 150.161 157.044C150.067 157.014 149.981 156.964 149.909 156.899C149.838 156.833 149.784 156.754 149.75 156.667C149.716 156.579 149.704 156.486 149.714 156.394V154.973H149.285V154.702H149.714V154.189H150.057V154.702H150.829V154.973H150.057V156.374C150.053 156.428 150.06 156.484 150.08 156.536C150.099 156.588 150.13 156.635 150.17 156.676C150.21 156.716 150.259 156.748 150.314 156.77C150.368 156.792 150.427 156.804 150.486 156.803C150.623 156.807 150.757 156.764 150.864 156.684L150.993 156.911Z" fill="#1A9C9A"/>
<path d="M153.73 155.976H151.611C151.617 156.091 151.648 156.203 151.702 156.307C151.756 156.41 151.831 156.503 151.924 156.579C152.016 156.655 152.124 156.714 152.241 156.751C152.359 156.788 152.482 156.803 152.606 156.796C152.752 156.8 152.897 156.774 153.032 156.721C153.166 156.667 153.286 156.587 153.382 156.485L153.576 156.692C153.394 156.867 153.162 156.989 152.907 157.043C152.652 157.097 152.386 157.08 152.14 156.996C151.895 156.911 151.682 156.762 151.527 156.567C151.372 156.372 151.282 156.139 151.268 155.896C151.258 155.741 151.283 155.586 151.342 155.44C151.4 155.294 151.49 155.161 151.607 155.048C151.723 154.936 151.863 154.848 152.018 154.788C152.173 154.729 152.34 154.7 152.507 154.703C152.675 154.7 152.841 154.729 152.995 154.788C153.149 154.848 153.289 154.937 153.404 155.049C153.519 155.161 153.608 155.295 153.665 155.441C153.722 155.586 153.746 155.742 153.734 155.896C153.734 155.904 153.73 155.948 153.73 155.976ZM151.611 155.741H153.408C153.392 155.53 153.291 155.332 153.124 155.188C152.957 155.044 152.738 154.963 152.509 154.963C152.281 154.963 152.062 155.044 151.895 155.188C151.728 155.332 151.626 155.53 151.611 155.741Z" fill="#1A9C9A"/>
<path d="M156.999 155.879C157.008 156.036 156.982 156.193 156.922 156.34C156.862 156.487 156.77 156.621 156.651 156.733C156.533 156.845 156.39 156.934 156.233 156.992C156.076 157.051 155.907 157.078 155.738 157.073C155.548 157.079 155.36 157.04 155.192 156.959C155.024 156.878 154.881 156.758 154.777 156.611V157.936H154.434V154.717H154.76V155.151C154.863 154.998 155.007 154.873 155.179 154.788C155.351 154.704 155.543 154.663 155.738 154.669C155.909 154.664 156.079 154.692 156.237 154.751C156.396 154.811 156.539 154.9 156.658 155.014C156.777 155.128 156.869 155.264 156.927 155.413C156.986 155.562 157.01 155.721 156.999 155.879V155.879ZM156.66 155.879C156.652 155.707 156.59 155.54 156.481 155.4C156.373 155.26 156.222 155.153 156.048 155.092C155.874 155.031 155.684 155.019 155.503 155.057C155.321 155.095 155.156 155.182 155.028 155.307C154.899 155.432 154.813 155.589 154.78 155.759C154.747 155.928 154.768 156.103 154.842 156.262C154.915 156.42 155.037 156.556 155.193 156.65C155.348 156.745 155.53 156.795 155.716 156.794C155.844 156.796 155.971 156.772 156.089 156.726C156.207 156.68 156.314 156.612 156.402 156.527C156.491 156.441 156.559 156.339 156.603 156.228C156.648 156.116 156.667 155.998 156.66 155.879Z" fill="#1A9C9A"/>
<path d="M160.966 156.154C160.966 156.679 160.537 157.081 159.743 157.081C159.299 157.096 158.865 156.953 158.529 156.683L158.697 156.428C158.982 156.67 159.357 156.798 159.743 156.787C160.301 156.787 160.601 156.548 160.601 156.158C160.601 155.768 160.314 155.537 159.688 155.537H159.447V155.302L160.383 154.216H158.667V153.929H160.837V154.156L159.881 155.27C160.606 155.302 160.966 155.652 160.966 156.154Z" fill="#1A9C9A"/>
<path d="M265.309 196.49H247.879C247.455 196.49 247.111 196.808 247.111 197.202V205.515C247.111 205.908 247.455 206.227 247.879 206.227H265.309C265.733 206.227 266.077 205.908 266.077 205.515V197.202C266.077 196.808 265.733 196.49 265.309 196.49Z" fill="#E0E0E0"/>
<path d="M255.554 201.761C255.554 202.211 255.193 202.47 254.477 202.47H253.164V199.815H254.412C255.052 199.815 255.421 200.066 255.421 200.5C255.426 200.629 255.387 200.757 255.31 200.864C255.233 200.972 255.122 201.055 254.992 201.101C255.156 201.128 255.304 201.21 255.408 201.332C255.512 201.454 255.563 201.606 255.554 201.761V201.761ZM253.464 200.046V201.009H254.378C254.833 201.009 255.099 200.846 255.099 200.528C255.099 200.209 254.833 200.046 254.378 200.046H253.464ZM255.249 201.737C255.249 201.391 254.979 201.24 254.477 201.24H253.464V202.239H254.477C254.979 202.239 255.27 202.108 255.27 201.737H255.249Z" fill="white"/>
<path d="M257.802 201.233V202.47H257.527V202.16C257.446 202.271 257.334 202.36 257.204 202.418C257.074 202.476 256.929 202.501 256.785 202.49C256.3 202.49 256 202.251 256 201.909C256 201.567 256.214 201.344 256.832 201.344H257.514V201.221C257.514 200.882 257.304 200.695 256.905 200.695C256.644 200.692 256.39 200.776 256.189 200.93L256.06 200.731C256.304 200.552 256.607 200.456 256.918 200.461C257.034 200.443 257.153 200.45 257.265 200.482C257.377 200.514 257.48 200.569 257.566 200.644C257.651 200.719 257.717 200.811 257.758 200.913C257.799 201.015 257.814 201.124 257.802 201.233ZM257.514 201.869V201.543H256.841C256.412 201.543 256.287 201.698 256.287 201.901C256.287 202.104 256.489 202.275 256.832 202.275C256.978 202.283 257.122 202.249 257.245 202.176C257.367 202.103 257.462 201.995 257.514 201.869V201.869Z" fill="white"/>
<path d="M258.38 201.471C258.376 201.335 258.401 201.201 258.456 201.075C258.51 200.95 258.592 200.836 258.696 200.741C258.799 200.646 258.923 200.572 259.059 200.524C259.196 200.476 259.341 200.454 259.487 200.46C259.655 200.447 259.824 200.478 259.975 200.548C260.127 200.618 260.254 200.725 260.345 200.858L260.13 200.993C260.061 200.899 259.967 200.823 259.857 200.772C259.748 200.72 259.626 200.695 259.504 200.699C259.314 200.739 259.145 200.837 259.024 200.978C258.902 201.119 258.836 201.294 258.836 201.475C258.836 201.655 258.902 201.83 259.024 201.971C259.145 202.112 259.314 202.21 259.504 202.251C259.626 202.255 259.748 202.231 259.857 202.181C259.967 202.13 260.061 202.054 260.13 201.96L260.345 202.099C260.253 202.23 260.125 202.336 259.974 202.406C259.823 202.476 259.655 202.508 259.487 202.497C259.34 202.503 259.193 202.48 259.056 202.431C258.919 202.381 258.795 202.306 258.691 202.209C258.587 202.113 258.505 201.997 258.452 201.87C258.398 201.743 258.374 201.607 258.38 201.471V201.471Z" fill="white"/>
<path d="M261.663 201.467L261.157 201.901V202.47H260.848V199.656H261.139V201.563L262.426 200.476H262.782L261.877 201.312L262.881 202.506H262.529L261.663 201.467Z" fill="white"/>
<path d="M250.856 200.536C250.63 200.81 250.371 201.06 250.084 201.28V201.28V201.189C250.372 201.406 250.633 201.653 250.861 201.925C250.549 201.742 250.261 201.527 250.003 201.284L249.951 201.236L250.003 201.192C250.258 200.943 250.545 200.723 250.856 200.536V200.536Z" fill="white"/>
<path d="M252.083 201.237C251.404 201.322 250.716 201.322 250.037 201.237C250.716 201.152 251.404 201.152 252.083 201.237V201.237Z" fill="white"/>
<path d="M287.559 196.49H270.129C269.705 196.49 269.361 196.808 269.361 197.202V205.515C269.361 205.908 269.705 206.227 270.129 206.227H287.559C287.983 206.227 288.327 205.908 288.327 205.515V197.202C288.327 196.808 287.983 196.49 287.559 196.49Z" fill="#1A9C9A"/>
<path d="M275.321 199.815V202.47H275.072L273.236 200.317V202.47H272.936V199.815H273.184L275.025 201.968V199.815H275.321Z" fill="white"/>
<path d="M278.062 201.555H276.265C276.271 201.653 276.298 201.749 276.345 201.837C276.391 201.926 276.456 202.004 276.536 202.069C276.616 202.133 276.71 202.182 276.81 202.213C276.911 202.244 277.017 202.255 277.123 202.247C277.247 202.251 277.37 202.229 277.484 202.185C277.598 202.14 277.7 202.073 277.784 201.988L277.947 202.163C277.792 202.313 277.593 202.417 277.375 202.462C277.157 202.507 276.93 202.492 276.721 202.418C276.513 202.345 276.332 202.215 276.202 202.047C276.072 201.878 275.998 201.678 275.99 201.471C275.981 201.339 276.001 201.206 276.05 201.081C276.098 200.956 276.174 200.842 276.272 200.745C276.369 200.648 276.488 200.571 276.619 200.518C276.75 200.465 276.892 200.438 277.035 200.438C277.178 200.438 277.32 200.465 277.451 200.518C277.582 200.571 277.701 200.648 277.798 200.745C277.896 200.842 277.972 200.956 278.02 201.081C278.069 201.206 278.089 201.339 278.08 201.471C278.067 201.495 278.062 201.527 278.062 201.555ZM276.265 201.356H277.788C277.773 201.177 277.687 201.011 277.546 200.889C277.405 200.768 277.219 200.7 277.026 200.7C276.834 200.7 276.648 200.768 276.507 200.889C276.366 201.011 276.279 201.177 276.265 201.356V201.356Z" fill="white"/>
<path d="M279.966 202.47L279.284 201.634L278.598 202.47H278.268L279.126 201.447L278.315 200.476H278.641L279.289 201.272L279.932 200.476H280.249L279.443 201.447L280.301 202.47H279.966Z" fill="white"/>
<path d="M281.91 202.347C281.78 202.452 281.611 202.509 281.438 202.506C281.353 202.514 281.268 202.506 281.187 202.479C281.107 202.453 281.033 202.411 280.973 202.355C280.912 202.3 280.866 202.232 280.838 202.157C280.809 202.083 280.799 202.003 280.808 201.925V200.731H280.426V200.504H280.808V200.066H281.099V200.504H281.751V200.731H281.099V201.925C281.092 201.973 281.096 202.021 281.112 202.067C281.128 202.113 281.155 202.155 281.191 202.19C281.227 202.225 281.271 202.252 281.32 202.269C281.368 202.285 281.421 202.292 281.472 202.287C281.588 202.29 281.7 202.255 281.79 202.187L281.91 202.347Z" fill="white"/>
<path d="M283.883 201.925C284.11 201.651 284.369 201.401 284.655 201.181V201.181V201.272C284.367 201.055 284.107 200.808 283.879 200.536C284.191 200.719 284.479 200.935 284.737 201.181L284.793 201.224L284.737 201.272C284.481 201.52 284.195 201.739 283.883 201.925Z" fill="white"/>
<path d="M282.656 201.224C282.994 201.165 283.338 201.145 283.682 201.164C284.023 201.145 284.366 201.165 284.702 201.224C284.367 201.287 284.023 201.309 283.682 201.287C283.338 201.309 282.993 201.287 282.656 201.224Z" fill="white"/>
<path d="M150.44 144.077C152.771 144.077 154.661 142.324 154.661 140.161C154.661 137.998 152.771 136.245 150.44 136.245C148.109 136.245 146.219 137.998 146.219 140.161C146.219 142.324 148.109 144.077 150.44 144.077Z" fill="#1A9C9A"/>
<path d="M236.499 140.388C236.463 140.069 236.406 139.753 236.328 139.441C236.083 138.597 235.539 137.854 234.783 137.331C234.272 136.97 233.675 136.727 233.042 136.623C232.316 136.501 231.568 136.561 230.875 136.798C230.11 137.057 229.446 137.521 228.966 138.131C228.448 138.785 228.169 139.575 228.169 140.386C228.169 141.197 228.448 141.987 228.966 142.64C229.205 142.946 229.494 143.215 229.824 143.436C230.141 143.659 230.493 143.836 230.867 143.961C231.56 144.195 232.307 144.254 233.033 144.132C233.666 144.028 234.263 143.785 234.775 143.424C235.53 142.902 236.074 142.159 236.319 141.315C236.397 141.004 236.454 140.689 236.491 140.372C236.518 140.695 236.488 141.02 236.401 141.335C236.183 142.213 235.643 142.993 234.874 143.543C234.343 143.923 233.725 144.183 233.067 144.303C232.307 144.436 231.523 144.379 230.794 144.14C230.402 144.011 230.033 143.827 229.7 143.595C229.347 143.36 229.037 143.074 228.782 142.747C228.231 142.061 227.934 141.228 227.934 140.372C227.934 139.516 228.231 138.683 228.782 137.996C229.035 137.667 229.346 137.38 229.7 137.144C230.033 136.912 230.402 136.728 230.794 136.599C231.523 136.36 232.307 136.304 233.067 136.436C233.725 136.556 234.343 136.816 234.874 137.196C235.643 137.746 236.183 138.527 236.401 139.405C236.492 139.725 236.526 140.057 236.499 140.388V140.388Z" fill="#263238"/>
<path d="M277.399 139.934C277.369 139.934 277.399 139.584 277.223 138.987C276.976 138.145 276.434 137.403 275.683 136.878C275.131 136.493 274.483 136.242 273.8 136.149C273.116 136.056 272.419 136.123 271.77 136.345C271.397 136.47 271.046 136.646 270.728 136.866C270.399 137.088 270.109 137.357 269.87 137.662C269.351 138.316 269.072 139.107 269.072 139.918C269.072 140.73 269.351 141.521 269.87 142.175C270.349 142.785 271.014 143.249 271.779 143.508C272.427 143.729 273.125 143.797 273.808 143.704C274.492 143.61 275.139 143.36 275.691 142.974C276.443 142.45 276.984 141.708 277.231 140.865C277.399 140.269 277.377 139.918 277.407 139.918C277.432 140.243 277.401 140.569 277.317 140.885C277.127 141.625 276.711 142.298 276.119 142.823C275.527 143.349 274.784 143.706 273.98 143.85C273.221 143.986 272.437 143.93 271.71 143.687C271.316 143.56 270.946 143.377 270.612 143.146C270.258 142.91 269.948 142.623 269.694 142.294C269.143 141.607 268.846 140.774 268.846 139.918C268.846 139.062 269.143 138.229 269.694 137.543C269.948 137.214 270.258 136.926 270.612 136.691C270.946 136.459 271.316 136.277 271.71 136.15C272.437 135.907 273.221 135.851 273.98 135.987C274.784 136.131 275.527 136.488 276.119 137.013C276.711 137.539 277.127 138.212 277.317 138.951C277.4 139.273 277.428 139.605 277.399 139.934Z" fill="#263238"/>
<path d="M152.199 139.103C151.709 139.733 151.159 140.32 150.556 140.858C150.406 141.009 150.256 141.153 150.127 141.288L150.05 141.364L149.972 141.292C149.5 140.912 149.069 140.489 148.686 140.03C149.202 140.356 149.681 140.731 150.114 141.149H149.964C150.101 141.009 150.247 140.862 150.393 140.715C150.942 140.129 151.547 139.59 152.199 139.103V139.103Z" fill="white"/>
<path d="M186.02 139.366H155.459V140.957H186.02V139.366Z" fill="#1A9C9A"/>
<path d="M191.245 144.077C193.576 144.077 195.466 142.324 195.466 140.161C195.466 137.998 193.576 136.245 191.245 136.245C188.913 136.245 187.023 137.998 187.023 140.161C187.023 142.324 188.913 144.077 191.245 144.077Z" fill="#1A9C9A"/>
<path d="M193.003 139.103C192.512 139.732 191.962 140.319 191.36 140.858C191.206 141.009 191.06 141.153 190.931 141.288L190.858 141.364L190.781 141.292C190.306 140.914 189.874 140.491 189.494 140.03C190.008 140.358 190.485 140.733 190.918 141.149H190.768L191.197 140.715C191.746 140.129 192.35 139.589 193.003 139.103Z" fill="white"/>
<path d="M226.819 139.366H196.258V140.957H226.819V139.366Z" fill="#1A9C9A"/>
<path d="M268.255 139.934C268.255 139.99 261.413 140.038 252.975 140.038C244.537 140.038 237.682 139.99 237.682 139.934C237.682 139.879 244.545 139.831 252.962 139.831C261.379 139.831 268.255 139.879 268.255 139.934Z" fill="#263238"/>
<path d="M297.054 127.536C297.054 127.592 259.758 127.639 213.762 127.639C167.767 127.639 130.467 127.592 130.467 127.536C130.467 127.48 167.754 127.432 213.762 127.432C259.771 127.432 297.054 127.476 297.054 127.536Z" fill="#E0E0E0"/>
<path d="M275.766 162.343C275.766 162.399 247.316 162.446 212.229 162.446C177.143 162.446 148.68 162.399 148.68 162.343C148.68 162.287 177.126 162.24 212.229 162.24C247.333 162.24 275.766 162.287 275.766 162.343Z" fill="#263238"/>
<path d="M205.34 166.995C205.291 167 205.242 167 205.194 166.995H204.765L203.113 167.015L197.043 167.046L177.014 167.074L156.981 167.046L150.906 167.015L149.259 166.995H148.83C148.78 167 148.73 167 148.68 166.995H148.83H149.259L150.906 166.975L156.981 166.943L177.014 166.911L197.043 166.943L203.113 166.975L204.765 166.995H205.194H205.34Z" fill="#263238"/>
<path d="M262.79 173.763C262.79 173.819 239.557 173.866 210.884 173.866C182.21 173.866 158.977 173.819 158.977 173.763C158.977 173.707 182.206 173.659 210.884 173.659C239.561 173.659 262.79 173.707 262.79 173.763Z" fill="#263238"/>
<path d="M152.494 175.299C152.045 175.299 151.606 175.175 151.233 174.944C150.859 174.712 150.569 174.383 150.397 173.999C150.225 173.614 150.181 173.19 150.269 172.782C150.356 172.373 150.573 171.998 150.891 171.704C151.209 171.41 151.613 171.21 152.054 171.129C152.494 171.048 152.951 171.09 153.365 171.25C153.78 171.41 154.134 171.681 154.383 172.027C154.632 172.374 154.764 172.781 154.763 173.198C154.761 173.755 154.521 174.289 154.096 174.683C153.671 175.076 153.095 175.298 152.494 175.299V175.299ZM152.494 171.491C152.13 171.491 151.774 171.591 151.471 171.778C151.169 171.966 150.933 172.233 150.794 172.545C150.654 172.857 150.618 173.2 150.689 173.531C150.76 173.862 150.935 174.166 151.193 174.405C151.45 174.644 151.778 174.806 152.135 174.872C152.492 174.938 152.862 174.904 153.198 174.775C153.534 174.646 153.822 174.427 154.024 174.146C154.226 173.866 154.334 173.536 154.334 173.198C154.333 172.745 154.139 172.312 153.794 171.992C153.449 171.672 152.982 171.492 152.494 171.491V171.491Z" fill="#E0E0E0"/>
<path d="M241.739 178.92C241.739 178.92 241.67 178.92 241.529 178.92H240.903L238.492 178.94L229.625 178.972L200.359 179.028L171.103 178.996L162.236 178.964L159.829 178.944H159.198H158.988H159.198H159.829L162.236 178.924L171.103 178.892L200.359 178.861L229.607 178.892L238.475 178.924L240.885 178.944H241.512C241.67 178.912 241.739 178.92 241.739 178.92Z" fill="#263238"/>
<path d="M152.494 181.018C152.045 181.018 151.606 180.894 151.233 180.663C150.86 180.432 150.569 180.103 150.397 179.718C150.226 179.334 150.181 178.91 150.268 178.502C150.356 178.094 150.572 177.719 150.889 177.424C151.207 177.13 151.611 176.929 152.051 176.848C152.491 176.767 152.948 176.809 153.362 176.968C153.777 177.127 154.131 177.397 154.381 177.743C154.63 178.089 154.763 178.496 154.763 178.913C154.762 179.471 154.523 180.005 154.097 180.4C153.672 180.795 153.095 181.017 152.494 181.018V181.018ZM152.494 177.206C152.13 177.206 151.774 177.306 151.471 177.493C151.169 177.681 150.933 177.947 150.794 178.259C150.654 178.571 150.618 178.915 150.689 179.246C150.76 179.577 150.935 179.881 151.193 180.12C151.45 180.359 151.778 180.521 152.135 180.587C152.492 180.653 152.862 180.619 153.198 180.49C153.534 180.361 153.822 180.142 154.024 179.861C154.226 179.58 154.334 179.25 154.334 178.913C154.331 178.462 154.136 178.03 153.791 177.712C153.446 177.394 152.98 177.215 152.494 177.214V177.206Z" fill="#E0E0E0"/>
<path d="M152.496 179.848C153.048 179.848 153.495 179.432 153.495 178.92C153.495 178.408 153.048 177.993 152.496 177.993C151.944 177.993 151.496 178.408 151.496 178.92C151.496 179.432 151.944 179.848 152.496 179.848Z" fill="#1A9C9A"/>
<path d="M262.79 185.212C262.79 185.268 239.557 185.316 210.884 185.316C182.21 185.316 158.977 185.268 158.977 185.212C158.977 185.156 182.206 185.109 210.884 185.109C239.561 185.109 262.79 185.152 262.79 185.212Z" fill="#263238"/>
<path d="M152.494 186.748C152.045 186.748 151.606 186.625 151.233 186.393C150.86 186.162 150.569 185.833 150.397 185.449C150.226 185.064 150.181 184.641 150.268 184.232C150.356 183.824 150.572 183.449 150.889 183.155C151.207 182.86 151.611 182.66 152.051 182.579C152.491 182.497 152.948 182.539 153.362 182.698C153.777 182.858 154.131 183.127 154.381 183.474C154.63 183.82 154.763 184.227 154.763 184.643C154.762 185.201 154.523 185.736 154.097 186.13C153.672 186.525 153.095 186.747 152.494 186.748V186.748ZM152.494 182.94C152.13 182.94 151.774 183.04 151.471 183.228C151.168 183.416 150.932 183.683 150.793 183.995C150.654 184.307 150.618 184.65 150.689 184.982C150.761 185.313 150.936 185.617 151.194 185.856C151.452 186.094 151.78 186.257 152.138 186.322C152.495 186.387 152.865 186.353 153.201 186.223C153.537 186.093 153.825 185.874 154.026 185.593C154.228 185.311 154.335 184.981 154.334 184.643C154.333 184.191 154.139 183.758 153.794 183.439C153.449 183.119 152.981 182.94 152.494 182.94V182.94Z" fill="#E0E0E0"/>
<path d="M190.227 185.989C189.495 186.251 188.861 186.705 188.403 187.297C187.946 187.889 187.685 188.592 187.653 189.319C187.623 190.239 187.653 191.309 186.885 191.886C186.117 192.463 185.066 192.177 184.191 192.479C183.076 192.877 182.523 194.019 182.278 195.097C182.033 196.176 181.961 197.33 181.309 198.253C180.656 199.176 179.627 199.67 178.67 200.243C177.714 200.816 176.766 201.616 176.59 202.666C176.337 204.17 177.765 205.706 177.177 207.131C176.8 208.046 175.736 208.516 174.938 209.156C174.418 209.573 173.994 210.083 173.692 210.656C173.389 211.228 173.213 211.851 173.176 212.487C173.138 213.124 173.239 213.761 173.472 214.36C173.706 214.96 174.067 215.51 174.535 215.977C174.891 216.368 175.343 216.675 175.852 216.872C176.362 217.069 176.914 217.151 177.465 217.111C178.529 216.972 179.374 216.252 180.172 215.591C183.102 213.173 186.372 211.136 189.892 209.534C190.802 209.137 191.797 208.679 192.269 207.843C192.478 207.407 192.61 206.942 192.659 206.466C193.643 200.2 194.628 193.934 195.615 187.668" fill="#263238"/>
<path d="M200.257 180.032C199.859 178.651 200.729 177.151 202.021 176.367C203.312 175.583 204.916 175.4 206.456 175.44C207.996 175.48 209.798 175.838 210.673 177.075C211.218 177.843 211.312 178.826 211.801 179.63C213.178 181.898 217.005 181.938 218.498 184.143C219.918 186.236 218.468 188.978 218.807 191.429C219.034 193.072 220.059 194.509 220.862 195.993C221.664 197.477 222.256 199.232 221.578 200.768C220.849 202.408 218.798 203.47 218.575 205.233C218.322 207.418 221.115 209.419 220.257 211.469C219.622 212.989 217.254 213.566 216.984 215.177C216.846 216.041 217.413 216.853 217.648 217.692C218.283 219.825 216.791 222.169 214.646 223.156C212.501 224.143 209.927 223.988 207.675 223.267C205.873 222.688 204.215 221.78 202.799 220.596C201.383 219.412 200.237 217.976 199.43 216.374C198.623 214.772 198.171 213.035 198.1 211.268C198.029 209.501 198.341 207.738 199.018 206.085" fill="#263238"/>
<path d="M176.115 201.285C176.037 201.163 175.92 201.066 175.781 201.007C175.611 200.94 175.423 200.926 175.244 200.967C175.123 200.99 175.011 201.041 174.917 201.117C174.824 201.192 174.754 201.289 174.712 201.397C174.668 201.534 174.658 201.68 174.682 201.822C174.707 201.963 174.765 202.098 174.854 202.216C174.962 202.355 175.106 202.467 175.272 202.54C175.438 202.614 175.622 202.648 175.806 202.638C176.019 202.632 176.229 202.588 176.424 202.506C176.618 202.425 176.793 202.309 176.939 202.165C177.267 201.831 177.502 201.428 177.625 200.991C177.926 200.072 177.84 199.001 177.947 197.859C177.998 197.26 178.17 196.676 178.453 196.136C178.609 195.85 178.816 195.592 179.067 195.372C179.33 195.151 179.637 194.981 179.972 194.871C180.661 194.697 181.366 194.585 182.078 194.536C182.433 194.525 182.782 194.449 183.105 194.313C183.429 194.176 183.719 193.982 183.961 193.74C184.42 193.219 184.459 192.483 184.39 191.783C184.284 191.056 184.232 190.323 184.236 189.59C184.3 188.841 184.572 188.12 185.025 187.497C185.455 186.877 186.09 186.405 186.836 186.152C187.565 185.975 188.326 185.941 189.071 186.052C189.774 186.1 190.516 186.128 191.04 185.746C191.563 185.364 191.704 184.727 191.739 184.154C191.738 183.56 191.802 182.966 191.928 182.383C192.23 181.336 192.908 180.415 193.849 179.773C194.625 179.246 195.557 178.954 196.518 178.937C197.236 178.92 197.951 179.048 198.611 179.311C199.03 179.47 199.419 179.689 199.765 179.96C199.887 180.051 200 180.151 200.104 180.258C200.104 180.258 199.98 180.163 199.735 179.992C199.382 179.739 198.992 179.535 198.577 179.383C197.924 179.142 197.224 179.03 196.522 179.053C195.592 179.082 194.694 179.375 193.948 179.892C193.044 180.52 192.397 181.414 192.112 182.427C191.994 183 191.937 183.583 191.94 184.166C191.928 184.482 191.872 184.795 191.773 185.097C191.66 185.412 191.45 185.689 191.168 185.893C190.872 186.1 190.517 186.225 190.147 186.251C189.785 186.281 189.42 186.281 189.058 186.251C188.344 186.142 187.613 186.173 186.913 186.343C186.206 186.58 185.604 187.026 185.197 187.612C184.766 188.204 184.507 188.89 184.446 189.602C184.445 190.327 184.495 191.052 184.596 191.771C184.633 192.134 184.623 192.5 184.566 192.861C184.51 193.228 184.352 193.575 184.107 193.868C183.861 194.152 183.539 194.37 183.172 194.5C182.82 194.619 182.454 194.699 182.082 194.739C181.384 194.783 180.691 194.889 180.015 195.058C179.698 195.155 179.407 195.311 179.157 195.515C178.924 195.719 178.731 195.958 178.586 196.223C178.312 196.744 178.143 197.306 178.089 197.883C177.973 199.001 178.05 200.087 177.733 201.038C177.6 201.496 177.347 201.916 176.995 202.26C176.835 202.415 176.644 202.538 176.433 202.623C176.221 202.709 175.994 202.754 175.763 202.758C175.56 202.764 175.359 202.723 175.177 202.639C174.995 202.555 174.838 202.43 174.721 202.276C174.626 202.145 174.565 201.995 174.542 201.839C174.518 201.682 174.534 201.523 174.588 201.373C174.636 201.254 174.716 201.15 174.82 201.069C174.925 200.988 175.05 200.934 175.184 200.911C175.378 200.872 175.58 200.893 175.759 200.971C175.841 200.994 175.915 201.035 175.977 201.089C176.039 201.144 176.086 201.211 176.115 201.285Z" fill="#263238"/>
<path d="M222.995 206.216C223.014 206.249 223.032 206.284 223.047 206.319C223.089 206.422 223.109 206.531 223.107 206.641C223.088 206.856 223.013 207.062 222.888 207.244C222.763 207.425 222.592 207.575 222.39 207.68C222.104 207.849 221.76 207.914 221.425 207.863C221.03 207.787 220.676 207.584 220.426 207.29C220.135 206.959 219.953 206.557 219.902 206.132C219.857 205.657 219.943 205.179 220.151 204.743C220.554 203.812 221.391 203.032 222.167 202.165C222.575 201.722 222.904 201.223 223.141 200.684C223.379 200.11 223.493 199.497 223.476 198.882C223.46 198.235 223.304 197.597 223.017 197.007C222.707 196.402 222.269 195.861 221.73 195.416C221.185 194.942 220.572 194.508 220.014 193.975C219.419 193.445 219.035 192.744 218.924 191.986C218.889 191.24 219.013 190.494 219.289 189.793C219.54 189.126 219.711 188.437 219.799 187.736C219.886 187.08 219.829 186.415 219.633 185.78C219.437 185.145 219.106 184.553 218.658 184.039C218.23 183.57 217.69 183.2 217.08 182.96C216.497 182.751 215.872 182.663 215.248 182.702C214.641 182.749 214.031 182.678 213.455 182.495C212.934 182.269 212.524 181.87 212.305 181.377C211.876 180.461 211.876 179.55 211.683 178.814C211.608 178.466 211.476 178.131 211.293 177.819C211.137 177.561 210.92 177.339 210.658 177.17C210.3 176.923 209.852 176.814 209.409 176.868C209.261 176.902 209.117 176.952 208.98 177.015C209.104 176.92 209.252 176.855 209.409 176.828C209.861 176.76 210.323 176.858 210.696 177.103C210.973 177.276 211.205 177.505 211.374 177.771C211.572 178.087 211.717 178.43 211.803 178.786C212.009 179.538 212.009 180.445 212.447 181.317C212.655 181.773 213.039 182.14 213.523 182.348C214.076 182.517 214.66 182.58 215.239 182.531C215.91 182.476 216.585 182.574 217.207 182.814C217.828 183.054 218.378 183.431 218.808 183.911C219.277 184.444 219.625 185.06 219.831 185.72C220.037 186.38 220.098 187.073 220.01 187.755C219.924 188.469 219.753 189.171 219.499 189.849C219.233 190.526 219.112 191.245 219.143 191.966C219.25 192.674 219.611 193.329 220.168 193.824C220.7 194.337 221.305 194.775 221.863 195.257C222.427 195.723 222.883 196.292 223.201 196.928C223.499 197.541 223.66 198.205 223.673 198.878C223.687 199.517 223.566 200.152 223.317 200.748C223.068 201.303 222.725 201.818 222.3 202.272C221.507 203.148 220.683 203.908 220.288 204.799C220.086 205.211 219.999 205.664 220.035 206.116C220.079 206.517 220.244 206.897 220.512 207.214C220.74 207.493 221.066 207.689 221.434 207.768C221.746 207.82 222.069 207.763 222.339 207.608C222.532 207.512 222.698 207.374 222.822 207.205C222.946 207.037 223.024 206.844 223.051 206.641C223.053 206.498 223.035 206.355 222.995 206.216V206.216Z" fill="#263238"/>
<path d="M189.593 186.47C188.778 186.681 188.336 187.536 188.336 188.32C188.409 189.101 188.593 189.869 188.885 190.604C189.108 191.361 189.215 192.196 188.812 192.893C187.997 194.269 185.71 194.198 184.608 195.392C183.205 196.908 184.514 199.415 183.501 201.178C182.579 202.769 180.001 203.287 179.49 205.045C179.164 206.164 179.85 207.381 179.49 208.496C179.108 209.761 177.594 210.402 176.796 211.488C176.425 212.055 176.209 212.698 176.166 213.36C176.123 214.022 176.256 214.684 176.552 215.288C177.091 216.361 177.9 217.299 178.911 218.022C179.031 218.118 179.156 218.209 179.28 218.301L194.054 215.117L197.014 189.769L189.593 186.47Z" fill="#263238"/>
<path d="M197.697 181.778C197.163 181.723 196.625 181.856 196.191 182.151C195.758 182.446 195.459 182.881 195.355 183.37L190.494 210.004C189.825 213.132 194.325 215.861 197.937 216.502C201.588 217.151 202.086 215.523 202.819 212.57C204.046 207.632 204.471 205.774 204.466 205.806C204.462 205.837 209.22 206.009 211.446 200.632C212.557 197.962 213.445 193.402 214.046 189.654C214.586 186.275 213.145 181.695 209.486 181.361L197.697 181.778Z" fill="#B78876"/>
<path d="M211.878 192.993C211.838 193.179 211.72 193.343 211.551 193.449C211.382 193.556 211.174 193.596 210.973 193.562C210.874 193.55 210.778 193.52 210.692 193.474C210.605 193.427 210.53 193.365 210.47 193.291C210.41 193.216 210.366 193.132 210.342 193.042C210.318 192.952 210.314 192.858 210.33 192.766C210.371 192.581 210.489 192.417 210.658 192.31C210.826 192.203 211.033 192.161 211.235 192.193C211.334 192.205 211.43 192.236 211.517 192.283C211.603 192.33 211.679 192.393 211.738 192.467C211.798 192.542 211.842 192.627 211.866 192.717C211.89 192.807 211.894 192.901 211.878 192.993Z" fill="#263238"/>
<path d="M212.434 192.272C212.318 192.348 211.829 191.835 211.001 191.671C210.173 191.508 209.482 191.775 209.413 191.671C209.379 191.62 209.512 191.473 209.817 191.345C210.224 191.187 210.673 191.15 211.104 191.238C211.535 191.321 211.925 191.53 212.219 191.835C212.442 192.057 212.489 192.241 212.434 192.272Z" fill="#263238"/>
<path d="M203.647 191.362C203.606 191.548 203.489 191.712 203.32 191.819C203.15 191.926 202.943 191.968 202.741 191.935C202.643 191.922 202.548 191.892 202.462 191.845C202.376 191.798 202.301 191.735 202.241 191.661C202.181 191.587 202.138 191.503 202.113 191.413C202.089 191.324 202.083 191.231 202.098 191.139C202.139 190.953 202.257 190.79 202.426 190.683C202.595 190.576 202.802 190.534 203.003 190.566C203.102 190.578 203.197 190.609 203.284 190.655C203.37 190.702 203.445 190.764 203.505 190.839C203.565 190.913 203.608 190.997 203.633 191.087C203.657 191.177 203.662 191.27 203.647 191.362V191.362Z" fill="#263238"/>
<path d="M204.277 190.566C204.161 190.637 203.672 190.124 202.844 189.961C202.017 189.798 201.322 190.064 201.257 189.961C201.223 189.909 201.356 189.762 201.66 189.634C202.068 189.479 202.517 189.442 202.947 189.527C203.378 189.612 203.768 189.821 204.063 190.124C204.286 190.343 204.333 190.526 204.277 190.566Z" fill="#263238"/>
<path d="M205.969 196.621C206.433 196.58 206.902 196.593 207.363 196.661C207.582 196.681 207.792 196.685 207.856 196.558C207.923 196.36 207.923 196.147 207.856 195.949L207.573 194.333C207.196 192.041 206.968 190.171 207.071 190.159C207.174 190.147 207.556 191.993 207.929 194.29C208.015 194.851 208.101 195.392 208.182 195.905C208.261 196.17 208.237 196.451 208.114 196.701C208.066 196.766 208.002 196.82 207.927 196.858C207.853 196.896 207.77 196.917 207.685 196.92C207.561 196.927 207.437 196.919 207.316 196.896C206.856 196.857 206.404 196.764 205.969 196.621V196.621Z" fill="#263238"/>
<path d="M204.453 205.802C201.624 205.282 199.007 204.042 196.895 202.221C196.895 202.221 198.014 206.542 204.127 207.207L204.453 205.802Z" fill="#AA6550"/>
<path d="M205.195 198.4C205.082 198.182 204.911 197.994 204.698 197.855C204.484 197.715 204.236 197.629 203.976 197.604C203.791 197.584 203.603 197.598 203.424 197.647C203.245 197.696 203.078 197.777 202.934 197.887C202.791 197.99 202.687 198.133 202.637 198.295C202.587 198.456 202.593 198.628 202.655 198.786C202.755 198.951 202.907 199.084 203.09 199.167C203.273 199.251 203.478 199.282 203.68 199.256C204.101 199.206 204.506 199.079 204.873 198.882C204.979 198.836 205.076 198.774 205.16 198.699C205.201 198.663 205.228 198.617 205.24 198.567C205.251 198.516 205.246 198.464 205.225 198.416" fill="#AA6550"/>
<path d="M203.416 196.669C203.553 196.689 203.364 197.521 203.995 198.261C204.625 199.001 205.604 199.101 205.582 199.216C205.582 199.272 205.333 199.335 204.926 199.268C204.4 199.17 203.928 198.903 203.592 198.516C203.269 198.142 203.116 197.667 203.163 197.19C203.21 196.84 203.364 196.653 203.416 196.669Z" fill="#263238"/>
<path d="M204.958 189.073C204.826 189.268 204.023 189.006 203.032 188.922C202.041 188.839 201.196 188.922 201.111 188.715C201.072 188.616 201.256 188.445 201.617 188.317C202.096 188.155 202.608 188.095 203.116 188.142C203.623 188.19 204.112 188.344 204.547 188.592C204.873 188.783 205.014 188.974 204.958 189.073Z" fill="#263238"/>
<path d="M212.638 190.891C212.453 191.038 211.926 190.744 211.243 190.601C210.561 190.457 209.957 190.465 209.862 190.258C209.824 190.159 209.952 190.004 210.244 189.888C210.63 189.758 211.048 189.737 211.447 189.828C211.845 189.919 212.206 190.117 212.483 190.398C212.685 190.624 212.723 190.819 212.638 190.891Z" fill="#263238"/>
<path d="M202.044 180.756C201.467 180.175 200.761 179.717 199.976 179.411C199.191 179.106 198.344 178.96 197.493 178.985C195.798 179.093 194.164 180.159 193.76 181.659C193.499 182.634 193.709 183.764 193.035 184.556C192.362 185.348 191.212 185.432 190.294 185.885C189.581 186.251 189.02 186.828 188.702 187.524C188.383 188.22 188.324 188.995 188.535 189.725C188.93 190.967 190.114 192.057 189.938 193.339C189.771 194.532 188.467 195.328 187.935 196.435C187.347 197.66 187.806 199.136 188.703 200.207C189.599 201.277 190.878 202.022 192.135 202.746C193.108 203.311 194.159 203.896 195.309 203.884C195.988 203.853 196.643 203.636 197.189 203.26C197.735 202.884 198.148 202.365 198.376 201.771C198.582 201.175 198.647 200.544 198.567 199.923C198.486 199.301 198.261 198.703 197.909 198.17C197.321 197.234 196.399 196.351 196.454 195.277C196.545 193.605 198.925 192.694 199.174 191.035C199.307 190.183 198.827 189.359 198.458 188.559C198.089 187.76 197.823 186.797 198.333 186.072C198.994 185.133 200.513 185.157 201.564 184.58C202.002 184.336 202.357 183.983 202.591 183.561C202.824 183.139 202.926 182.665 202.885 182.193C202.828 181.719 202.634 181.269 202.323 180.891C202.011 180.512 201.595 180.219 201.117 180.044" fill="#263238"/>
<path d="M201.69 179.375C201.557 179.932 201.559 180.51 201.694 181.067C201.83 181.624 202.096 182.147 202.474 182.598C202.852 183.048 203.333 183.416 203.882 183.675C204.43 183.933 205.034 184.077 205.649 184.094C206.597 184.122 207.7 183.891 208.386 184.492C209.073 185.093 208.871 186.303 209.472 187.047C210.33 188.105 212.191 187.644 213.448 188.281C214.413 188.774 214.847 189.817 215.357 190.728C215.868 191.639 216.721 192.574 217.824 192.499C217.994 191.627 218.056 190.741 218.008 189.856C217.953 188.968 217.57 188.125 216.923 187.469C216.558 187.123 216.095 186.868 215.769 186.49C215.057 185.694 215.121 184.5 214.8 183.513C214.585 182.866 214.207 182.276 213.698 181.792C213.188 181.307 212.561 180.943 211.87 180.728C210.72 180.378 209.429 180.465 208.343 179.968C207.541 179.598 206.919 178.937 206.095 178.615C204.491 177.986 202.664 178.79 201.205 179.657" fill="#263238"/>
<path d="M179.791 211.416C179.631 211.391 179.475 211.346 179.328 211.281C178.905 211.094 178.542 210.809 178.272 210.453C177.831 209.892 177.626 209.2 177.698 208.508C177.8 207.593 178.258 206.745 178.985 206.12C179.383 205.774 179.842 205.487 180.319 205.157C180.809 204.846 181.182 204.401 181.387 203.884C181.497 203.298 181.497 202.699 181.387 202.113C181.344 201.453 181.493 200.795 181.816 200.207C182.155 199.588 182.658 199.059 183.279 198.671C183.928 198.267 184.689 198.044 185.471 198.03C186.251 197.994 187.037 198.07 187.813 197.974C188.196 197.931 188.565 197.816 188.898 197.636C189.23 197.44 189.498 197.166 189.675 196.84C189.987 196.157 190.211 195.443 190.344 194.711C190.433 194.346 190.57 193.991 190.752 193.657C190.941 193.321 191.213 193.03 191.545 192.809C192.213 192.446 192.953 192.209 193.72 192.113C194.427 192.021 195.104 191.791 195.706 191.436C195.98 191.259 196.198 191.017 196.337 190.736C196.467 190.458 196.524 190.155 196.504 189.852C196.432 189.258 196.276 188.675 196.041 188.117C195.822 187.578 195.724 187.002 195.753 186.426C195.777 186.145 195.87 185.873 196.024 185.63C196.179 185.404 196.389 185.215 196.637 185.077C197.1 184.855 197.606 184.72 198.126 184.679C198.576 184.634 199.023 184.564 199.464 184.468C200.162 184.292 200.779 183.907 201.219 183.374C201.5 183.041 201.709 182.66 201.832 182.252C201.914 181.969 201.922 181.814 201.935 181.814C201.935 181.964 201.914 182.114 201.875 182.26C201.77 182.683 201.57 183.08 201.287 183.426C200.845 183.983 200.216 184.389 199.498 184.58C199.054 184.683 198.602 184.76 198.147 184.811C197.648 184.856 197.163 184.992 196.719 185.209C196.489 185.337 196.296 185.516 196.158 185.73C196.019 185.944 195.94 186.185 195.925 186.434C195.904 186.989 196.004 187.543 196.217 188.062C196.463 188.63 196.624 189.227 196.697 189.837C196.722 190.169 196.662 190.501 196.521 190.807C196.371 191.126 196.131 191.401 195.826 191.603C195.201 191.975 194.498 192.22 193.763 192.32C193.024 192.411 192.312 192.638 191.67 192.988C191.075 193.437 190.68 194.073 190.558 194.775C190.424 195.523 190.194 196.254 189.872 196.952C189.676 197.306 189.379 197.605 189.014 197.815C188.654 198.012 188.254 198.136 187.839 198.181C187.024 198.281 186.234 198.201 185.475 198.237C184.748 198.255 184.04 198.457 183.427 198.82C182.814 199.183 182.32 199.694 181.996 200.298C181.681 200.854 181.533 201.478 181.567 202.105C181.681 202.712 181.681 203.332 181.567 203.939C181.345 204.488 180.945 204.96 180.422 205.288C179.954 205.623 179.482 205.901 179.092 206.231C178.38 206.825 177.923 207.638 177.805 208.519C177.727 209.187 177.911 209.858 178.324 210.41C178.58 210.767 178.93 211.059 179.341 211.257C179.628 211.373 179.795 211.405 179.791 211.416Z" fill="#455A64"/>
<path d="M215.375 219.849C215.508 219.731 215.633 219.604 215.749 219.471C216.057 219.068 216.229 218.589 216.242 218.094C216.271 217.314 216.074 216.54 215.671 215.854C215.242 215.03 214.573 214.179 214.127 213.068C213.671 211.849 213.671 210.523 214.127 209.304C214.374 208.626 214.759 207.998 215.259 207.454C215.779 206.896 216.409 206.431 216.911 205.838C217.413 205.245 217.769 204.485 217.52 203.745C217.271 203.005 216.551 202.483 215.916 201.902C215.576 201.611 215.286 201.273 215.058 200.9C214.838 200.509 214.705 200.081 214.667 199.642C214.608 198.754 214.768 197.866 215.135 197.044C215.483 196.208 215.942 195.452 216.323 194.656C216.726 193.907 216.986 193.1 217.091 192.268C217.15 191.484 217.014 190.697 216.693 189.968C216.373 189.24 215.876 188.589 215.242 188.066C214.602 187.626 213.93 187.227 213.23 186.873C212.888 186.677 212.595 186.415 212.372 186.104C212.183 185.794 212.06 185.452 212.012 185.098C211.97 184.776 211.857 184.466 211.682 184.186C211.499 183.927 211.248 183.715 210.952 183.57C210.37 183.314 209.754 183.128 209.121 183.017C208.526 182.911 207.948 182.732 207.405 182.483C206.932 182.25 206.499 181.953 206.118 181.604C205.5 181.044 205.024 180.365 204.724 179.614C204.533 179.148 204.421 178.656 204.393 178.158C204.379 177.984 204.379 177.81 204.393 177.636C204.399 178.303 204.535 178.964 204.792 179.586C205.102 180.313 205.58 180.967 206.191 181.504C206.565 181.843 206.991 182.127 207.456 182.348C207.985 182.586 208.544 182.758 209.121 182.861C209.771 182.967 210.403 183.153 211 183.414C211.323 183.568 211.598 183.797 211.798 184.079C211.986 184.378 212.11 184.707 212.162 185.05C212.206 185.382 212.321 185.703 212.501 185.993C212.707 186.281 212.978 186.524 213.295 186.705C214.004 187.058 214.685 187.457 215.332 187.899C215.996 188.441 216.516 189.119 216.851 189.878C217.186 190.637 217.327 191.458 217.263 192.276C217.161 193.131 216.896 193.962 216.482 194.732C216.096 195.528 215.624 196.28 215.302 197.091C214.949 197.885 214.792 198.741 214.843 199.598C214.878 200.015 215.003 200.422 215.212 200.792C215.43 201.148 215.706 201.471 216.032 201.747C216.349 202.034 216.688 202.308 216.988 202.615C217.306 202.915 217.547 203.278 217.692 203.677C217.812 204.08 217.799 204.507 217.653 204.903C217.516 205.282 217.306 205.635 217.035 205.945C216.516 206.558 215.877 207.024 215.375 207.561C214.887 208.086 214.511 208.692 214.269 209.348C213.825 210.532 213.825 211.82 214.269 213.005C214.698 214.079 215.358 214.943 215.779 215.79C216.179 216.498 216.366 217.292 216.319 218.09C216.297 218.596 216.107 219.082 215.774 219.483C215.665 219.626 215.53 219.749 215.375 219.849V219.849Z" fill="#455A64"/>
<path d="M210.537 215.122C212.959 217.478 214.285 220.622 214.23 223.877C214.119 229.321 215.067 239.193 215.067 239.193L231.304 248.401L226.722 254.912L208.834 247.55L205.08 240.423L210.537 215.122Z" fill="#1A9C9A"/>
<path d="M215.5 252.424C215.5 252.424 216.105 251.345 214.402 250.522H211.644L206.26 241.899L210.55 215.122L203.206 209.948L186.952 208.607L181.268 235.707L188.53 248.023L202.936 253.51L215.5 252.424Z" fill="#1A9C9A"/>
<path d="M189.822 208.803L190.148 206.248C190.16 206.131 190.199 206.019 190.264 205.918C190.328 205.817 190.416 205.731 190.52 205.665C190.625 205.599 190.744 205.556 190.868 205.538C190.993 205.519 191.121 205.527 191.242 205.56C195.27 208.488 199.392 209.973 203.785 208.803C204.071 208.876 204.315 209.051 204.465 209.288C204.615 209.526 204.659 209.809 204.587 210.076L202.872 216.475L198.423 217.712L192.55 216.646L189.805 211.942L189.822 208.803Z" fill="#1A9C9A"/>
<path d="M203.899 210.565C203.735 210.685 203.554 210.784 203.363 210.86C202.869 211.098 202.354 211.295 201.823 211.449C200.061 211.97 198.181 212.045 196.377 211.667C194.573 211.29 192.911 210.472 191.561 209.3C191.155 208.95 190.781 208.568 190.446 208.158C190.316 208.012 190.203 207.853 190.111 207.684C190.6 208.214 191.12 208.717 191.669 209.192C193.021 210.313 194.66 211.095 196.429 211.464C198.198 211.834 200.04 211.78 201.78 211.306C202.501 211.097 203.209 210.85 203.899 210.565V210.565Z" fill="#263238"/>
<g opacity="0.2">
<path d="M190.606 208.183C190.502 208.429 190.466 208.696 190.501 208.958C190.537 209.221 190.642 209.471 190.808 209.687C191.148 210.109 191.565 210.474 192.039 210.765C193.617 211.856 195.256 212.934 197.144 213.435C199.031 213.937 201.245 213.746 202.695 212.516C203.124 212.162 203.437 211.493 203.004 211.155C202.678 210.9 202.184 211.056 201.79 211.199C199.846 211.888 197.709 211.953 195.721 211.382C193.733 210.812 192.009 209.639 190.825 208.051" fill="black"/>
</g>
<path d="M188.351 237.171L214.948 250.382L205.364 255.754L187.064 250.78C177.373 248.392 174.726 244.668 174.821 240.832C174.859 239.427 174.679 225.71 175.331 219.005C176.219 209.852 186.948 208.619 186.948 208.619L186.768 216.43L186.888 225.981L187.253 234.735C188.222 234.286 188.462 235.973 188.462 235.973L188.351 237.171Z" fill="#1A9C9A"/>
<path d="M187.062 235.802C187.002 235.802 186.917 232.487 186.878 228.401C186.839 224.314 186.857 220.995 186.917 220.991C186.977 220.987 187.062 224.306 187.101 228.397C187.14 232.488 187.131 235.802 187.062 235.802Z" fill="#263238"/>
<path d="M188.267 237.622C188.237 237.622 188.323 237.459 188.362 237.224C188.418 236.901 188.354 236.57 188.182 236.285C187.999 236.005 187.719 235.791 187.388 235.68C187.135 235.588 186.959 235.584 186.959 235.548C186.959 235.513 187.139 235.477 187.439 235.548C187.635 235.591 187.819 235.67 187.98 235.781C188.141 235.892 188.277 236.032 188.378 236.193C188.479 236.354 188.544 236.532 188.568 236.717C188.593 236.901 188.576 237.089 188.52 237.267C188.426 237.522 188.289 237.638 188.267 237.622Z" fill="#263238"/>
<path d="M188.268 237.621C188.268 237.621 188.268 237.621 188.316 237.661L188.47 237.753C188.612 237.832 188.822 237.94 189.096 238.079C189.641 238.354 190.439 238.744 191.426 239.217L199.147 242.898L206.895 246.571L209.233 247.701L209.863 248.015C209.941 248.047 210.013 248.089 210.078 248.139C209.998 248.117 209.92 248.088 209.846 248.051L209.194 247.773L206.822 246.702C204.844 245.791 202.077 244.518 199.075 243.093C196.072 241.668 193.322 240.343 191.353 239.356C189.384 238.369 188.2 237.701 188.268 237.621Z" fill="#263238"/>
<path d="M205.651 242.166C205.229 242.11 204.814 242.017 204.412 241.887C203.652 241.684 202.61 241.386 201.469 241.027C200.328 240.669 199.324 240.311 198.573 240.041C198.169 239.913 197.779 239.752 197.406 239.559C197.829 239.643 198.244 239.761 198.646 239.909L201.559 240.832L204.476 241.752C204.88 241.857 205.273 241.996 205.651 242.166Z" fill="#263238"/>
<path d="M199.099 232.009C199.099 232.009 199.069 232.121 198.97 232.3C198.833 232.558 198.669 232.803 198.481 233.032C198.207 233.374 197.896 233.69 197.554 233.975C197.128 234.318 196.665 234.619 196.173 234.875C195.675 235.12 195.15 235.316 194.607 235.46C194.163 235.571 193.707 235.64 193.247 235.667C192.939 235.694 192.629 235.694 192.321 235.667C192.106 235.643 191.986 235.623 191.99 235.607C191.995 235.591 192.471 235.607 193.234 235.535C193.68 235.488 194.121 235.405 194.551 235.288C195.075 235.137 195.582 234.942 196.066 234.704C196.546 234.458 196.999 234.169 197.417 233.84C197.758 233.571 198.073 233.274 198.356 232.953C198.841 232.388 199.073 231.994 199.099 232.009Z" fill="#263238"/>
<path d="M186.959 218.738C186.925 218.738 186.869 218.185 186.727 217.294C186.57 216.136 186.235 215.005 185.732 213.935C185.219 212.872 184.418 211.949 183.407 211.257C182.973 210.99 182.517 210.756 182.043 210.557C182.191 210.564 182.336 210.597 182.472 210.652C182.839 210.773 183.189 210.935 183.514 211.134C184.581 211.813 185.424 212.752 185.951 213.848C186.465 214.936 186.787 216.095 186.903 217.278C186.955 217.728 186.981 218.094 186.989 218.344C187.001 218.476 186.991 218.609 186.959 218.738V218.738Z" fill="#263238"/>
<path d="M215.298 239.157C215.062 239.313 214.836 239.482 214.62 239.662C214.126 240.128 213.693 240.648 213.333 241.21C212.967 241.764 212.679 242.359 212.475 242.981C212.33 243.458 212.325 243.777 212.287 243.777C212.227 243.502 212.24 243.218 212.325 242.949C212.486 242.298 212.761 241.675 213.14 241.107C213.503 240.529 213.96 240.006 214.496 239.559C214.71 239.349 214.991 239.208 215.298 239.157V239.157Z" fill="#263238"/>
<g opacity="0.2">
<path d="M211.341 248.844C212.225 247.273 212.006 245.366 211.508 243.671C211.01 241.976 210.255 240.293 210.11 238.526C209.985 236.994 210.333 235.466 210.663 233.962C210.993 232.458 211.315 230.925 211.143 229.397C210.972 227.869 210.234 226.321 208.853 225.478C209.46 226.727 209.892 228.043 210.14 229.393C210.379 230.758 210.044 232.155 209.204 233.297C208.745 233.854 208.128 234.312 207.827 234.957C207.433 235.812 207.493 236.783 207.201 237.639C206.879 238.582 206.296 241.741 206.296 241.741C206.257 241.916 207.304 243.703 208.338 244.977C209.372 246.25 210.629 247.4 211.379 248.836" fill="black"/>
</g>
<path d="M211.403 248.735C211.403 248.735 211.364 248.699 211.296 248.619L211.004 248.257L209.927 246.872C209.001 245.655 207.71 243.959 206.174 241.95L206.152 241.918V241.878L207.551 235.531C207.607 235.288 207.658 235.05 207.71 234.815V234.787V234.763C209.259 233.324 210.139 231.378 210.159 229.343C210.1 227.779 209.498 226.275 208.443 225.054V225.054V225.034C208.374 224.019 208.319 223.207 208.28 222.626C208.28 222.36 208.254 222.149 208.246 221.986C208.237 221.911 208.237 221.837 208.246 221.763C208.269 221.834 208.282 221.907 208.284 221.982C208.284 222.145 208.323 222.356 208.353 222.618C208.409 223.199 208.486 224.011 208.58 225.006V224.97C209.678 226.208 210.308 227.746 210.374 229.347C210.398 230.337 210.196 231.32 209.782 232.232C209.343 233.234 208.699 234.148 207.885 234.922L207.915 234.871C207.864 235.101 207.813 235.344 207.757 235.587C207.259 237.859 206.796 240.016 206.367 241.898V241.826L210.052 246.793C210.481 247.386 210.833 247.859 211.081 248.205L211.347 248.583C211.382 248.687 211.412 248.735 211.403 248.735Z" fill="#263238"/>
<g opacity="0.2">
<path d="M192.12 235.734C191.858 235.539 191.442 235.842 191.459 236.152C191.488 236.306 191.556 236.452 191.657 236.576C191.759 236.701 191.891 236.801 192.043 236.868C192.854 237.289 193.788 237.462 194.711 237.362C195.866 237.302 196.966 236.881 197.83 236.168C198.255 235.81 198.574 235.358 198.759 234.854C198.944 234.35 198.987 233.811 198.885 233.287C198.871 233.201 198.832 233.12 198.774 233.052C198.555 232.845 198.195 233.076 197.98 233.287C196.49 234.738 194.458 235.607 192.3 235.714" fill="black"/>
</g>
<g opacity="0.2">
<path d="M186.943 235.559C186.446 235.372 185.898 235.338 185.379 235.462C184.859 235.586 184.397 235.861 184.06 236.248C183.938 236.362 183.856 236.507 183.825 236.664C183.793 236.822 183.814 236.985 183.884 237.131C183.969 237.238 184.086 237.318 184.221 237.36C184.356 237.403 184.502 237.406 184.639 237.37C184.913 237.288 185.165 237.153 185.377 236.972C185.87 236.618 186.355 236.252 186.823 235.874C186.896 235.827 186.954 235.762 186.99 235.687C187.007 235.65 187.009 235.608 186.994 235.57C186.98 235.531 186.951 235.499 186.913 235.48" fill="black"/>
</g>
<path d="M184.695 237.641C184.669 237.641 184.695 237.438 184.823 237.143C185.002 236.762 185.27 236.422 185.606 236.147C185.943 235.871 186.34 235.668 186.771 235.551C186.944 235.487 187.132 235.469 187.316 235.5C186.752 235.686 186.225 235.954 185.754 236.296C185.328 236.69 184.97 237.144 184.695 237.641Z" fill="#263238"/>
<path d="M176.796 224.075C176.724 222.891 176.724 221.705 176.796 220.521C176.801 219.336 176.879 218.152 177.028 216.976C177.105 218.158 177.105 219.343 177.028 220.525C177.025 221.712 176.948 222.897 176.796 224.075V224.075Z" fill="#FAFAFA"/>
<path d="M178.706 229.626C178.646 229.626 178.59 227.716 178.586 225.364C178.582 223.013 178.633 221.106 178.693 221.106C178.753 221.106 178.809 223.013 178.814 225.364C178.818 227.716 178.766 229.626 178.706 229.626Z" fill="#FAFAFA"/>
<path d="M182.138 215.555C182.187 215.876 182.199 216.2 182.172 216.522C182.172 217.119 182.147 217.943 182.108 218.85C182.07 219.758 182.022 220.581 181.975 221.178C181.977 221.501 181.936 221.823 181.855 222.137C181.805 221.818 181.794 221.495 181.821 221.174C181.821 220.577 181.846 219.754 181.885 218.842C181.924 217.931 181.971 217.107 182.018 216.514C182.016 216.191 182.056 215.869 182.138 215.555V215.555Z" fill="#FAFAFA"/>
<path d="M184.648 226.98C184.535 226.069 184.498 225.151 184.536 224.235C184.503 223.319 184.542 222.403 184.652 221.493C184.762 222.403 184.798 223.32 184.759 224.235C184.795 225.151 184.758 226.069 184.648 226.98Z" fill="#FAFAFA"/>
<path d="M181.83 233.24C181.767 232.379 181.777 231.514 181.86 230.654C181.871 229.789 181.954 228.927 182.108 228.075C182.168 229.803 182.074 231.534 181.83 233.248V233.24Z" fill="#FAFAFA"/>
<path d="M176.086 238.464C175.905 236.77 175.874 235.065 175.991 233.366C176.171 235.06 176.203 236.765 176.086 238.464V238.464Z" fill="#FAFAFA"/>
<path d="M178.69 238.854C178.616 238.24 178.616 237.621 178.69 237.008C178.69 236.39 178.764 235.775 178.909 235.173C178.982 235.787 178.982 236.406 178.909 237.019C178.91 237.637 178.837 238.252 178.69 238.854Z" fill="#FAFAFA"/>
<path d="M192.463 241.759C191.56 241.467 190.697 241.08 189.889 240.605C189.044 240.191 188.251 239.69 187.525 239.113C187.56 239.061 188.641 239.698 190.001 240.426C191.361 241.154 192.493 241.708 192.463 241.759Z" fill="#FAFAFA"/>
<path d="M201.22 246.017C200.911 245.941 200.614 245.827 200.336 245.679C198.954 245.041 197.658 244.252 196.475 243.331C196.217 243.154 195.986 242.945 195.789 242.711C195.832 242.663 196.947 243.53 198.444 244.438C199.942 245.345 201.263 245.962 201.22 246.017Z" fill="#FAFAFA"/>
<path d="M201.78 248.349C201.051 248.149 200.346 247.882 199.674 247.553C198.97 247.289 198.298 246.96 197.666 246.57C198.393 246.77 199.097 247.037 199.768 247.366C200.471 247.633 201.145 247.962 201.78 248.349Z" fill="#FAFAFA"/>
<path d="M207.713 250.255C207.679 250.306 206.701 249.733 205.427 249.14C204.153 248.548 203.08 248.154 203.102 248.098C204.782 248.516 206.352 249.25 207.713 250.255V250.255Z" fill="#FAFAFA"/>
<path d="M206.243 252.985C205.706 252.758 205.189 252.492 204.698 252.189C204.171 251.948 203.663 251.672 203.18 251.361C203.759 251.487 204.309 251.706 204.806 252.01C205.34 252.257 205.826 252.587 206.243 252.985V252.985Z" fill="#FAFAFA"/>
<path d="M185.553 236.53C185.42 235.993 185.36 235.442 185.372 234.891C185.313 234.341 185.326 233.786 185.411 233.24C185.549 233.776 185.611 234.327 185.595 234.879C185.657 235.429 185.643 235.984 185.553 236.53V236.53Z" fill="#FAFAFA"/>
<path d="M198.645 225.627C198.432 224.88 198.288 224.117 198.216 223.347C198.071 222.588 198.002 221.818 198.01 221.047C198.227 221.792 198.37 222.554 198.439 223.323C198.584 224.083 198.653 224.855 198.645 225.627Z" fill="#FAFAFA"/>
<path d="M200.069 232.4C199.946 231.599 199.896 230.79 199.919 229.981C199.87 229.174 199.895 228.364 199.996 227.562C200.119 228.363 200.167 229.172 200.142 229.981C200.193 230.788 200.169 231.597 200.069 232.4V232.4Z" fill="#FAFAFA"/>
<path d="M191.434 233.367C190.996 231.898 190.878 230.363 191.086 228.851C191.151 228.851 191.142 229.865 191.237 231.111C191.331 232.356 191.498 233.355 191.434 233.367Z" fill="#FAFAFA"/>
<path d="M194.389 240.021C194.138 239.338 193.993 238.625 193.96 237.904C193.859 237.19 193.868 236.466 193.986 235.755C194.091 236.462 194.157 237.174 194.183 237.888C194.299 239.062 194.454 240.009 194.389 240.021Z" fill="#FAFAFA"/>
<path d="M195.666 230.462C195.518 228.917 195.518 227.363 195.666 225.818C195.815 227.363 195.815 228.917 195.666 230.462V230.462Z" fill="#FAFAFA"/>
<path d="M192.116 222.46C192.27 223.617 192.27 224.788 192.116 225.946C191.967 224.788 191.967 223.618 192.116 222.46V222.46Z" fill="#FAFAFA"/>
<path d="M195.744 216.591C195.916 217.615 195.939 218.656 195.813 219.686C195.693 219.178 195.644 218.658 195.667 218.139C195.62 217.622 195.646 217.101 195.744 216.591V216.591Z" fill="#FAFAFA"/>
<path d="M202.398 223.044C202.212 221.956 202.1 220.858 202.063 219.757C201.952 218.662 201.913 217.562 201.948 216.462C202.137 217.549 202.25 218.645 202.286 219.745C202.395 220.842 202.432 221.944 202.398 223.044Z" fill="#FAFAFA"/>
<path d="M204.57 234.656C204.46 233.433 204.422 232.206 204.459 230.979C204.422 229.752 204.46 228.525 204.57 227.302C204.683 228.525 204.721 229.752 204.682 230.979C204.721 232.206 204.683 233.433 204.57 234.656Z" fill="#FAFAFA"/>
<path d="M200.675 240.594C200.525 238.872 200.525 237.142 200.675 235.421C200.824 237.142 200.824 238.872 200.675 240.594V240.594Z" fill="#FAFAFA"/>
<path d="M204.222 244.079C204.113 243.756 204.075 243.417 204.11 243.08C204.075 242.742 204.113 242.401 204.222 242.077C204.333 242.401 204.371 242.742 204.333 243.08C204.371 243.417 204.333 243.757 204.222 244.079Z" fill="#FAFAFA"/>
<path d="M206.59 219.686C206.739 221.254 206.739 222.83 206.59 224.398C206.441 222.83 206.441 221.254 206.59 219.686V219.686Z" fill="#FAFAFA"/>
<path d="M204.152 211.489C204.262 212.529 204.3 213.575 204.264 214.62C204.3 215.665 204.262 216.711 204.152 217.752C204.042 216.711 204.005 215.665 204.041 214.62C204.005 213.575 204.042 212.529 204.152 211.489V211.489Z" fill="#FAFAFA"/>
<path d="M199.563 212.329C199.711 213.746 199.711 215.173 199.563 216.59C199.414 215.173 199.414 213.746 199.563 212.329V212.329Z" fill="#FAFAFA"/>
<path d="M210.094 222.058C209.797 220.347 209.764 218.605 209.996 216.885C210.06 216.885 210.039 218.051 210.069 219.48C210.099 220.908 210.159 222.05 210.094 222.058Z" fill="#FAFAFA"/>
<path d="M212.112 226.41C211.963 224.658 211.963 222.898 212.112 221.146C212.26 222.898 212.26 224.658 212.112 226.41V226.41Z" fill="#FAFAFA"/>
<path d="M213.352 234.06C213.203 232.253 213.203 230.438 213.352 228.632C213.5 230.438 213.5 232.253 213.352 234.06V234.06Z" fill="#FAFAFA"/>
<path d="M210.516 238.254C210.367 236.337 210.367 234.413 210.516 232.496C210.665 234.413 210.665 236.337 210.516 238.254V238.254Z" fill="#FAFAFA"/>
<path d="M208.297 243.093C208.148 241.066 208.148 239.032 208.297 237.004C208.41 238.016 208.447 239.033 208.409 240.049C208.447 241.064 208.41 242.082 208.297 243.093V243.093Z" fill="#FAFAFA"/>
<path d="M213.176 240.558C213.027 239.383 213.027 238.196 213.176 237.021C213.325 238.196 213.325 239.383 213.176 240.558V240.558Z" fill="#FAFAFA"/>
<path d="M217.95 249.164C216.834 248.843 215.741 248.456 214.677 248.006C213.586 247.621 212.522 247.171 211.494 246.657C212.609 246.979 213.701 247.366 214.763 247.815C215.856 248.201 216.92 248.651 217.95 249.164V249.164Z" fill="#FAFAFA"/>
<path d="M223.628 247.573C222.439 247.292 221.27 246.942 220.127 246.527C218.957 246.178 217.811 245.763 216.695 245.285C217.884 245.569 219.053 245.918 220.196 246.332C221.365 246.683 222.511 247.097 223.628 247.573V247.573Z" fill="#FAFAFA"/>
<path d="M219.627 244.052C218.816 243.783 218.031 243.45 217.281 243.057C216.497 242.721 215.746 242.321 215.037 241.863C215.849 242.132 216.634 242.464 217.384 242.858C218.168 243.193 218.919 243.593 219.627 244.052V244.052Z" fill="#FAFAFA"/>
<path d="M181.855 211.465C181.902 211.513 181.22 212.086 180.546 212.922C179.873 213.757 179.457 214.513 179.396 214.486C179.592 213.866 179.923 213.29 180.37 212.794C180.759 212.26 181.265 211.807 181.855 211.465V211.465Z" fill="#FAFAFA"/>
<path d="M187.728 212.977C187.528 212.587 187.396 212.169 187.338 211.74C187.203 211.326 187.145 210.894 187.166 210.462C187.364 210.852 187.496 211.268 187.557 211.696C187.686 212.112 187.744 212.544 187.728 212.977V212.977Z" fill="#FAFAFA"/>
<path d="M212.281 254.087L240.658 241.305C242.082 240.662 243.657 240.361 245.239 240.431C246.82 240.5 248.358 240.938 249.71 241.703C250.875 242.364 251.872 243.251 252.632 244.304C253.391 245.357 253.895 246.55 254.11 247.801C254.324 249.052 254.243 250.332 253.872 251.551C253.501 252.77 252.849 253.9 251.962 254.863L239.667 268.21L208.278 272.237L205.34 255.746L208.832 250.732L212.281 254.087Z" fill="#263238"/>
<path d="M229.425 259.547C229.322 259.65 229.205 259.739 229.077 259.814C228.846 259.973 228.503 260.212 228.078 260.47C227.22 261.012 226.032 261.732 224.68 262.488C223.329 263.244 222.085 263.885 221.171 264.33C220.712 264.553 220.339 264.728 220.077 264.844C219.943 264.914 219.798 264.968 219.648 265.003C219.761 264.91 219.886 264.832 220.022 264.772L221.077 264.199C221.969 263.721 223.2 263.061 224.547 262.309C225.894 261.557 227.1 260.856 227.979 260.347L229.017 259.746C229.143 259.663 229.28 259.596 229.425 259.547V259.547Z" fill="#455A64"/>
<path d="M169.474 260.53C169.474 260.53 172.292 247.907 173.764 245.965C175.235 244.023 178.272 239.674 182.138 239.228C186.003 238.783 193.9 243.08 195.337 244.767C198.975 249.045 221.934 271.588 221.651 271.294L214.251 276.025L206.431 273.733H183.995C183.995 273.733 168.453 271.294 169.474 260.53Z" fill="#263238"/>
<path d="M206.432 273.734C206.318 273.737 206.203 273.73 206.089 273.714C205.761 273.688 205.436 273.64 205.115 273.571C203.934 273.305 202.784 272.931 201.684 272.452C198.084 270.863 194.696 268.889 191.59 266.571C188.397 264.359 185.376 261.943 182.547 259.34C181.693 258.548 180.908 257.694 180.2 256.786C180.006 256.538 179.83 256.279 179.672 256.01C179.61 255.922 179.557 255.828 179.514 255.731C179.59 255.81 179.656 255.897 179.711 255.99C179.844 256.161 179.998 256.432 180.269 256.738C181.001 257.623 181.799 258.46 182.658 259.241C185.514 261.805 188.543 264.197 191.727 266.404C194.827 268.708 198.194 270.686 201.765 272.301C202.846 272.793 203.973 273.192 205.133 273.495C205.562 273.582 205.87 273.65 206.093 273.674C206.208 273.684 206.322 273.704 206.432 273.734V273.734Z" fill="#455A64"/>
<path d="M196.375 270.912C196.283 270.973 196.185 271.027 196.084 271.075L195.226 271.513C194.853 271.7 194.368 271.875 193.819 272.106C193.544 272.225 193.231 272.3 192.909 272.412C192.572 272.53 192.228 272.632 191.88 272.718C190.173 273.172 188.409 273.417 186.633 273.447C184.449 273.489 182.269 273.228 180.168 272.671C178.067 272.112 176.078 271.237 174.283 270.08C173.88 269.797 173.472 269.547 173.107 269.26C172.754 268.98 172.427 268.673 172.129 268.341C171.595 267.749 171.132 267.104 170.748 266.419C170.173 265.437 169.779 264.373 169.581 263.271C169.527 262.973 169.498 262.671 169.495 262.368C169.486 262.263 169.486 262.158 169.495 262.054C169.521 262.054 169.495 262.487 169.658 263.248C169.885 264.332 170.296 265.375 170.877 266.339C171.267 267.007 171.73 267.637 172.258 268.218C172.554 268.538 172.876 268.836 173.223 269.109C173.584 269.388 173.991 269.634 174.39 269.905C176.175 271.039 178.145 271.899 180.224 272.452C182.302 273.008 184.458 273.276 186.62 273.248C188.386 273.228 190.142 273.001 191.845 272.571C192.214 272.499 192.549 272.372 192.875 272.281C193.201 272.189 193.506 272.102 193.78 271.99C194.329 271.771 194.818 271.592 195.196 271.433L196.054 271.035C196.156 270.983 196.264 270.942 196.375 270.912V270.912Z" fill="#455A64"/>
<path d="M220.982 270.549C220.939 270.589 215.371 265.149 208.541 258.4C201.712 251.651 196.221 246.148 196.264 246.112C196.307 246.076 201.879 251.508 208.704 258.261C215.53 265.014 221.029 270.513 220.982 270.549Z" fill="#455A64"/>
<path d="M197.826 270.454C197.826 270.454 192.751 272.372 193.283 274.565C193.815 276.757 196.428 277.776 199.074 277.541C201.721 277.307 206.59 275.285 206.59 275.285L209.096 274.051C209.096 274.051 206.05 274.008 204.51 273.498C202.725 272.905 197.826 270.454 197.826 270.454Z" fill="#1A9C9A"/>
<path d="M204.102 274.303L222.119 276.929L260.153 273.411L239.3 268.111L204.123 272.802C203.929 272.828 203.752 272.918 203.623 273.056C203.495 273.193 203.424 273.369 203.424 273.551V273.551C203.423 273.73 203.491 273.904 203.615 274.042C203.739 274.179 203.911 274.272 204.102 274.303V274.303Z" fill="#455A64"/>
<path d="M226.957 250.351L222.599 274.255C222.544 274.568 222.568 274.888 222.669 275.191C222.769 275.494 222.943 275.771 223.177 276.002C223.411 276.233 223.699 276.41 224.019 276.521C224.339 276.632 224.682 276.674 225.022 276.642L260.143 273.395C260.625 273.351 261.078 273.162 261.434 272.858C261.79 272.553 262.03 272.15 262.117 271.708L266.852 247.53C266.914 247.213 266.896 246.887 266.798 246.578C266.701 246.269 266.528 245.986 266.292 245.75C266.056 245.514 265.764 245.332 265.439 245.219C265.114 245.106 264.765 245.065 264.42 245.098L228.909 248.64C228.428 248.69 227.977 248.884 227.625 249.193C227.273 249.502 227.039 249.908 226.957 250.351V250.351Z" fill="#455A64"/>
<path d="M203.41 273.55H203.505L203.783 273.578L204.852 273.717L208.815 274.266L222.238 276.204L222.114 276.288C222.337 275.042 222.564 273.745 222.8 272.42C223.86 266.539 224.816 261.218 225.516 257.346C225.872 255.432 226.159 253.876 226.374 252.786C226.472 252.257 226.554 251.843 226.614 251.545C226.64 251.413 226.665 251.31 226.682 251.226C226.688 251.188 226.698 251.151 226.713 251.115C226.717 251.152 226.717 251.189 226.713 251.226C226.713 251.314 226.687 251.421 226.665 251.552C226.618 251.851 226.549 252.269 226.468 252.798C226.279 253.892 226.013 255.452 225.687 257.37C225.009 261.246 224.074 266.57 223.04 272.452C222.8 273.777 222.573 275.074 222.35 276.324V276.423H222.238L208.811 274.434L204.856 273.825L203.792 273.654L203.517 273.602L203.41 273.55Z" fill="#263238"/>
<path d="M248.896 260.705C248.896 262.002 247.884 263.053 246.635 263.053C245.387 263.053 244.379 262.002 244.379 260.705C244.379 259.408 245.391 258.357 246.635 258.357C247.879 258.357 248.896 259.408 248.896 260.705Z" fill="#FAFAFA"/>
<path d="M195.973 195.62C196.883 196.865 197.801 198.131 198.307 199.559C198.813 200.988 198.869 202.623 198.079 203.936C197.423 205.027 196.218 205.882 196.012 207.12C195.669 209.225 198.393 210.785 198.586 212.906C198.697 214.1 197.955 215.246 197.11 216.173C196.265 217.1 195.278 217.944 194.729 219.046C194.18 220.148 194.21 221.605 195.214 222.401C193.961 222.074 192.661 223.308 191.426 222.926C190.375 222.603 190.096 221.37 189.993 220.347C189.736 220.652 189.559 221.008 189.478 221.388C189.397 221.767 189.413 222.159 189.526 222.532C188.589 221.615 187.982 220.451 187.79 219.2C187.598 217.95 187.83 216.675 188.453 215.552C189.208 214.251 190.495 213.105 190.495 211.656C190.474 210.065 188.865 208.871 188.414 207.307C188.101 206.248 188.359 205.122 188.702 204.072C189.045 203.021 189.483 201.975 189.53 200.888C189.577 199.802 189.47 199.352 188.457 198.787" fill="#263238"/>
<path d="M192.818 222.157H192.723C192.631 222.141 192.542 222.114 192.457 222.078C192.121 221.941 191.837 221.714 191.642 221.425C191.326 220.973 191.168 220.44 191.192 219.901C191.252 219.191 191.524 218.511 191.977 217.935C192.436 217.283 193.079 216.666 193.671 215.946C194.263 215.225 194.838 214.378 194.838 213.375C194.838 212.372 194.25 211.405 193.585 210.498C192.921 209.591 192.144 208.624 191.908 207.414C191.792 206.814 191.888 206.196 192.183 205.651C192.48 205.144 192.857 204.681 193.302 204.278C193.719 203.905 194.109 203.506 194.469 203.085C194.81 202.684 195.041 202.213 195.143 201.712C195.213 201.234 195.094 200.749 194.808 200.347C194.528 199.961 194.216 199.595 193.877 199.252C193.256 198.609 192.851 197.811 192.715 196.956C192.603 196.254 192.689 195.538 192.963 194.875C193.172 194.378 193.479 193.922 193.869 193.53C194.113 193.284 194.39 193.067 194.692 192.886C194.77 192.838 194.85 192.794 194.932 192.754C194.987 192.728 195.017 192.716 195.023 192.718C194.621 192.963 194.255 193.255 193.933 193.586C193.562 193.976 193.271 194.427 193.075 194.915C192.822 195.561 192.749 196.257 192.865 196.936C193.004 197.76 193.403 198.527 194.01 199.141C194.358 199.489 194.677 199.86 194.967 200.251C195.278 200.689 195.409 201.216 195.336 201.736C195.233 202.269 194.992 202.772 194.632 203.2C194.271 203.636 193.877 204.047 193.452 204.43C193.025 204.82 192.66 205.267 192.371 205.755C192.098 206.26 192.011 206.834 192.123 207.39C192.341 208.532 193.092 209.483 193.761 210.399C194.101 210.852 194.398 211.331 194.649 211.831C194.894 212.319 195.026 212.849 195.035 213.387C195.024 213.9 194.889 214.405 194.641 214.863C194.41 215.287 194.132 215.687 193.813 216.057C193.199 216.773 192.56 217.378 192.097 218.015C191.653 218.565 191.38 219.217 191.308 219.901C191.278 220.419 191.417 220.934 191.706 221.378C191.889 221.659 192.151 221.888 192.466 222.038C192.689 222.126 192.822 222.142 192.818 222.157Z" fill="#455A64"/>
<path d="M222.916 258.473C221.68 257.442 223.07 256.237 220.831 254.275C219.158 252.814 215.988 250.296 209.849 248.401L205.988 254.768L212.68 256.758L212.616 260.805C212.613 261.003 212.652 261.2 212.732 261.383C212.812 261.567 212.931 261.734 213.082 261.874C213.233 262.015 213.412 262.125 213.61 262.2C213.808 262.275 214.02 262.312 214.233 262.309L217.708 262.269C217.708 262.269 216.691 266.249 216.85 266.487C216.942 266.622 217.072 266.73 217.227 266.799C217.381 266.869 217.554 266.896 217.724 266.879C217.895 266.862 218.057 266.801 218.192 266.703C218.327 266.605 218.43 266.474 218.489 266.324C218.626 265.791 221.492 259.368 221.492 259.368C221.492 259.368 223.362 260.865 223.637 260.009C223.645 260.029 224.156 259.508 222.916 258.473Z" fill="#B78876"/>
<path d="M213.572 262.424C213.572 262.404 213.731 262.305 213.963 262.094C214.258 261.819 214.484 261.485 214.623 261.119C214.76 260.751 214.806 260.359 214.756 259.973C214.718 259.679 214.645 259.499 214.67 259.488C214.782 259.625 214.853 259.787 214.876 259.957C214.963 260.362 214.93 260.781 214.782 261.171C214.638 261.566 214.384 261.919 214.044 262.193C213.911 262.307 213.748 262.386 213.572 262.424V262.424Z" fill="#AA6550"/>
<path d="M215.803 262.292C216.094 261.912 216.319 261.491 216.472 261.047C216.57 260.59 216.59 260.121 216.532 259.658C216.616 259.777 216.668 259.914 216.682 260.056C216.744 260.397 216.728 260.747 216.635 261.082C216.542 261.417 216.374 261.731 216.142 262.002C215.961 262.213 215.803 262.304 215.803 262.292Z" fill="#AA6550"/>
<path d="M218.498 259.961C218.519 259.961 218.562 260.089 218.567 260.312C218.569 260.6 218.506 260.886 218.382 261.151C218.261 261.417 218.083 261.656 217.859 261.856C217.683 262.007 217.55 262.066 217.537 262.051C217.807 261.757 218.039 261.435 218.228 261.092C218.367 260.726 218.458 260.347 218.498 259.961V259.961Z" fill="#AA6550"/>
<path d="M309.585 241.351C309.971 240.109 310.795 238.911 312.073 238.398C313.352 237.885 314.943 238.171 316.303 238.629C317.663 239.087 319.001 239.699 320.443 239.783C321.884 239.866 323.518 239.23 323.952 237.948C324.359 236.755 323.574 235.461 322.596 234.586C321.559 233.666 320.289 233.002 318.903 232.655C317.517 232.307 316.06 232.288 314.664 232.599C313.268 232.91 311.979 233.541 310.914 234.434C309.849 235.326 309.042 236.453 308.568 237.71" fill="#1A9C9A"/>
<g opacity="0.5">
<path d="M309.583 241.351C309.969 240.109 310.793 238.912 312.071 238.398C313.35 237.885 314.941 238.172 316.301 238.629C317.661 239.087 318.999 239.7 320.441 239.783C321.882 239.867 323.516 239.23 323.95 237.949C324.357 236.755 323.572 235.462 322.594 234.586C321.557 233.666 320.287 233.002 318.901 232.655C317.515 232.308 316.058 232.289 314.662 232.6C313.266 232.91 311.977 233.541 310.912 234.434C309.847 235.327 309.04 236.453 308.566 237.71" fill="black"/>
</g>
<path d="M298.14 246.732C296.02 244.865 296.123 241.614 297.183 239.087C298.242 236.56 300.546 234.614 303.124 233.337C305.64 232.111 308.423 231.43 311.263 231.345C314.104 231.259 316.928 231.772 319.524 232.844C318.253 232.894 317.015 233.233 315.918 233.83C314.821 234.427 313.898 235.265 313.231 236.27C312.069 238.061 311.811 240.249 310.85 242.123C309.768 244.253 307.848 245.918 305.484 246.775C303.12 247.632 300.492 247.616 298.14 246.732" fill="#1A9C9A"/>
<path d="M297.119 235.509C294.772 232.942 294.459 228.816 294.806 225.465C295.154 222.115 295.99 218.74 295.42 215.413C295.081 213.444 294.257 211.561 293.978 209.584C293.7 207.606 294.094 205.366 295.746 204.092C297.646 202.624 300.636 202.97 302.61 204.347C304.583 205.724 305.728 207.889 306.565 210.049C308.405 214.789 309.079 220.045 307.569 224.884C306.059 229.723 302.515 234.037 297.32 235.509" fill="#1A9C9A"/>
<path d="M295.994 256.592C295.981 256.494 295.981 256.395 295.994 256.297C295.994 256.102 295.994 255.816 295.994 255.449C296.024 254.709 296.097 253.647 296.277 252.338C296.487 250.803 296.788 249.281 297.178 247.777C297.665 245.933 298.42 244.158 299.421 242.501C300.425 240.847 301.657 239.32 303.085 237.96C304.246 236.847 305.533 235.853 306.924 234.996C307.512 234.622 308.078 234.335 308.567 234.073C309.056 233.81 309.502 233.627 309.854 233.468L310.712 233.137C310.81 233.097 310.91 233.062 311.012 233.034C310.922 233.086 310.827 233.131 310.729 233.169L309.901 233.531C309.549 233.698 309.12 233.909 308.614 234.16C308.108 234.411 307.576 234.721 306.997 235.103C303.941 237.04 301.404 239.602 299.584 242.592C297.439 246.09 296.839 249.755 296.41 252.354C296.212 253.655 296.118 254.717 296.062 255.453L296.011 256.297C296.012 256.396 296.007 256.494 295.994 256.592V256.592Z" fill="#263238"/>
<path d="M275.751 225.373C271.41 227.804 271.422 230.017 272.147 232.102C272.872 234.187 275.541 235.64 277.75 234.86C278.998 234.418 279.895 233.411 280.676 232.401C281.456 231.39 282.173 230.303 283.249 229.579C284.326 228.855 285.905 228.572 286.99 229.293" fill="#1A9C9A"/>
<g opacity="0.5">
<path d="M275.753 225.375C271.412 227.806 271.424 230.019 272.149 232.104C272.874 234.189 275.543 235.641 277.752 234.861C279 234.42 279.897 233.413 280.678 232.402C281.458 231.392 282.175 230.305 283.251 229.581C284.328 228.857 285.907 228.574 286.992 229.294" fill="black"/>
</g>
<path d="M272.504 228.04C273.636 226.583 276.442 226.161 278.214 226.889C279.985 227.618 281.281 229.054 282.443 230.491C283.606 231.927 284.734 233.447 286.343 234.446C287.952 235.445 290.204 235.807 291.8 234.8C292.311 234.447 292.739 234.001 293.057 233.489C293.376 232.978 293.579 232.411 293.653 231.824C293.796 230.648 293.71 229.458 293.4 228.31C293.018 226.623 292.392 224.86 290.933 223.786C289.307 222.592 287.072 222.532 284.983 222.592C282.606 222.663 280.191 222.831 277.961 223.595C275.73 224.359 273.448 226.01 272.504 228.036" fill="#1A9C9A"/>
<path d="M292.383 253.368C292.383 253.368 292.383 253.336 292.383 253.28V253.018C292.383 252.775 292.362 252.441 292.349 252.019C292.319 251.135 292.28 249.886 292.233 248.342C292.186 246.798 292.113 244.944 291.993 242.894C291.873 240.845 291.705 238.593 291.371 236.249C291.227 235.108 290.986 233.98 290.65 232.874C290.305 231.854 289.86 230.866 289.32 229.922C288.837 229.063 288.274 228.246 287.639 227.478C287.084 226.811 286.471 226.187 285.807 225.612C284.838 224.783 283.744 224.09 282.56 223.555C282.345 223.467 282.161 223.376 281.993 223.316L281.564 223.161L281.303 223.065L281.217 223.025L281.307 223.045L281.577 223.129L282.006 223.264C282.178 223.324 282.366 223.407 282.581 223.491C283.79 224.005 284.907 224.688 285.893 225.516C286.568 226.092 287.193 226.717 287.759 227.387C288.405 228.159 288.979 228.98 289.475 229.842C290.023 230.795 290.475 231.793 290.826 232.823C291.169 233.936 291.413 235.074 291.555 236.225C291.894 238.581 292.053 240.837 292.164 242.886C292.276 244.936 292.332 246.786 292.366 248.338C292.4 249.89 292.413 251.151 292.418 252.019V253.018C292.418 253.125 292.418 253.209 292.418 253.28C292.413 253.311 292.401 253.341 292.383 253.368V253.368Z" fill="#263238"/>
<path d="M293.948 255.187C293.741 254.623 293.581 254.046 293.472 253.459C293.169 251.854 293.101 250.219 293.27 248.597C293.539 246.198 294.094 243.834 294.926 241.549C295.818 238.959 297.028 236.185 298.062 233.193C298.571 231.746 298.986 230.272 299.306 228.78C299.593 227.388 299.799 225.982 299.924 224.57C300.118 222.173 300.164 219.768 300.061 217.367C299.988 215.318 299.868 213.658 299.795 212.512C299.761 211.947 299.731 211.505 299.714 211.195C299.714 211.048 299.714 210.936 299.692 210.849C299.687 210.81 299.687 210.772 299.692 210.733C299.694 210.772 299.694 210.81 299.692 210.849C299.692 210.936 299.692 211.048 299.731 211.191C299.756 211.501 299.799 211.943 299.851 212.508C299.945 213.654 300.082 215.294 300.177 217.363C300.303 219.769 300.27 222.179 300.078 224.581C299.848 227.53 299.225 230.441 298.225 233.248C297.187 236.237 295.973 239.003 295.076 241.585C294.238 243.857 293.671 246.207 293.386 248.593C293.206 250.204 293.253 251.831 293.523 253.432C293.631 253.993 293.729 254.43 293.815 254.721C293.849 254.86 293.879 254.972 293.901 255.055L293.948 255.187Z" fill="#263238"/>
<path d="M304.712 257.009H284.327L283.859 253.368H304.712V257.009Z" fill="#455A64"/>
<path d="M286.51 256.592L289.062 267.511H300.139L302.524 256.592H286.51Z" fill="#455A64"/>
<path d="M304.712 257.022C304.712 257.07 300.229 257.097 294.7 257.085C289.17 257.074 284.691 257.018 284.691 256.966C284.691 256.914 289.17 256.89 294.7 256.902C300.229 256.914 304.712 256.958 304.712 257.022Z" fill="#455A64"/>
<path d="M301.211 262.398C300.658 262.012 300.056 261.691 299.418 261.443C298.721 261.191 297.982 261.056 297.234 261.045C296.317 261.045 295.407 261.2 294.549 261.502C293.618 261.793 292.751 262.131 291.906 262.318C291.156 262.47 290.383 262.492 289.624 262.382C289.113 262.315 288.617 262.17 288.157 261.952C288.032 261.891 287.913 261.82 287.801 261.741C287.76 261.717 287.722 261.687 287.689 261.653C287.689 261.653 287.865 261.749 288.191 261.888C288.652 262.077 289.141 262.2 289.641 262.254C290.384 262.343 291.138 262.309 291.868 262.155C292.683 261.968 293.549 261.626 294.489 261.331C295.367 261.024 296.3 260.87 297.239 260.877C298.006 260.9 298.762 261.054 299.469 261.331C299.943 261.517 300.389 261.759 300.795 262.051C300.907 262.13 301.013 262.215 301.112 262.306C301.172 262.358 301.215 262.394 301.211 262.398Z" fill="#263238"/>
<path d="M301.055 263.126C300.524 262.752 299.949 262.435 299.34 262.183C298.669 261.933 297.956 261.798 297.233 261.785C296.347 261.788 295.469 261.935 294.638 262.219C293.741 262.497 292.896 262.82 292.094 263.015C291.381 263.205 290.638 263.282 289.898 263.241C289.398 263.214 288.909 263.093 288.461 262.887C288.341 262.827 288.226 262.759 288.117 262.684C288.044 262.633 288.006 262.605 288.01 262.597C288.014 262.589 288.177 262.688 288.491 262.824C288.939 263 289.419 263.098 289.906 263.114C290.632 263.137 291.356 263.05 292.051 262.855C292.84 262.649 293.677 262.322 294.586 262.04C295.438 261.75 296.339 261.605 297.246 261.614C297.986 261.635 298.714 261.787 299.391 262.064C299.853 262.248 300.285 262.489 300.678 262.78C300.786 262.855 300.887 262.938 300.983 263.027C301.025 263.09 301.06 263.122 301.055 263.126Z" fill="white"/>
<path d="M301.411 261.673C300.837 261.276 300.219 260.938 299.566 260.666C298.858 260.382 298.102 260.212 297.331 260.164C296.385 260.147 295.443 260.301 294.56 260.618C293.666 260.943 292.752 261.219 291.823 261.446C291.044 261.572 290.247 261.572 289.468 261.446C288.943 261.369 288.432 261.22 287.954 261.004C287.825 260.942 287.702 260.87 287.585 260.789C287.503 260.738 287.465 260.706 287.469 260.698C287.473 260.69 287.649 260.797 287.984 260.94C288.465 261.133 288.971 261.267 289.49 261.338C290.255 261.44 291.033 261.425 291.793 261.295C292.711 261.06 293.614 260.781 294.5 260.459C295.405 260.135 296.371 259.983 297.34 260.013C298.13 260.067 298.903 260.252 299.622 260.558C300.106 260.761 300.562 261.017 300.982 261.318C301.097 261.4 301.205 261.487 301.308 261.581C301.381 261.633 301.415 261.669 301.411 261.673Z" fill="white"/>
<path d="M304.892 257.022C304.892 257.074 300.306 257.113 294.648 257.113C288.99 257.113 284.408 257.074 284.408 257.022C284.408 256.97 288.994 256.934 294.648 256.934C300.302 256.934 304.892 256.974 304.892 257.022Z" fill="#263238"/>
<defs>
<radialGradient id="paint0_radial_175_1143" cx="0" cy="0" r="1" gradientUnits="userSpaceOnUse" gradientTransform="translate(179.5 150.5) rotate(90) scale(150.5 179.5)">
<stop stop-color="#0C7978" stop-opacity="0.51"/>
<stop offset="1" stop-color="#FDFDFD" stop-opacity="0"/>
</radialGradient>
</defs>
</svg>
