<svg width="359" height="306" viewBox="0 0 359 306" fill="none" xmlns="http://www.w3.org/2000/svg">
<ellipse cx="179.5" cy="150.5" rx="179.5" ry="150.5" fill="url(#paint0_radial_175_1144)"/>
<path d="M292.099 221.063V243.047C292.099 244.959 291.321 246.791 289.938 248.143C288.554 249.494 286.677 250.253 284.72 250.253H203.997C202.041 250.252 200.166 249.492 198.783 248.141C197.401 246.79 196.624 244.958 196.624 243.047V224.468L186.57 214.158L284.699 213.862C285.669 213.859 286.631 214.042 287.529 214.403C288.426 214.763 289.242 215.293 289.93 215.962C290.617 216.631 291.163 217.426 291.535 218.301C291.907 219.176 292.099 220.115 292.099 221.063Z" fill="#F5F5F5"/>
<path d="M208.521 227.18L281.775 226.848L281.764 224.65L208.516 224.982L208.521 227.18Z" fill="#E6E6E6"/>
<path d="M208.521 234.41L281.775 234.084L281.764 231.886L208.516 232.212L208.521 234.41Z" fill="#E6E6E6"/>
<path d="M237.491 239.131L208.508 239.269L208.519 241.467L237.502 241.329L237.491 239.131Z" fill="#E6E6E6"/>
<path d="M149.037 95H196.647C197.205 95 197.757 95.1073 198.272 95.3157C198.787 95.5241 199.255 95.8296 199.65 96.2147C200.044 96.5998 200.357 97.0569 200.57 97.5601C200.784 98.0632 200.894 98.6025 200.894 99.1471V121.91C200.894 123.01 200.446 124.064 199.65 124.842C198.853 125.62 197.773 126.057 196.647 126.057H156.246C155.119 126.057 154.039 125.62 153.243 124.842C152.447 124.064 151.999 123.01 151.999 121.91V97.8719L149.037 95Z" fill="#F5F5F5"/>
<path d="M208.852 136.399V144.569C208.852 145.119 209.075 145.647 209.473 146.036C209.872 146.424 210.412 146.643 210.975 146.643H257.719C258.283 146.643 258.823 146.424 259.221 146.036C259.619 145.647 259.843 145.119 259.843 144.569V140.106L265.209 134.497L210.98 134.326C210.701 134.325 210.424 134.378 210.166 134.482C209.908 134.586 209.673 134.739 209.475 134.931C209.278 135.124 209.121 135.353 209.014 135.605C208.907 135.857 208.852 136.127 208.852 136.399Z" fill="#F0F0F0"/>
<path d="M177.339 120.147V134.73C177.34 135.357 177.214 135.978 176.968 136.558C176.723 137.138 176.363 137.665 175.909 138.109C175.455 138.553 174.916 138.905 174.322 139.145C173.729 139.385 173.093 139.509 172.45 139.509H118.89C118.247 139.509 117.611 139.385 117.018 139.145C116.424 138.905 115.885 138.553 115.431 138.109C114.977 137.665 114.617 137.138 114.371 136.558C114.126 135.978 114 135.357 114.001 134.73V122.413L107.35 115.57L172.434 115.373C173.078 115.371 173.715 115.493 174.31 115.732C174.905 115.971 175.446 116.322 175.902 116.766C176.357 117.209 176.719 117.736 176.965 118.317C177.212 118.897 177.339 119.519 177.339 120.147Z" fill="white"/>
<path d="M121.912 124.205L170.493 123.988L170.488 122.531L121.906 122.749L121.912 124.205Z" fill="#F0F0F0"/>
<path d="M121.912 129.006L170.493 128.783L170.488 127.327L121.906 127.544L121.912 129.006Z" fill="#F0F0F0"/>
<path d="M141.121 132.135L121.9 132.227L121.908 133.683L141.129 133.592L141.121 132.135Z" fill="#F0F0F0"/>
<path d="M98.4277 168.269V190.259C98.4277 191.205 98.6186 192.142 98.9895 193.016C99.3604 193.89 99.9039 194.684 100.589 195.353C101.274 196.021 102.088 196.552 102.983 196.913C103.878 197.275 104.838 197.46 105.806 197.46H186.529C187.498 197.46 188.457 197.275 189.352 196.913C190.247 196.552 191.061 196.021 191.746 195.353C192.431 194.684 192.975 193.89 193.346 193.016C193.717 192.142 193.908 191.205 193.908 190.259V171.68L203.956 161.369L105.827 161.053C104.856 161.051 103.893 161.235 102.995 161.597C102.097 161.958 101.28 162.49 100.593 163.16C99.905 163.831 99.3599 164.627 98.9884 165.504C98.6169 166.381 98.4263 167.32 98.4277 168.269Z" fill="white"/>
<path d="M182.006 174.385L108.752 174.059L108.763 171.861L182.011 172.187L182.006 174.385Z" fill="#E6E6E6"/>
<path d="M182.006 181.623L108.752 181.291L108.763 179.094L182.011 179.425L182.006 181.623Z" fill="#E6E6E6"/>
<path d="M153.025 186.33L153.014 188.528L181.996 188.666L182.007 186.468L153.025 186.33Z" fill="#E6E6E6"/>
<path d="M256.901 116.458C259.122 111.636 256.92 105.968 251.982 103.798C247.044 101.629 241.24 103.78 239.018 108.602C236.797 113.425 238.999 119.093 243.937 121.262C248.876 123.431 254.68 121.281 256.901 116.458Z" fill="#F5F5F5"/>
<path d="M244.576 110.116C244.942 110.085 245.282 110.485 245.324 111.008C245.366 111.532 245.106 111.983 244.735 112.014C244.363 112.045 244.023 111.641 243.981 111.117C243.939 110.593 244.204 110.142 244.576 110.116Z" fill="#E0E0E0"/>
<path d="M245.434 107.691C244.844 107.762 244.26 107.878 243.688 108.038C243.146 108.28 242.624 108.562 242.127 108.883C242.487 108.378 242.998 107.993 243.589 107.78C244.18 107.567 244.824 107.536 245.434 107.691Z" fill="#E0E0E0"/>
<path d="M250.806 109.992C250.429 109.992 250.11 110.386 250.089 110.915C250.068 111.444 250.349 111.874 250.726 111.889C251.103 111.905 251.416 111.49 251.437 110.967C251.459 110.443 251.177 110.003 250.806 109.992Z" fill="#E0E0E0"/>
<path d="M249.842 107.602C250.442 107.421 251.084 107.423 251.683 107.608C252.282 107.793 252.808 108.153 253.191 108.639C252.684 108.335 252.151 108.073 251.599 107.856C251.02 107.729 250.433 107.644 249.842 107.602Z" fill="#E0E0E0"/>
<path d="M252.793 112.429C252.797 112.604 252.774 112.779 252.724 112.947C252.599 113.408 252.398 113.846 252.13 114.243C251.745 114.842 251.237 115.356 250.638 115.752C249.906 116.258 249.042 116.551 248.147 116.597C247.252 116.643 246.361 116.439 245.579 116.011C244.939 115.676 244.377 115.215 243.928 114.658C243.628 114.286 243.392 113.87 243.228 113.424C243.153 113.261 243.112 113.085 243.105 112.906C243.36 113.482 243.69 114.024 244.088 114.518C244.527 115.034 245.069 115.459 245.68 115.767C246.422 116.16 247.261 116.345 248.104 116.302C248.947 116.259 249.761 115.99 250.457 115.524C251.038 115.155 251.538 114.678 251.928 114.119C252.288 113.594 252.579 113.026 252.793 112.429Z" fill="#E0E0E0"/>
<path d="M113.238 220.15H114.645L117.745 216.117V213.468C117.745 213.468 119.937 213.344 119.683 216.812C119.428 220.28 119.683 219.404 119.683 219.404C119.683 219.404 124.338 219.404 124.725 219.798C125.007 220.073 125.134 224.396 125.182 226.739C125.205 227.315 125.028 227.882 124.679 228.347C124.33 228.812 123.83 229.148 123.26 229.3C123.086 229.34 122.908 229.361 122.729 229.362C121.625 229.336 115.707 228.445 115.707 228.445H113.238V220.15Z" fill="#F0F0F0"/>
<path d="M109.178 219.408L110.048 228.475H112.479V219.59L109.178 219.408Z" fill="#F0F0F0"/>
<path d="M308.397 141.313C308.062 140.963 307.601 140.754 307.111 140.732C306.621 140.71 306.141 140.876 305.775 141.194C305.411 141.478 305.115 141.838 304.909 142.246C304.702 142.655 304.59 143.102 304.58 143.558C304.494 143.102 304.307 142.67 304.032 142.292C303.757 141.914 303.401 141.6 302.988 141.37C302.578 141.1 302.077 140.997 301.59 141.082C301.103 141.167 300.67 141.434 300.382 141.826C300.07 142.364 299.976 142.997 300.116 143.599C300.208 144.207 300.469 144.779 300.87 145.253C302.34 146.777 303.099 147.021 304.92 148.052C306.576 146.798 307.113 146.497 308.355 144.771C308.69 144.25 308.873 143.649 308.886 143.034C308.945 142.421 308.771 141.809 308.397 141.313Z" fill="#F0F0F0"/>
<path d="M220.927 281.179L165.678 280.925C164.098 280.919 162.535 280.609 161.077 280.013C159.62 279.417 158.297 278.546 157.185 277.45C156.072 276.354 155.192 275.055 154.593 273.627C153.995 272.199 153.69 270.67 153.697 269.127L154.287 133.863C154.305 130.749 155.588 127.769 157.854 125.577C160.12 123.385 163.184 122.161 166.374 122.174L221.622 122.423C224.813 122.438 227.868 123.689 230.114 125.903C232.361 128.116 233.615 131.11 233.603 134.226L233.019 269.474C233.003 272.592 231.721 275.576 229.454 277.771C227.186 279.966 224.119 281.192 220.927 281.179Z" fill="#263238"/>
<path d="M221.542 127.077L210.83 127.031C210.481 127.036 210.136 127.109 209.815 127.245C209.495 127.38 209.205 127.577 208.962 127.823C208.719 128.068 208.529 128.358 208.401 128.676C208.274 128.994 208.211 129.333 208.219 129.674V131.572C208.226 131.913 208.163 132.252 208.036 132.57C207.908 132.888 207.718 133.178 207.475 133.423C207.232 133.669 206.942 133.865 206.622 134.001C206.301 134.137 205.956 134.21 205.607 134.215L184.713 134.122C184.364 134.114 184.019 134.038 183.699 133.9C183.379 133.761 183.09 133.562 182.849 133.314C182.609 133.066 182.42 132.773 182.296 132.454C182.171 132.134 182.112 131.794 182.123 131.452V129.555C182.134 129.213 182.075 128.873 181.95 128.554C181.826 128.234 181.637 127.942 181.397 127.694C181.156 127.446 180.867 127.246 180.547 127.108C180.227 126.969 179.883 126.893 179.533 126.885H175.764L166.405 126.839C165.298 126.834 164.201 127.042 163.177 127.451C162.152 127.861 161.22 128.463 160.434 129.224C159.648 129.985 159.023 130.89 158.594 131.887C158.166 132.884 157.943 133.953 157.939 135.034L157.365 267.058C157.357 269.241 158.236 271.338 159.81 272.888C161.383 274.438 163.522 275.315 165.758 275.326L220.895 275.575C222.002 275.58 223.099 275.372 224.123 274.962C225.148 274.553 226.08 273.951 226.866 273.19C227.652 272.429 228.277 271.524 228.705 270.527C229.134 269.53 229.356 268.46 229.361 267.379L229.935 135.356C229.94 134.274 229.728 133.202 229.309 132.2C228.89 131.199 228.273 130.288 227.494 129.519C226.715 128.75 225.788 128.139 224.767 127.72C223.746 127.301 222.65 127.083 221.542 127.077Z" fill="white"/>
<path d="M191.238 258.904C191.238 259.128 191.17 259.346 191.043 259.532C190.916 259.718 190.735 259.863 190.524 259.948C190.312 260.034 190.08 260.056 189.855 260.012C189.631 259.969 189.425 259.861 189.263 259.703C189.101 259.545 188.991 259.344 188.946 259.124C188.901 258.905 188.924 258.678 189.012 258.472C189.1 258.265 189.248 258.089 189.438 257.964C189.628 257.84 189.852 257.774 190.081 257.774C190.388 257.775 190.681 257.895 190.898 258.106C191.114 258.318 191.237 258.605 191.238 258.904Z" fill="#455A64"/>
<path d="M195.633 258.904C195.633 259.128 195.565 259.346 195.438 259.532C195.311 259.718 195.13 259.863 194.918 259.948C194.707 260.034 194.474 260.056 194.25 260.012C194.025 259.969 193.819 259.861 193.657 259.703C193.495 259.545 193.385 259.344 193.341 259.124C193.296 258.905 193.319 258.678 193.406 258.472C193.494 258.265 193.642 258.089 193.833 257.964C194.023 257.84 194.247 257.774 194.476 257.774C194.782 257.775 195.076 257.895 195.292 258.106C195.509 258.318 195.631 258.605 195.633 258.904Z" fill="#455A64"/>
<path d="M200.027 258.904C200.027 259.128 199.959 259.346 199.832 259.532C199.705 259.718 199.524 259.863 199.313 259.948C199.101 260.034 198.869 260.056 198.644 260.012C198.42 259.969 198.214 259.861 198.052 259.703C197.89 259.545 197.78 259.344 197.735 259.124C197.69 258.905 197.713 258.678 197.801 258.472C197.889 258.265 198.037 258.089 198.227 257.964C198.417 257.84 198.641 257.774 198.87 257.774C199.177 257.775 199.47 257.895 199.687 258.106C199.904 258.318 200.026 258.605 200.027 258.904Z" fill="#455A64"/>
<path d="M168.21 163.91C168.21 163.91 168.21 163.816 168.21 163.625C168.251 162.873 168.523 162.15 168.991 161.551C169.378 161.036 169.891 160.622 170.482 160.348C171.237 160.021 172.064 159.887 172.887 159.96H182.93L225.396 160.043H225.709L225.492 160.265L220.051 165.854L220.088 165.766V175.019C220.126 175.636 220.08 176.254 219.95 176.859C219.787 177.465 219.48 178.024 219.053 178.492C218.634 178.958 218.111 179.324 217.524 179.56C216.94 179.784 216.315 179.888 215.687 179.866H198.361L175.159 179.819H172.717C171.935 179.878 171.152 179.74 170.44 179.42C169.792 179.114 169.239 178.647 168.836 178.065C168.434 177.484 168.196 176.808 168.146 176.107C168.146 173.516 168.146 171.333 168.146 169.524C168.146 167.715 168.146 166.325 168.173 165.377C168.173 164.905 168.173 164.547 168.173 164.293C168.173 164.039 168.173 163.925 168.173 163.925C168.173 163.925 168.173 164.05 168.173 164.293C168.173 164.537 168.173 164.905 168.173 165.377C168.173 166.336 168.173 167.735 168.173 169.524C168.173 171.312 168.173 173.541 168.21 176.097C168.261 176.769 168.493 177.416 168.883 177.973C169.273 178.529 169.806 178.975 170.429 179.264C171.117 179.571 171.873 179.7 172.627 179.638H175.159L198.388 179.612H212.104H215.703C216.294 179.635 216.884 179.538 217.434 179.327C217.983 179.106 218.473 178.765 218.867 178.331C219.263 177.895 219.547 177.372 219.695 176.807C219.82 176.225 219.865 175.629 219.828 175.034V165.719L219.865 165.683L225.311 160.094L225.412 160.317L182.946 160.141L175.812 160.105H172.897C172.093 160.027 171.283 160.151 170.541 160.462C169.958 160.725 169.451 161.124 169.065 161.624C168.779 161.988 168.559 162.399 168.417 162.837C168.314 163.187 168.245 163.547 168.21 163.91Z" fill="#455A64"/>
<path d="M213.495 167.227L173.805 167.045L173.81 165.853L213.495 166.034V167.227Z" fill="#455A64"/>
<path d="M213.495 171.146L173.805 170.965L173.81 169.772L213.495 169.954V171.146Z" fill="#455A64"/>
<path d="M197.787 173.694L197.781 174.886L213.483 174.961L213.489 173.769L197.787 173.694Z" fill="#455A64"/>
<path d="M222.168 190.161V202.084C222.168 203.118 221.748 204.11 220.999 204.842C220.251 205.574 219.235 205.986 218.176 205.987H174.436C173.376 205.987 172.359 205.576 171.61 204.844C170.86 204.112 170.439 203.119 170.439 202.084V192.011L164.998 186.423L218.155 186.262C218.681 186.26 219.202 186.358 219.689 186.553C220.176 186.748 220.618 187.034 220.991 187.397C221.364 187.759 221.66 188.19 221.862 188.664C222.064 189.138 222.168 189.647 222.168 190.161Z" fill="#1A9C9A"/>
<path d="M176.89 193.479L216.58 193.297L216.575 192.105L176.885 192.286L176.89 193.479Z" fill="white"/>
<path d="M176.89 197.398L216.58 197.216L216.575 196.029L176.885 196.206L176.89 197.398Z" fill="white"/>
<path d="M192.579 199.953L176.877 200.028L176.883 201.221L192.585 201.146L192.579 199.953Z" fill="white"/>
<path d="M198.36 144.526C198.745 144.362 199.071 144.091 199.298 143.746C199.525 143.401 199.642 142.998 199.634 142.588C199.648 142.321 199.607 142.055 199.512 141.805C199.417 141.555 199.272 141.327 199.084 141.134C198.896 140.94 198.669 140.786 198.419 140.681C198.168 140.576 197.898 140.522 197.625 140.522C197.352 140.522 197.082 140.576 196.831 140.681C196.581 140.786 196.354 140.94 196.166 141.134C195.978 141.327 195.833 141.555 195.738 141.805C195.643 142.055 195.602 142.321 195.616 142.588C195.605 143.001 195.722 143.408 195.949 143.756C196.177 144.104 196.507 144.378 196.895 144.542C193.8 144.998 193.938 148.285 193.938 148.285L201.259 148.316C201.259 148.316 201.428 144.983 198.36 144.526Z" fill="#1A9C9A"/>
<path opacity="0.5" d="M198.36 144.526C198.745 144.362 199.071 144.091 199.298 143.746C199.525 143.401 199.642 142.998 199.634 142.588C199.648 142.321 199.607 142.055 199.512 141.805C199.417 141.555 199.272 141.327 199.084 141.134C198.896 140.94 198.669 140.786 198.419 140.681C198.168 140.576 197.898 140.522 197.625 140.522C197.352 140.522 197.082 140.576 196.831 140.681C196.581 140.786 196.354 140.94 196.166 141.134C195.978 141.327 195.833 141.555 195.738 141.805C195.643 142.055 195.602 142.321 195.616 142.588C195.605 143.001 195.722 143.408 195.949 143.756C196.177 144.104 196.507 144.378 196.895 144.542C193.8 144.998 193.938 148.285 193.938 148.285L201.259 148.316C201.259 148.316 201.428 144.983 198.36 144.526Z" fill="white"/>
<path d="M194.343 144.527C194.726 144.361 195.051 144.088 195.278 143.744C195.506 143.4 195.625 142.998 195.622 142.588C195.642 142.318 195.605 142.047 195.513 141.792C195.421 141.536 195.276 141.302 195.087 141.104C194.898 140.906 194.67 140.748 194.416 140.64C194.162 140.531 193.887 140.476 193.61 140.476C193.333 140.476 193.059 140.531 192.804 140.64C192.55 140.748 192.322 140.906 192.133 141.104C191.944 141.302 191.799 141.536 191.707 141.792C191.615 142.047 191.578 142.318 191.598 142.588C191.588 143.001 191.704 143.408 191.932 143.756C192.16 144.105 192.489 144.378 192.878 144.543C189.783 144.999 189.921 148.285 189.921 148.285L197.241 148.316C197.241 148.316 197.411 144.983 194.343 144.527Z" fill="#1A9C9A"/>
<path d="M205.535 149.769L185.857 149.681L185.846 152.066L205.524 152.153L205.535 149.769Z" fill="#1A9C9A"/>
<path opacity="0.3" d="M205.535 149.769L185.857 149.681L185.846 152.066L205.524 152.153L205.535 149.769Z" fill="white"/>
<path d="M169.128 217.309C169.119 217.216 169.119 217.122 169.128 217.029C169.16 216.749 169.252 216.479 169.399 216.236C169.642 215.833 170.016 215.521 170.46 215.349C171.075 215.185 171.715 215.131 172.35 215.189H184.522L225.507 215.271H225.82L225.587 215.484L220.225 221.103L220.263 221.01V224.768C220.263 225.048 220.263 225.287 220.263 225.598C220.241 226.035 220.085 226.455 219.817 226.806C219.548 227.156 219.178 227.419 218.755 227.563C218.477 227.655 218.183 227.697 217.89 227.687H212.173H199.799L178.874 227.645H171.713C171.406 227.662 171.098 227.644 170.795 227.594C170.367 227.503 169.977 227.29 169.675 226.981C169.372 226.673 169.171 226.283 169.096 225.862C169.065 225.606 169.054 225.348 169.064 225.09C169.064 224.1 169.064 223.198 169.064 222.384C169.064 220.761 169.064 219.502 169.091 218.631C169.091 218.211 169.091 217.889 169.091 217.656C169.091 217.423 169.091 217.324 169.091 217.324C169.091 217.324 169.091 217.438 169.091 217.656C169.091 217.874 169.091 218.211 169.091 218.631C169.091 219.502 169.091 220.761 169.117 222.384C169.117 223.198 169.117 224.1 169.117 225.09C169.108 225.339 169.121 225.589 169.155 225.836C169.224 226.23 169.413 226.594 169.697 226.881C169.981 227.169 170.347 227.366 170.747 227.448C171.04 227.491 171.337 227.505 171.633 227.49H174.627H178.874L199.82 227.459H217.906C218.167 227.468 218.428 227.431 218.675 227.35C219.173 227.18 219.582 226.824 219.811 226.36C219.925 226.129 219.99 225.879 220.002 225.624C220.002 225.365 220.002 225.079 220.002 224.81V221L220.04 220.963L225.412 215.354L225.507 215.577L184.527 215.406L172.355 215.329C171.733 215.262 171.103 215.307 170.498 215.463C170.154 215.596 169.852 215.814 169.621 216.096C169.39 216.378 169.238 216.714 169.181 217.07C169.168 217.151 169.15 217.23 169.128 217.309Z" fill="#455A64"/>
<path d="M215.274 220.449L175.584 220.273L175.589 219.081L215.279 219.262L215.274 220.449Z" fill="#455A64"/>
<path d="M199.176 223.016L199.17 224.208L215.275 224.285L215.281 223.093L199.176 223.016Z" fill="#455A64"/>
<path d="M220.772 238.574V246.738C220.772 247.288 220.548 247.816 220.15 248.204C219.752 248.593 219.212 248.812 218.649 248.812H171.904C171.341 248.812 170.801 248.593 170.403 248.204C170.004 247.816 169.781 247.288 169.781 246.738V242.275L164.414 236.666L218.649 236.5C219.212 236.5 219.752 236.718 220.15 237.107C220.548 237.496 220.772 238.024 220.772 238.574Z" fill="#1A9C9A"/>
<path d="M174.634 241.715L214.324 241.539L214.319 240.346L174.629 240.528L174.634 241.715Z" fill="white"/>
<path d="M174.634 245.55L214.324 245.369L214.319 244.182L174.629 244.358L174.634 245.55Z" fill="white"/>
<path d="M284.746 140.695C288.185 140.695 290.973 137.973 290.973 134.614C290.973 131.256 288.185 128.534 284.746 128.534C281.307 128.534 278.52 131.256 278.52 134.614C278.52 137.973 281.307 140.695 284.746 140.695Z" fill="#1A9C9A"/>
<path opacity="0.5" d="M284.746 140.695C288.185 140.695 290.973 137.973 290.973 134.614C290.973 131.256 288.185 128.534 284.746 128.534C281.307 128.534 278.52 131.256 278.52 134.614C278.52 137.973 281.307 140.695 284.746 140.695Z" fill="white"/>
<path d="M282.682 132.872C282.915 132.872 283.128 133.116 283.149 133.448C283.17 133.779 282.995 134.065 282.756 134.075C282.517 134.085 282.31 133.831 282.289 133.5C282.268 133.168 282.443 132.883 282.682 132.872Z" fill="#263238"/>
<path d="M283.26 131.343C283.26 131.431 282.729 131.405 282.198 131.602C281.668 131.799 281.238 132.12 281.174 132.058C281.11 131.996 281.434 131.54 282.092 131.312C282.75 131.084 283.287 131.265 283.26 131.343Z" fill="#263238"/>
<path d="M287.773 133.822C287.704 133.873 287.37 133.521 286.833 133.469C286.297 133.417 285.894 133.682 285.841 133.619C285.788 133.557 285.883 133.469 286.058 133.35C286.301 133.202 286.586 133.136 286.871 133.163C287.154 133.193 287.418 133.318 287.619 133.516C287.768 133.671 287.805 133.796 287.773 133.822Z" fill="#263238"/>
<path d="M288.308 132.806C288.26 132.878 287.777 132.624 287.082 132.603C286.387 132.583 285.882 132.79 285.84 132.707C286 132.546 286.197 132.425 286.415 132.354C286.633 132.282 286.865 132.263 287.093 132.298C287.868 132.324 288.361 132.749 288.308 132.806Z" fill="#263238"/>
<path d="M287.868 134.496C287.871 134.916 287.733 135.326 287.475 135.662C287.204 136.106 286.823 136.475 286.367 136.737C285.911 136.999 285.395 137.145 284.866 137.161C284.337 137.177 283.813 137.063 283.341 136.829C282.87 136.595 282.466 136.249 282.167 135.823C281.884 135.505 281.721 135.103 281.705 134.682C281.888 135.045 282.101 135.391 282.342 135.719C282.638 136.089 283.019 136.386 283.454 136.585C283.889 136.784 284.366 136.88 284.847 136.865C285.327 136.851 285.797 136.726 286.219 136.5C286.64 136.275 287.002 135.956 287.273 135.569C287.497 135.225 287.696 134.867 287.868 134.496Z" fill="#263238"/>
<path d="M110.513 242.176C110.46 243.866 109.895 245.504 108.889 246.88C107.883 248.257 106.482 249.312 104.862 249.911C103.242 250.511 101.477 250.628 99.7895 250.247C98.1019 249.867 96.5676 249.007 95.3806 247.775C94.1936 246.543 93.4071 244.996 93.1207 243.328C92.8342 241.66 93.0605 239.946 93.7711 238.403C94.4817 236.861 95.6446 235.559 97.1129 234.662C98.5811 233.765 100.289 233.313 102.02 233.363C103.17 233.397 104.303 233.651 105.352 234.112C106.402 234.574 107.348 235.232 108.137 236.051C108.925 236.869 109.541 237.831 109.949 238.882C110.357 239.933 110.549 241.052 110.513 242.176Z" fill="#1A9C9A"/>
<path opacity="0.5" d="M110.513 242.176C110.46 243.866 109.895 245.504 108.889 246.88C107.883 248.257 106.482 249.312 104.862 249.911C103.242 250.511 101.477 250.628 99.7895 250.247C98.1019 249.867 96.5676 249.007 95.3806 247.775C94.1936 246.543 93.4071 244.996 93.1207 243.328C92.8342 241.66 93.0605 239.946 93.7711 238.403C94.4817 236.861 95.6446 235.559 97.1129 234.662C98.5811 233.765 100.289 233.313 102.02 233.363C103.17 233.397 104.303 233.651 105.352 234.112C106.402 234.574 107.348 235.232 108.137 236.051C108.925 236.869 109.541 237.831 109.949 238.882C110.357 239.933 110.549 241.052 110.513 242.176Z" fill="white"/>
<path d="M100.034 239.562C99.8796 239.365 99.6521 239.235 99.4002 239.199C99.1484 239.163 98.8922 239.225 98.6862 239.371C98.4868 239.502 98.3187 239.674 98.1932 239.874C98.0677 240.074 97.9879 240.299 97.959 240.532C97.9367 240.294 97.8626 240.064 97.7418 239.857C97.6209 239.649 97.4561 239.469 97.2583 239.329C97.0594 239.174 96.8068 239.099 96.5528 239.12C96.2988 239.141 96.0629 239.257 95.894 239.443C95.7086 239.705 95.6292 240.024 95.6711 240.34C95.689 240.657 95.7935 240.963 95.9737 241.226C96.5127 241.885 97.1735 242.439 97.9218 242.859C98.6594 242.479 99.314 241.961 99.8487 241.335C100.044 241.083 100.167 240.784 100.204 240.47C100.266 240.157 100.206 239.833 100.034 239.562Z" fill="#1A9C9A"/>
<path d="M107.742 239.775C107.587 239.577 107.359 239.447 107.107 239.412C106.855 239.377 106.599 239.44 106.394 239.588C106.193 239.718 106.024 239.889 105.898 240.09C105.772 240.29 105.693 240.515 105.666 240.749C105.644 240.511 105.57 240.281 105.449 240.074C105.328 239.866 105.164 239.687 104.966 239.546C104.767 239.39 104.514 239.314 104.26 239.335C104.006 239.356 103.77 239.473 103.602 239.661C103.415 239.922 103.336 240.242 103.379 240.557C103.394 240.874 103.499 241.181 103.681 241.444C104.22 242.102 104.881 242.656 105.629 243.077C106.365 242.693 107.019 242.175 107.556 241.553C107.751 241.298 107.874 240.998 107.912 240.682C107.973 240.369 107.912 240.046 107.742 239.775Z" fill="#1A9C9A"/>
<path d="M104.6 244.02C104.514 244.728 104.156 245.378 103.6 245.838C103.043 246.299 102.328 246.537 101.599 246.504C100.87 246.471 100.181 246.17 99.6704 245.661C99.1595 245.152 98.8649 244.474 98.8457 243.761L104.6 244.02Z" fill="white"/>
<path d="M265.718 296.828L264.657 291.354L254.598 293.096L256.057 301.302L256.689 301.235C259.497 300.908 270.894 299.208 272.646 298.311C274.626 297.311 265.718 296.828 265.718 296.828Z" fill="#1A9C9A"/>
<path d="M272.831 297.767C272.831 297.861 269.115 298.612 264.465 299.447C259.815 300.282 256.057 300.883 256.041 300.79C256.025 300.696 259.757 299.95 264.402 299.115C269.046 298.281 272.799 297.679 272.831 297.767Z" fill="#263238"/>
<path d="M266.105 297.906C266.015 297.875 266.031 297.575 266.196 297.253C266.36 296.932 266.588 296.735 266.668 296.781C266.748 296.828 266.668 297.098 266.504 297.398C266.339 297.699 266.196 297.943 266.105 297.906Z" fill="#263238"/>
<path d="M266.818 298.16C266.722 298.16 266.707 297.813 266.818 297.435C266.929 297.056 267.174 296.807 267.259 296.849C267.343 296.89 267.259 297.196 267.147 297.543C267.036 297.891 266.914 298.176 266.818 298.16Z" fill="#263238"/>
<path d="M259.031 300.208C258.994 300.244 258.819 300.125 258.554 299.923C258.225 299.656 257.869 299.421 257.492 299.223C257.15 299.04 256.767 298.944 256.377 298.943C256.064 298.943 255.873 299.042 255.847 298.995C255.82 298.949 255.985 298.793 256.345 298.705C256.812 298.614 257.297 298.686 257.715 298.907C258.119 299.119 258.479 299.402 258.777 299.742C258.968 299.98 259.079 300.177 259.031 300.208Z" fill="#263238"/>
<path d="M265.931 296.87C265.995 296.937 265.857 297.16 265.592 297.316C265.326 297.471 265.061 297.482 265.029 297.394C264.997 297.306 265.183 297.16 265.416 297.02C265.65 296.88 265.878 296.808 265.931 296.87Z" fill="#263238"/>
<path d="M265.686 296.378C265.686 296.472 265.458 296.596 265.118 296.664C264.779 296.731 264.497 296.705 264.487 296.612C264.476 296.518 264.731 296.394 265.049 296.332C265.368 296.27 265.66 296.29 265.686 296.378Z" fill="#263238"/>
<path d="M277.821 238.951C274.705 232.808 258.005 209.045 258.005 209.045L249.093 209.957V209.905L239.118 210.973L233.619 211.564L253.53 296.492L267.3 296.248L263.988 280.536C266.265 274.963 279.546 242.351 277.821 238.951ZM263.616 242.616L258.695 255.519L253.122 229.081L263.616 242.616Z" fill="#263238"/>
<path d="M252.57 169.817C252.442 168.931 252.931 165.245 252.931 165.245C252.931 165.245 256.397 164.996 256.721 161.658C257.045 158.319 257.082 150.59 257.082 150.59L250.887 147.386L243.79 152.29L241.953 156.956L244.374 162.752L244.299 164.67V169.06L252.57 169.817Z" fill="#FFBE9D"/>
<path d="M256.621 156.19C256.619 156.275 256.591 156.358 256.541 156.428C256.49 156.497 256.42 156.551 256.338 156.581C256.257 156.612 256.168 156.618 256.082 156.599C255.997 156.58 255.92 156.536 255.86 156.474C255.8 156.412 255.761 156.334 255.746 156.25C255.732 156.166 255.743 156.079 255.78 156.002C255.816 155.924 255.875 155.858 255.949 155.814C256.023 155.769 256.109 155.746 256.197 155.749C256.254 155.751 256.311 155.763 256.364 155.786C256.416 155.809 256.464 155.842 256.503 155.883C256.543 155.924 256.574 155.972 256.594 156.025C256.614 156.078 256.623 156.134 256.621 156.19Z" fill="#263238"/>
<path d="M256.653 155.739C256.594 155.796 256.276 155.516 255.808 155.475C255.341 155.433 254.975 155.646 254.927 155.584C254.88 155.521 254.964 155.454 255.124 155.355C255.337 155.23 255.587 155.175 255.835 155.2C256.082 155.22 256.315 155.318 256.499 155.48C256.637 155.609 256.679 155.718 256.653 155.739Z" fill="#263238"/>
<path d="M251.068 155.666C251.138 155.717 251.192 155.786 251.222 155.866C251.252 155.946 251.256 156.033 251.236 156.116C251.215 156.198 251.17 156.273 251.106 156.331C251.042 156.388 250.961 156.426 250.875 156.439C250.789 156.452 250.701 156.44 250.622 156.404C250.543 156.368 250.477 156.31 250.431 156.237C250.386 156.165 250.364 156.081 250.368 155.996C250.371 155.911 250.401 155.828 250.452 155.76C250.486 155.714 250.529 155.676 250.579 155.646C250.628 155.617 250.683 155.597 250.74 155.589C250.797 155.58 250.856 155.582 250.912 155.596C250.968 155.609 251.021 155.633 251.068 155.666Z" fill="#263238"/>
<path d="M251.412 155.577C251.354 155.629 251.041 155.349 250.568 155.313C250.096 155.277 249.735 155.484 249.687 155.416C249.639 155.349 249.724 155.292 249.883 155.194C250.097 155.067 250.346 155.011 250.595 155.033C250.843 155.055 251.078 155.155 251.264 155.318C251.402 155.442 251.444 155.551 251.412 155.577Z" fill="#263238"/>
<path d="M252.99 159.528C253.245 159.473 253.505 159.449 253.765 159.456C253.887 159.456 254.004 159.456 254.036 159.357C254.052 159.228 254.032 159.098 253.978 158.979C253.887 158.673 253.792 158.352 253.686 158.015C253.41 157.193 253.197 156.353 253.049 155.5C253.167 155.727 253.259 155.965 253.325 156.211C253.473 156.657 253.67 157.273 253.855 157.963C253.951 158.3 254.047 158.626 254.132 158.932C254.199 159.086 254.21 159.258 254.163 159.42C254.144 159.46 254.116 159.495 254.079 159.522C254.043 159.549 254.001 159.567 253.956 159.575C253.888 159.585 253.818 159.585 253.749 159.575C253.495 159.589 253.24 159.573 252.99 159.528Z" fill="#263238"/>
<path d="M251.419 159.911C250.946 159.59 252.709 160.725 253.675 160.751C253.494 160.983 253.238 161.148 252.949 161.219C252.659 161.29 252.353 161.262 252.082 161.14C251.1 160.689 251.419 159.911 251.419 159.911Z" fill="white"/>
<path d="M252.93 165.246C251.304 165.129 249.746 164.561 248.439 163.608C248.439 163.608 249.384 166.096 252.829 166.065L252.93 165.246Z" fill="#EB996E"/>
<path d="M244.777 157.889C244.777 157.889 244.729 157.925 244.644 157.972C244.524 158.027 244.388 158.036 244.262 157.998C244.066 157.893 243.902 157.738 243.788 157.551C243.674 157.363 243.614 157.148 243.614 156.93C243.59 156.686 243.623 156.44 243.71 156.209C243.732 156.119 243.776 156.035 243.839 155.966C243.902 155.896 243.982 155.843 244.071 155.81C244.128 155.791 244.19 155.791 244.246 155.812C244.302 155.833 244.349 155.873 244.379 155.924C244.421 156.002 244.405 156.064 244.421 156.064C244.437 156.064 244.485 156.012 244.453 155.898C244.432 155.829 244.387 155.768 244.326 155.727C244.284 155.699 244.237 155.68 244.188 155.67C244.139 155.66 244.088 155.66 244.039 155.67C243.921 155.7 243.812 155.76 243.724 155.842C243.636 155.925 243.57 156.028 243.535 156.142C243.426 156.398 243.382 156.675 243.407 156.951C243.41 157.206 243.49 157.454 243.636 157.665C243.782 157.876 243.989 158.04 244.23 158.138C244.309 158.156 244.391 158.156 244.471 158.138C244.55 158.12 244.624 158.084 244.686 158.034C244.777 157.941 244.787 157.894 244.777 157.889Z" fill="#EB996E"/>
<path d="M257.969 151.146C257.782 151.207 257.587 151.244 257.39 151.255C258.035 150.924 258.566 150.413 258.913 149.787C259.168 149.355 259.302 148.866 259.302 148.367C259.302 147.869 259.168 147.379 258.913 146.947C258.639 146.529 258.218 146.224 257.728 146.09C257.239 145.956 256.716 146.003 256.259 146.221C256.435 145.864 256.472 145.457 256.364 145.076C256.256 144.695 256.009 144.365 255.67 144.147C255.318 143.943 254.923 143.819 254.515 143.784C254.107 143.749 253.697 143.804 253.313 143.945C252.549 144.233 251.833 144.631 251.19 145.127C251.142 144.859 251.029 144.606 250.86 144.389C250.69 144.173 250.471 143.999 250.219 143.883C249.712 143.653 249.144 143.583 248.594 143.681C247.796 143.814 247.058 144.184 246.482 144.741C245.906 145.297 245.518 146.013 245.372 146.791C245.121 146.54 244.809 146.357 244.465 146.258C244.12 146.159 243.756 146.148 243.406 146.227C243.056 146.306 242.733 146.471 242.467 146.707C242.202 146.943 242.003 147.241 241.89 147.574C241.892 147.598 241.892 147.622 241.89 147.647C241.572 147.781 241.304 148.01 241.125 148.3C240.975 148.547 240.882 148.824 240.853 149.111C240.825 149.398 240.861 149.687 240.961 149.959C241.164 150.491 241.536 150.947 242.023 151.26C242.209 151.388 242.374 151.543 242.511 151.721C242.616 151.876 242.68 152.054 242.697 152.239C242.649 153.359 242.065 154.417 241.778 155.516C241.386 157.04 242.251 159.118 242.75 160.611C243.249 162.104 243.424 162.685 244.395 162.804L244.544 158.792C243.482 159.642 242.065 156.718 242.994 155.552C243.923 154.386 244.91 154.785 245.08 155.521C245.146 155.804 245.229 156.082 245.33 156.355H246.391L246.275 155.479C246.275 155.479 246.057 151.586 247.963 151.332C248.46 151.229 248.979 151.322 249.406 151.591C250.02 151.833 250.686 151.924 251.344 151.856C252.023 151.856 252.936 151.099 252.936 150.441C253.325 150.884 253.818 151.228 254.372 151.446C254.927 151.663 255.527 151.747 256.121 151.69C256.429 151.659 256.73 151.587 257.018 151.477C257.378 151.575 257.758 151.566 258.112 151.452C258.476 151.336 258.795 151.113 259.025 150.814C259.195 150.581 259.227 150.404 259.195 150.389C258.845 150.723 258.427 150.981 257.969 151.146ZM242.15 151.021C241.718 150.728 241.388 150.311 241.205 149.829C241.119 149.595 241.085 149.346 241.106 149.098C241.128 148.85 241.203 148.61 241.327 148.393C241.439 148.185 241.601 148.007 241.8 147.875C241.619 149.051 242.405 150.244 242.612 151.472C242.484 151.305 242.336 151.154 242.171 151.021H242.15Z" fill="#1A9C9A"/>
<path d="M276.217 156.013V162.695C276.217 163.422 276.513 164.12 277.039 164.634C277.566 165.148 278.28 165.437 279.025 165.437H290.878V169.258L293.002 165.603C293.631 165.559 294.219 165.283 294.648 164.832C295.078 164.381 295.316 163.788 295.316 163.172V156.013C295.315 155.65 295.241 155.291 295.097 154.957C294.953 154.622 294.743 154.319 294.478 154.064C294.214 153.81 293.9 153.609 293.555 153.474C293.211 153.338 292.842 153.271 292.471 153.276H279.025C278.281 153.276 277.568 153.564 277.041 154.077C276.515 154.59 276.218 155.287 276.217 156.013Z" fill="#1A9C9A"/>
<path d="M282.668 159.71C282.668 159.934 282.6 160.152 282.473 160.338C282.346 160.524 282.165 160.669 281.954 160.754C281.742 160.84 281.509 160.862 281.285 160.819C281.06 160.775 280.854 160.667 280.692 160.509C280.531 160.351 280.42 160.15 280.376 159.931C280.331 159.711 280.354 159.484 280.442 159.278C280.529 159.071 280.678 158.895 280.868 158.771C281.058 158.646 281.282 158.58 281.511 158.58C281.818 158.58 282.112 158.699 282.329 158.911C282.546 159.123 282.668 159.41 282.668 159.71Z" fill="white"/>
<path d="M287.062 159.71C287.062 159.934 286.995 160.152 286.867 160.338C286.74 160.524 286.56 160.669 286.348 160.754C286.137 160.84 285.904 160.862 285.679 160.819C285.455 160.775 285.249 160.667 285.087 160.509C284.925 160.351 284.815 160.15 284.77 159.931C284.726 159.711 284.749 159.484 284.836 159.278C284.924 159.071 285.072 158.895 285.262 158.771C285.453 158.646 285.676 158.58 285.905 158.58C286.212 158.58 286.506 158.699 286.724 158.911C286.941 159.123 287.062 159.41 287.062 159.71Z" fill="white"/>
<path d="M291.459 159.71C291.459 159.934 291.391 160.152 291.264 160.338C291.137 160.524 290.956 160.669 290.745 160.754C290.533 160.84 290.3 160.862 290.076 160.819C289.852 160.775 289.645 160.667 289.483 160.509C289.322 160.351 289.211 160.15 289.167 159.931C289.122 159.711 289.145 159.484 289.233 159.278C289.32 159.071 289.469 158.895 289.659 158.771C289.849 158.646 290.073 158.58 290.302 158.58C290.609 158.58 290.903 158.699 291.12 158.911C291.337 159.123 291.459 159.41 291.459 159.71Z" fill="white"/>
<path d="M285.572 175.873C285.333 175.355 270.257 188.351 267.253 188.796L258.462 177.61C258.462 177.61 256.636 174.784 252.713 169.943C250.187 166.832 243.206 167.465 241.37 171.275C238.254 177.739 238.148 186.308 235.738 200.077L233.699 211.756C233.699 211.756 236.709 211.409 236.698 211.435L258.101 209.262L258.632 195.266C262.879 199.455 264.174 200.331 266.377 199.999C271.913 199.159 291.283 182.145 291.283 182.145C291.283 182.145 285.805 176.402 285.572 175.873Z" fill="#455A64"/>
<path d="M288.67 184.525C288.283 184.295 287.926 184.02 287.608 183.706C285.952 182.27 284.508 180.616 283.319 178.791C283.051 178.426 282.831 178.029 282.666 177.609C282.953 177.946 283.214 178.303 283.446 178.677C283.935 179.346 284.63 180.258 285.463 181.212C286.297 182.166 287.104 182.98 287.704 183.56C288.052 183.855 288.375 184.178 288.67 184.525Z" fill="#263238"/>
<path d="M266.396 193.229C266.488 191.726 266.758 190.238 267.203 188.796C267.119 190.3 266.848 191.789 266.396 193.229Z" fill="#263238"/>
<path d="M268.319 192.767C268.008 192.158 267.782 191.511 267.645 190.843C267.417 190.201 267.28 189.531 267.236 188.853C267.545 189.463 267.771 190.109 267.91 190.776C268.135 191.419 268.273 192.088 268.319 192.767Z" fill="#263238"/>
<path opacity="0.2" d="M247.266 180.58L258.408 201.149L258.657 195.048L247.266 180.58Z" fill="black"/>
<path d="M246.545 179.579C246.739 179.772 246.917 179.98 247.076 180.201L248.403 181.938C249.523 183.41 251.089 185.427 252.846 187.64L257.358 193.285L258.711 195.006C258.886 195.211 259.042 195.429 259.179 195.66C258.986 195.479 258.808 195.283 258.648 195.074C258.281 194.638 257.804 194.078 257.225 193.405C256.036 191.984 254.406 190.014 252.649 187.806C250.892 185.598 249.348 183.555 248.265 182.057C247.734 181.305 247.293 180.694 247.007 180.263C246.832 180.049 246.677 179.82 246.545 179.579Z" fill="#263238"/>
<path d="M246.895 186.008C246.805 185.807 246.739 185.597 246.699 185.381C246.593 184.971 246.455 184.385 246.29 183.665L246.455 183.742L244.262 184.898L244.114 184.976L244.066 184.816C243.986 184.536 243.902 184.24 243.811 183.939L243.429 182.597L243.626 182.675L241.465 183.862L241.332 183.934V183.789C241.207 183.149 241.132 182.501 241.109 181.85C241.301 182.475 241.443 183.112 241.534 183.758L241.38 183.685L243.503 182.446L243.652 182.358L243.7 182.524C243.822 182.955 243.955 183.406 244.087 183.867C244.178 184.168 244.262 184.463 244.342 184.743L244.146 184.665L246.359 183.54L246.492 183.468L246.519 183.613C246.657 184.333 246.768 184.93 246.832 185.344C246.881 185.562 246.903 185.785 246.895 186.008Z" fill="#263238"/>
<path d="M249.512 174.38C249.301 174.301 249.101 174.195 248.918 174.064C248.552 173.841 248.037 173.514 247.41 173.11L247.58 173.053C247.357 173.742 247.108 174.53 246.837 175.375L246.784 175.536L246.635 175.453L245.828 174.992L244.597 174.287L244.793 174.209L244.087 176.531L244.045 176.671L243.928 176.583C243.383 176.207 242.869 175.791 242.389 175.339C242.969 175.66 243.524 176.022 244.05 176.422L243.891 176.474C244.077 175.79 244.294 175.002 244.533 174.142L244.581 173.976L244.73 174.064L245.966 174.758L246.773 175.22L246.577 175.292L247.352 172.975L247.405 172.835L247.527 172.918C248.138 173.343 248.637 173.696 248.982 173.955C249.176 174.075 249.354 174.217 249.512 174.38Z" fill="#263238"/>
<path d="M257.332 178.377C257.146 178.252 256.976 178.104 256.828 177.936C256.52 177.641 256.085 177.211 255.565 176.682H255.745C255.374 177.309 254.949 178.019 254.498 178.792L254.413 178.932L254.286 178.818L253.601 178.201L252.539 177.252L252.751 177.216C252.306 177.999 251.897 178.709 251.541 179.326L251.467 179.455L251.371 179.346C250.925 178.859 250.517 178.339 250.15 177.791C250.645 178.227 251.107 178.699 251.531 179.201H251.361L252.513 177.06L252.598 176.91L252.725 177.024L253.787 177.973L254.466 178.595H254.259L255.544 176.521L255.623 176.397L255.724 176.506C256.255 177.024 256.637 177.501 256.913 177.822C257.079 177.987 257.22 178.174 257.332 178.377Z" fill="#E0E0E0"/>
<path d="M277.948 191.466C277.948 191.466 277.768 191.3 277.502 190.973C277.237 190.647 276.86 190.165 276.414 189.574H276.594L275.087 191.512L274.981 191.642L274.875 191.518L274.269 190.818L273.362 189.75H273.574L272.104 191.694L272.013 191.813L271.934 191.694C271.554 191.159 271.215 190.597 270.92 190.014C271.355 190.502 271.751 191.022 272.104 191.569H271.934C272.353 190.994 272.831 190.325 273.356 189.589L273.457 189.454L273.569 189.584L274.487 190.652L275.087 191.352H274.875L276.419 189.444L276.515 189.325L276.6 189.444C277.03 190.05 277.375 190.548 277.614 190.901C277.746 191.077 277.858 191.266 277.948 191.466Z" fill="#263238"/>
<path d="M265.182 190.418C264.991 190.312 264.813 190.185 264.651 190.04C264.312 189.781 263.828 189.402 263.25 188.941L263.425 188.899L262.416 191.118L262.353 191.268L262.215 191.17L261.456 190.652L260.304 189.822L260.511 189.765C260.16 190.595 259.842 191.32 259.561 191.999L259.502 192.139L259.396 192.036C258.894 191.609 258.427 191.145 258 190.646C258.543 191.023 259.056 191.439 259.534 191.891L259.37 191.927C259.63 191.263 259.932 190.501 260.261 189.672L260.325 189.511L260.463 189.61L261.62 190.429L262.374 190.947L262.167 191.004L263.197 188.785L263.26 188.651L263.372 188.744C263.935 189.231 264.396 189.63 264.715 189.915C265.033 190.201 265.198 190.398 265.182 190.418Z" fill="#E0E0E0"/>
<path d="M283.448 187.49C283.376 187.282 283.329 187.066 283.31 186.847C283.246 186.427 283.161 185.81 283.066 185.105L283.225 185.194L280.932 186.158L280.778 186.22L280.746 186.059C280.693 185.769 280.635 185.468 280.576 185.162C280.486 184.686 280.401 184.229 280.321 183.789L280.507 183.882L278.251 184.898L278.113 184.955V184.81C278.048 184.162 278.035 183.51 278.076 182.861C278.208 183.5 278.288 184.148 278.315 184.8L278.172 184.711L280.406 183.675L280.56 183.597L280.592 183.768C280.677 184.209 280.767 184.665 280.857 185.137C280.916 185.448 280.969 185.748 281.022 186.033L280.836 185.935L283.145 185.017L283.289 184.96V185.105C283.358 185.836 283.411 186.438 283.437 186.858C283.465 187.067 283.469 187.28 283.448 187.49Z" fill="#E0E0E0"/>
<path d="M258 181.965C257.826 182.099 257.638 182.214 257.438 182.307C257.066 182.514 256.525 182.825 255.845 183.152L255.877 182.975L257.613 184.722L257.729 184.842L257.586 184.93L256.79 185.402L255.569 186.127V185.92L257.321 187.631L257.427 187.739L257.289 187.796C256.692 188.085 256.072 188.328 255.436 188.522C256.002 188.176 256.593 187.871 257.204 187.61L257.177 187.776L255.383 186.107L255.256 185.992L255.404 185.904L256.625 185.173L257.422 184.702V184.904C256.801 184.261 256.222 183.655 255.718 183.126L255.612 183.017L255.75 182.955C256.424 182.633 256.981 182.369 257.369 182.198C257.568 182.093 257.78 182.015 258 181.965Z" fill="#263238"/>
<path d="M267.74 193.228C267.566 193.369 267.375 193.489 267.172 193.585C266.8 193.793 266.259 194.104 265.579 194.425L265.606 194.254L267.347 196.001L267.464 196.115L267.32 196.203L266.524 196.68L265.298 197.401L265.324 197.199L267.076 198.909L267.182 199.013L267.044 199.07C266.446 199.357 265.827 199.602 265.192 199.801C265.767 199.455 266.369 199.152 266.991 198.894L266.959 199.06L265.17 197.39L265.043 197.271L265.192 197.183L266.407 196.457L267.209 195.98L267.182 196.188L265.478 194.41L265.372 194.301L265.505 194.239C266.179 193.912 266.736 193.653 267.129 193.477C267.321 193.368 267.526 193.285 267.74 193.228Z" fill="#E0E0E0"/>
<path d="M248.413 193.078C248.324 192.875 248.258 192.663 248.217 192.445C248.111 192.036 247.973 191.45 247.808 190.735L247.973 190.807L245.759 191.974L245.61 192.057L245.568 191.896C245.483 191.611 245.398 191.315 245.313 191.015C245.181 190.553 245.048 190.102 244.926 189.672L245.122 189.75L242.967 190.937L242.834 191.009V190.864C242.712 190.226 242.638 189.58 242.611 188.931C242.805 189.553 242.947 190.189 243.036 190.833L242.882 190.761L245.005 189.522L245.154 189.439L245.202 189.599C245.324 190.03 245.457 190.481 245.595 190.942L245.844 191.823L245.648 191.74L247.861 190.615L247.994 190.548L248.026 190.688C248.164 191.409 248.27 192.005 248.339 192.419C248.39 192.635 248.415 192.856 248.413 193.078Z" fill="#E0E0E0"/>
<path d="M257.257 197.971C257.167 197.769 257.101 197.556 257.061 197.339C256.955 196.929 256.817 196.344 256.652 195.628L256.817 195.701L254.63 196.867L254.481 196.95L254.433 196.789C254.348 196.504 254.263 196.209 254.178 195.913C254.046 195.447 253.918 194.996 253.791 194.566L253.987 194.643L251.832 195.83L251.7 195.903V195.763C251.578 195.123 251.503 194.475 251.477 193.824C251.669 194.446 251.811 195.083 251.901 195.727L251.747 195.659L253.871 194.42L254.019 194.332L254.067 194.498C254.194 194.928 254.322 195.374 254.46 195.836L254.709 196.717L254.518 196.634L256.726 195.509L256.864 195.442L256.891 195.582C257.029 196.302 257.135 196.898 257.204 197.313C257.252 197.529 257.27 197.751 257.257 197.971Z" fill="#263238"/>
<path d="M244.277 208.743C244.187 208.542 244.121 208.332 244.081 208.116C243.975 207.706 243.837 207.121 243.672 206.405L243.837 206.478L241.65 207.644L241.501 207.722L241.453 207.561C241.368 207.281 241.283 206.986 241.199 206.685L240.816 205.342L241.007 205.42L238.858 206.628L238.725 206.701V206.555C238.603 205.915 238.528 205.267 238.502 204.617C238.694 205.241 238.836 205.879 238.927 206.524L238.773 206.452L240.896 205.213L241.045 205.125L241.092 205.291C241.22 205.721 241.347 206.172 241.485 206.633L241.735 207.509L241.544 207.432L243.752 206.307L243.89 206.234L243.916 206.379C244.054 207.1 244.161 207.696 244.23 208.111C244.277 208.318 244.293 208.531 244.277 208.743Z" fill="#E0E0E0"/>
<path d="M244.533 197.438C244.332 197.337 244.144 197.211 243.976 197.064C243.631 196.815 243.142 196.442 242.558 195.981L242.734 195.939L241.773 198.189L241.709 198.34L241.571 198.241C241.322 198.075 241.067 197.894 240.807 197.723L239.649 196.909L239.851 196.852L238.928 199.096L238.869 199.231L238.763 199.133C238.258 198.708 237.784 198.249 237.346 197.759C237.896 198.126 238.416 198.535 238.901 198.982L238.736 199.024C238.986 198.36 239.267 197.593 239.602 196.758L239.66 196.598L239.803 196.696L240.982 197.495L241.741 198.013L241.539 198.065L242.543 195.836L242.606 195.701L242.718 195.794C243.286 196.276 243.753 196.67 244.071 196.955C244.244 197.098 244.399 197.26 244.533 197.438Z" fill="#263238"/>
<path d="M249.163 197.744C249.004 197.896 248.825 198.028 248.632 198.138C248.277 198.371 247.757 198.697 247.12 199.086V198.91L248.983 200.533L249.105 200.647L248.967 200.74L248.208 201.258L247.04 202.062V201.86L248.946 203.456L249.057 203.555L248.93 203.622C248.353 203.95 247.751 204.234 247.13 204.472C247.67 204.087 248.238 203.741 248.829 203.436V203.601L246.918 202.046L246.785 201.937L246.928 201.839L248.091 201.03L248.85 200.512V200.719L247.024 199.066L246.913 198.962L247.04 198.889C247.688 198.521 248.224 198.221 248.606 198.018C248.779 197.905 248.966 197.812 249.163 197.744Z" fill="#263238"/>
<path d="M254.252 201.28C254.153 201.478 254.028 201.662 253.88 201.829C253.626 202.171 253.249 202.648 252.787 203.229L252.744 203.058L255.059 203.965L255.213 204.022L255.117 204.162L254.586 204.914L253.769 206.059L253.705 205.857L256.014 206.728L256.158 206.785L256.057 206.889C255.632 207.39 255.167 207.858 254.666 208.288C255.04 207.75 255.453 207.239 255.903 206.759L255.945 206.92L253.615 206.106L253.45 206.049L253.551 205.909C253.806 205.541 254.082 205.157 254.358 204.758C254.544 204.504 254.719 204.24 254.889 204.012L254.947 204.209L252.66 203.26L252.521 203.203L252.617 203.089C253.1 202.524 253.498 202.052 253.785 201.751C254.072 201.451 254.252 201.264 254.252 201.28Z" fill="#E0E0E0"/>
<path d="M251.366 209.729C251.366 209.729 251.366 209.786 251.424 209.9C251.483 210.014 251.515 210.196 251.578 210.418C251.706 210.869 251.897 211.538 252.109 212.404C252.322 213.27 252.592 214.327 252.778 215.587C252.905 216.274 252.81 216.982 252.507 217.614C252.171 218.314 251.711 218.951 251.148 219.495V219.407C252.539 225.856 254.487 234.892 256.648 244.886C258.745 254.736 260.618 263.626 261.956 270.08C262.62 273.304 263.145 275.917 263.49 277.726C263.665 278.628 263.793 279.333 263.872 279.8C263.931 280.041 263.959 280.288 263.957 280.536C263.957 280.536 263.915 280.287 263.819 279.81C263.724 279.333 263.57 278.623 263.384 277.737C262.996 275.917 262.444 273.315 261.765 270.106C260.385 263.652 258.49 254.756 256.393 244.933C254.27 234.928 252.348 225.887 250.979 219.438V219.387L251.016 219.35C252.141 218.246 252.9 216.852 252.608 215.597C252.438 214.348 252.178 213.28 251.982 212.414C251.785 211.549 251.616 210.895 251.499 210.424L251.371 209.905C251.362 209.847 251.361 209.788 251.366 209.729Z" fill="#455A64"/>
<path d="M240.186 210.973C240.186 210.973 240.271 211.087 240.35 211.326C240.464 211.661 240.532 212.01 240.552 212.362C240.64 213.547 240.274 214.721 239.526 215.656C238.777 216.592 237.7 217.223 236.502 217.427C236.152 217.491 235.795 217.512 235.44 217.489C235.308 217.492 235.176 217.469 235.053 217.422C235.053 217.37 235.615 217.422 236.481 217.24C237.609 216.998 238.615 216.379 239.326 215.489C240.036 214.599 240.406 213.495 240.372 212.368C240.338 211.9 240.276 211.434 240.186 210.973Z" fill="#455A64"/>
<path d="M249.077 211.527C249.077 211.527 249.077 211.449 249.204 211.382C249.284 211.337 249.371 211.308 249.463 211.296C249.554 211.285 249.646 211.291 249.735 211.314C249.872 211.347 249.996 211.42 250.091 211.522C250.186 211.625 250.246 211.753 250.266 211.89C250.292 212.061 250.258 212.236 250.17 212.387C250.082 212.538 249.946 212.655 249.782 212.722C249.618 212.788 249.436 212.798 249.265 212.752C249.094 212.706 248.943 212.605 248.838 212.465C248.751 212.357 248.697 212.228 248.681 212.092C248.665 211.955 248.688 211.817 248.748 211.693C248.965 211.273 249.316 211.263 249.305 211.294C249.294 211.325 249.05 211.418 248.933 211.76C248.899 211.852 248.89 211.952 248.908 212.048C248.926 212.145 248.969 212.235 249.034 212.31C249.113 212.397 249.217 212.46 249.332 212.49C249.447 212.52 249.569 212.517 249.682 212.481C249.788 212.431 249.877 212.351 249.935 212.251C249.994 212.151 250.02 212.036 250.011 211.921C250.004 211.824 249.967 211.732 249.905 211.657C249.844 211.581 249.76 211.525 249.666 211.496C249.471 211.445 249.265 211.455 249.077 211.527Z" fill="#455A64"/>
<path d="M260.299 212.679C259.996 212.888 259.639 213.008 259.269 213.026C258.376 213.157 257.465 212.966 256.706 212.489C255.947 212.012 255.392 211.282 255.144 210.434C255.016 210.104 254.982 209.746 255.043 209.398C255.091 209.398 255.102 209.802 255.325 210.398C255.606 211.177 256.143 211.842 256.853 212.291C257.563 212.739 258.405 212.945 259.248 212.876C259.895 212.793 260.283 212.638 260.299 212.679Z" fill="#455A64"/>
<path d="M266.127 291.935C265.954 291.982 265.775 292.003 265.596 291.997L264.152 292.075L259.375 292.298L254.597 292.542L253.148 292.599C252.972 292.623 252.793 292.623 252.617 292.599C252.788 292.542 252.967 292.51 253.148 292.505C253.482 292.464 253.976 292.412 254.587 292.36C255.802 292.251 257.49 292.132 259.364 292.039C261.238 291.945 262.921 291.904 264.141 291.899C264.752 291.899 265.246 291.899 265.591 291.899C265.77 291.887 265.951 291.899 266.127 291.935Z" fill="#455A64"/>
<path d="M241.896 216.887C241.97 216.887 246.142 233.699 251.233 254.47C256.323 275.242 260.374 292.106 260.299 292.121C260.225 292.137 256.053 275.315 250.962 254.533C245.871 233.75 241.821 216.903 241.896 216.887Z" fill="#455A64"/>
<path d="M255.479 217.556C255.516 217.591 255.548 217.629 255.575 217.67L255.835 218.007L256.822 219.329L260.4 224.207L265.682 231.465L268.787 235.762C269.849 237.255 270.91 238.93 271.192 240.899C271.473 242.869 270.884 244.772 270.273 246.477C269.663 248.183 268.994 249.842 268.378 251.402C267.136 254.512 265.958 257.322 264.933 259.65C263.909 261.977 263.044 263.849 262.438 265.134L261.722 266.612L261.531 266.99C261.483 267.073 261.462 267.12 261.456 267.114C261.465 267.068 261.482 267.022 261.504 266.98C261.547 266.876 261.605 266.746 261.674 266.586L262.338 265.093C262.916 263.792 263.755 261.91 264.753 259.577C265.751 257.244 266.913 254.445 268.14 251.314C268.75 249.759 269.382 248.105 270.013 246.389C270.645 244.673 271.197 242.833 270.921 240.936C270.645 239.038 269.599 237.4 268.564 235.913L265.475 231.61L260.241 224.295L256.732 219.366L255.792 218.018C255.692 217.873 255.612 217.759 255.554 217.665C255.495 217.572 255.474 217.556 255.479 217.556Z" fill="#455A64"/>
<path d="M282.455 176.401L294.308 167.951L294.892 168.859L283.113 177.412L282.455 176.401Z" fill="#263238"/>
<path d="M285.387 176.142C285.387 176.142 286.979 172.098 287.335 171.238C287.691 170.377 288.296 168.879 288.524 168.848C288.752 168.817 289.586 168.941 288.497 171.512C287.409 174.084 289.777 172.513 289.777 172.513L292.059 170.916C292.059 170.916 293.864 176.183 292.84 177.769C292.033 178.957 291.128 180.077 290.132 181.118L285.387 176.142Z" fill="#FFBE9D"/>
<path d="M134.946 243.168C135.1 242.292 134.76 239.088 134.76 239.088C134.76 239.088 131.321 238.73 131.113 235.402C130.906 232.074 131.113 224.391 131.113 224.391L137.377 221.4L144.278 226.496L143.216 243.152L134.946 243.168Z" fill="#B78876"/>
<path d="M132.062 229.958C132.063 230.071 132.108 230.179 132.19 230.258C132.272 230.338 132.382 230.383 132.498 230.383C132.613 230.383 132.724 230.338 132.806 230.258C132.887 230.179 132.933 230.071 132.933 229.958C132.933 229.902 132.922 229.847 132.9 229.795C132.878 229.744 132.846 229.697 132.806 229.657C132.765 229.618 132.717 229.586 132.664 229.565C132.612 229.544 132.555 229.533 132.498 229.533C132.441 229.533 132.384 229.544 132.331 229.565C132.278 229.586 132.23 229.618 132.19 229.657C132.15 229.697 132.118 229.744 132.096 229.795C132.074 229.847 132.062 229.902 132.062 229.958Z" fill="#263238"/>
<path d="M131.425 229.652C131.479 229.704 131.802 229.44 132.27 229.414C132.737 229.388 133.092 229.611 133.145 229.549C133.198 229.487 133.108 229.419 132.954 229.315C132.747 229.183 132.501 229.119 132.254 229.134C132.006 229.151 131.77 229.243 131.579 229.398C131.441 229.518 131.394 229.626 131.425 229.652Z" fill="#263238"/>
<path d="M137.58 230.305C137.82 230.305 138.015 230.115 138.015 229.88C138.015 229.645 137.82 229.455 137.58 229.455C137.339 229.455 137.145 229.645 137.145 229.88C137.145 230.115 137.339 230.305 137.58 230.305Z" fill="#263238"/>
<path d="M136.502 229.569C136.56 229.626 136.878 229.357 137.351 229.336C137.823 229.315 138.174 229.533 138.221 229.471C138.269 229.408 138.19 229.341 138.036 229.237C137.828 229.105 137.582 229.042 137.335 229.056C137.087 229.07 136.85 229.163 136.661 229.32C136.518 229.44 136.475 229.548 136.502 229.569Z" fill="#263238"/>
<path d="M134.889 233.4C134.637 233.337 134.378 233.305 134.119 233.307C134.002 233.307 133.885 233.281 133.859 233.198C133.844 233.07 133.868 232.94 133.928 232.825L134.246 231.876C134.55 231.07 134.79 230.241 134.963 229.398C134.606 230.184 134.306 230.993 134.066 231.819C133.954 232.151 133.853 232.472 133.758 232.773C133.685 232.924 133.668 233.094 133.71 233.255C133.728 233.296 133.756 233.333 133.791 233.362C133.826 233.391 133.867 233.411 133.912 233.421C133.979 233.431 134.047 233.431 134.113 233.421C134.372 233.445 134.632 233.438 134.889 233.4Z" fill="#263238"/>
<path d="M136.443 233.836C135.756 234.261 134.976 234.522 134.166 234.598C134.338 234.831 134.586 235.001 134.87 235.079C135.153 235.157 135.455 235.139 135.727 235.029C136.73 234.619 136.443 233.836 136.443 233.836Z" fill="white"/>
<path d="M134.76 239.087C136.381 239.021 137.948 238.503 139.277 237.594C139.277 237.594 138.253 240.041 134.834 239.906L134.76 239.087Z" fill="#A36957"/>
<path d="M148.795 228.964C148.795 228.964 150.186 236.641 143.545 238.025L143.741 228.777L148.795 228.964Z" fill="#263238"/>
<path d="M148.578 227.263C148.164 225.62 147.388 224.085 146.306 222.763C147.262 223.152 147.899 223.541 148.031 223.416C148.164 223.292 147.92 223.059 147.5 222.711C146.956 222.276 146.333 221.944 145.664 221.732L145.351 221.649C145.789 221.478 146.189 221.226 146.529 220.907C146.936 220.535 147.218 220.05 147.336 219.518C147.455 218.985 147.405 218.43 147.193 217.927C146.953 217.498 146.588 217.149 146.145 216.923C145.702 216.697 145.2 216.604 144.703 216.657C144.209 216.725 143.739 216.905 143.329 217.183C142.92 217.462 142.583 217.83 142.346 218.258C142.232 218.463 142.138 218.679 142.065 218.901C142.081 218.533 142.12 218.166 142.182 217.802C142.394 216.522 142.882 215.563 142.803 215.521C142.299 216.172 141.985 216.944 141.895 217.755C141.895 217.88 141.863 217.999 141.847 218.118C141.743 217.787 141.615 217.463 141.465 217.149C141.141 216.48 140.833 216.112 140.743 216.169C140.557 216.257 141.162 217.662 141.412 219.559C140.815 219.365 140.193 219.252 139.565 219.223C138.407 219.223 136.486 218.704 133.768 220.835C132.848 221.408 132.052 222.154 131.427 223.028C130.529 224.311 130.023 225.818 129.967 227.372C129.951 227.838 129.981 228.305 130.057 228.766C130.074 228.936 130.119 229.103 130.19 229.259C130.243 229.259 130.089 228.538 130.19 227.382C130.25 226.525 130.445 225.682 130.769 224.883C130.364 226.266 130.454 227.741 131.024 229.067L137.102 228.139C136.709 226.838 136.995 224.774 137.181 223.764C138.243 228.611 142.516 230.938 142.516 230.938L148.912 229.958C148.822 229.393 148.716 227.771 148.578 227.263Z" fill="#263238"/>
<path d="M163.293 301.507C163.489 301.6 179.17 304.617 178.591 302.543C178.013 300.47 163.431 297.214 163.431 297.214L163.293 301.507Z" fill="#1A9C9A"/>
<path d="M170.423 300.153C170.497 300.153 170.608 300.506 170.603 300.967C170.598 301.428 170.486 301.791 170.412 301.781C170.338 301.77 170.322 301.408 170.327 300.967C170.332 300.526 170.348 300.158 170.423 300.153Z" fill="#263238"/>
<path d="M169.588 299.873C169.657 299.873 169.795 300.283 169.742 300.822C169.689 301.361 169.493 301.755 169.424 301.729C169.355 301.703 169.424 301.299 169.466 300.796C169.509 300.293 169.509 299.884 169.588 299.873Z" fill="#263238"/>
<path d="M168.574 299.79C168.648 299.79 168.754 300.195 168.765 300.713C168.776 301.231 168.685 301.646 168.611 301.641C168.537 301.636 168.5 301.226 168.489 300.718C168.478 300.21 168.5 299.795 168.574 299.79Z" fill="#263238"/>
<path d="M166.664 298.292C166.747 298.288 166.829 298.297 166.909 298.318C167.068 298.318 167.301 298.391 167.599 298.458C168.198 298.583 169.064 298.785 170.12 299.07C171.176 299.355 172.429 299.713 173.799 300.169C174.483 300.397 175.211 300.63 175.922 300.936C176.693 301.24 177.402 301.677 178.013 302.227C178.109 302.301 178.187 302.395 178.242 302.502C178.275 302.577 178.28 302.662 178.256 302.74C178.232 302.819 178.18 302.887 178.109 302.932C177.905 303.036 177.675 303.084 177.445 303.072C177.037 303.103 176.633 303.118 176.24 303.129C175.45 303.129 174.685 303.129 173.958 303.072C172.509 302.984 171.214 302.807 170.131 302.642C169.048 302.476 168.177 302.31 167.577 302.191L166.887 302.051C166.805 302.04 166.724 302.017 166.648 301.983C166.966 301.993 167.282 302.028 167.593 302.087L170.157 302.45C171.219 302.595 172.535 302.75 173.974 302.828C174.696 302.864 175.45 302.885 176.235 302.864C176.623 302.864 177.026 302.839 177.424 302.807C177.607 302.818 177.789 302.784 177.955 302.709C178.003 302.673 178.008 302.652 177.992 302.605C177.948 302.535 177.892 302.472 177.828 302.419C177.238 301.892 176.557 301.472 175.816 301.18C175.105 300.879 174.383 300.661 173.693 300.402C172.328 299.941 171.086 299.557 170.04 299.251C168.995 298.945 168.135 298.733 167.546 298.557C167.246 298.487 166.952 298.399 166.664 298.292Z" fill="#263238"/>
<path d="M174.991 300.569C175.065 300.595 174.911 301.176 174.991 301.891C175.071 302.606 175.272 303.161 175.198 303.197C174.915 302.821 174.748 302.375 174.715 301.91C174.682 301.444 174.785 300.979 175.012 300.569H174.991Z" fill="#263238"/>
<path d="M111.457 298.473C111.24 298.473 95.4158 300.604 96.642 302.341C97.8682 304.077 112.753 302.553 112.753 302.553L111.457 298.473Z" fill="#1A9C9A"/>
<path d="M105.141 302.025C105.077 302.056 104.849 301.745 104.7 301.31C104.552 300.874 104.557 300.501 104.61 300.501C104.663 300.501 104.817 300.828 104.961 301.247C105.104 301.667 105.21 301.989 105.141 302.025Z" fill="#263238"/>
<path d="M106.027 302.02C105.963 302.057 105.692 301.699 105.56 301.175C105.427 300.652 105.485 300.211 105.56 300.211C105.634 300.211 105.703 300.621 105.83 301.108C105.958 301.595 106.096 301.984 106.027 302.02Z" fill="#263238"/>
<path d="M107.008 301.777C106.939 301.808 106.705 301.45 106.519 300.963C106.333 300.475 106.28 300.055 106.355 300.035C106.429 300.014 106.599 300.398 106.779 300.869C106.96 301.341 107.077 301.745 107.008 301.777Z" fill="#263238"/>
<path d="M109.334 302.574C109.257 302.603 109.177 302.621 109.095 302.626L108.394 302.714C107.784 302.787 106.903 302.87 105.809 302.937C104.716 303.005 103.41 303.062 101.961 303.072C101.233 303.072 100.474 303.072 99.6781 303.025C98.8485 302.99 98.0329 302.804 97.2734 302.476C97.1568 302.436 97.0502 302.372 96.9602 302.289C96.9076 302.226 96.8789 302.147 96.8789 302.066C96.8789 301.985 96.9076 301.906 96.9602 301.843C97.1165 301.678 97.3168 301.557 97.5388 301.496C97.9157 301.335 98.2873 301.195 98.6589 301.055C99.402 300.791 100.135 300.573 100.835 300.381C102.237 300.003 103.521 299.759 104.599 299.573C105.676 299.386 106.558 299.262 107.163 299.184L107.863 299.096C107.944 299.083 108.027 299.083 108.108 299.096C107.804 299.187 107.493 299.255 107.179 299.298L104.636 299.77C103.574 299.982 102.29 300.247 100.92 300.63C100.225 300.827 99.5029 301.045 98.7969 301.315C98.4306 301.455 98.059 301.595 97.6875 301.75C97.5143 301.799 97.3559 301.888 97.2257 302.009C97.1938 302.061 97.1938 302.077 97.2257 302.118C97.2921 302.172 97.3675 302.214 97.4486 302.242C98.1796 302.551 98.9621 302.727 99.7577 302.761C100.533 302.823 101.297 302.818 102.019 302.823C103.463 302.823 104.763 302.792 105.857 302.751C106.95 302.709 107.832 302.647 108.442 302.611C108.738 302.579 109.036 302.567 109.334 302.574Z" fill="#263238"/>
<path d="M100.687 303.092C100.602 303.092 100.56 302.496 100.263 301.838C99.9652 301.179 99.5724 300.723 99.6308 300.671C99.6892 300.62 100.209 301.008 100.517 301.708C100.754 302.131 100.815 302.627 100.687 303.092Z" fill="#263238"/>
<path d="M160.521 279.713H152.469L122.742 280.464L114.249 279.391C112.927 279.106 112.057 278.987 111.775 279.075C110.635 279.54 109.635 280.282 108.872 281.232C105.634 285.006 107.672 290.822 112.545 292.118L117.121 293.331L107.109 296.472L110.491 305.845C110.491 305.845 125.439 302.688 139.936 299.355L163.133 305.482L166.477 294.964L162.544 293.714C165.012 292.978 166.573 292.398 166.79 292.045C168.25 289.837 170.835 279.568 160.484 279.723" fill="#455A64"/>
<path opacity="0.2" d="M162.417 293.752L145.176 300.725L139.963 299.346L162.417 293.752Z" fill="black"/>
<path opacity="0.2" d="M117.195 280.501L139.267 286.675L156.078 281.076L117.195 280.501Z" fill="black"/>
<path d="M114.053 305.166C113.771 304.74 113.534 304.287 113.347 303.813C112.954 302.958 112.444 301.74 111.945 300.413C111.446 299.086 111.038 297.821 110.778 296.929C110.61 296.449 110.49 295.954 110.422 295.452C110.638 295.91 110.816 296.385 110.953 296.872C111.261 297.758 111.691 298.982 112.19 300.319C112.689 301.657 113.172 302.865 113.517 303.736C113.732 304.198 113.912 304.677 114.053 305.166Z" fill="#263238"/>
<path d="M167.263 283.207C167.22 283.232 167.173 283.251 167.125 283.264L166.711 283.414L165.118 283.964L159.232 285.918C154.236 287.546 147.325 289.749 139.665 292.097C132.005 294.445 125.041 296.493 119.993 297.945L114.005 299.635L112.375 300.075L111.946 300.184C111.897 300.199 111.847 300.208 111.797 300.21L111.94 300.158L112.36 300.023L113.952 299.531L119.913 297.758C124.951 296.265 131.899 294.186 139.554 291.838C147.208 289.49 154.13 287.318 159.136 285.737L165.071 283.865L166.69 283.347L167.109 283.222C167.159 283.21 167.211 283.205 167.263 283.207Z" fill="#263238"/>
<path d="M151.191 282.829C151.083 282.888 150.969 282.935 150.851 282.969L149.864 283.321C149.004 283.622 147.74 284.047 146.201 284.56C143.101 285.597 138.806 286.965 134.056 288.453C129.305 289.941 124.984 291.252 121.846 292.175C120.254 292.637 119.007 292.999 118.131 293.243L117.117 293.518C116.998 293.552 116.878 293.578 116.756 293.596C116.865 293.539 116.981 293.496 117.101 293.466L118.099 293.145L121.815 291.994L133.992 288.199L146.158 284.379L149.848 283.223L150.856 282.917C150.964 282.876 151.076 282.846 151.191 282.829Z" fill="#263238"/>
<path d="M139.156 286.64C139.156 286.712 134.203 285.396 128.136 283.7C122.068 282.005 117.174 280.59 117.195 280.502C117.217 280.414 122.148 281.746 128.21 283.441C134.272 285.136 139.177 286.567 139.156 286.64Z" fill="#263238"/>
<path d="M163.261 294.249C162.717 295.999 162.082 297.72 161.36 299.407C160.24 302.227 159.274 304.487 159.205 304.462C159.748 302.713 160.382 300.993 161.105 299.309C162.225 296.489 163.192 294.223 163.261 294.249Z" fill="#263238"/>
<path d="M161.191 298.593C159.727 298.346 158.279 298.015 156.854 297.602C155.413 297.27 153.995 296.851 152.607 296.348C154.072 296.593 155.52 296.924 156.944 297.338C158.385 297.67 159.803 298.089 161.191 298.593Z" fill="#263238"/>
<path d="M128.173 289.999C127.895 289.966 127.62 289.912 127.351 289.838L125.132 289.32C123.263 288.853 120.678 288.221 117.859 287.391C115.443 286.698 113.076 285.851 110.773 284.857C109.897 284.463 109.18 284.12 108.724 283.866C108.47 283.75 108.228 283.609 108.002 283.447C108.267 283.536 108.524 283.645 108.772 283.773C109.26 283.996 109.966 284.292 110.852 284.68C113.168 285.62 115.534 286.438 117.939 287.132C120.752 287.962 123.327 288.62 125.185 289.133L127.377 289.75C127.65 289.807 127.917 289.89 128.173 289.999Z" fill="#263238"/>
<path d="M144.492 242.706H143.839L143.744 240.498L134.778 241.016C134.778 241.016 134.868 242.053 134.863 242.773C129.342 243.292 120.494 246.06 120.281 258.195L127.362 258.356C126.763 263.924 126.832 267.246 126.253 269.336C125.266 272.788 122.139 280.077 122.766 280.445C123.392 280.813 152.449 281.336 153.835 280.6C155.22 279.864 152.699 270.352 152.067 267.77C151.669 266.122 151.584 262.348 151.573 259.429L159.706 259.071C159.706 259.071 160.295 242.659 144.492 242.706Z" fill="#1A9C9A"/>
<path d="M143.79 242.618C143.362 242.742 142.92 242.815 142.474 242.836C141.651 242.929 140.515 243.017 139.257 243.043C137.999 243.069 136.863 243.043 136.04 242.971C135.593 242.964 135.148 242.908 134.713 242.805C135.155 242.754 135.601 242.745 136.045 242.779C136.868 242.779 137.999 242.779 139.23 242.779C140.462 242.779 141.614 242.696 142.415 242.655C142.871 242.599 143.332 242.587 143.79 242.618Z" fill="#263238"/>
<path d="M136.406 240.943C136.485 240.943 136.544 241.368 136.544 241.892C136.544 242.416 136.485 242.846 136.406 242.846C136.326 242.846 136.268 242.421 136.268 241.892C136.268 241.363 136.305 240.943 136.406 240.943Z" fill="#263238"/>
<path d="M138.779 240.778C138.854 240.778 138.928 241.244 138.944 241.814C138.993 242.163 138.956 242.519 138.838 242.851C138.758 242.851 138.684 242.385 138.668 241.814C138.618 241.465 138.656 241.109 138.779 240.778Z" fill="#263238"/>
<path d="M141.253 240.695C141.328 240.695 141.434 241.151 141.444 241.732C141.455 242.312 141.375 242.768 141.296 242.768C141.18 242.435 141.137 242.082 141.168 241.732C141.184 241.172 141.184 240.7 141.253 240.695Z" fill="#263238"/>
<path d="M143.046 240.612C143.125 240.612 143.178 241.068 143.253 241.623C143.327 242.178 143.385 242.634 143.311 242.66C143.237 242.686 143.051 242.24 142.982 241.659C142.913 241.079 142.971 240.607 143.046 240.612Z" fill="#263238"/>
<path d="M128.481 258.227C128.338 257.37 128.285 256.502 128.322 255.635C128.266 254.769 128.305 253.9 128.439 253.043C128.579 253.9 128.632 254.768 128.598 255.635C128.647 256.501 128.608 257.369 128.481 258.227Z" fill="#263238"/>
<path d="M151.27 259.092C151.055 258.172 150.927 257.235 150.888 256.292C150.76 255.356 150.726 254.41 150.787 253.467C151.128 255.323 151.29 257.206 151.27 259.092Z" fill="#263238"/>
<path d="M128.481 258.226C128.076 258.278 127.667 258.29 127.26 258.262H124.335H121.405C121 258.29 120.592 258.278 120.189 258.226C120.585 258.126 120.991 258.076 121.4 258.075C122.148 258.018 123.189 257.977 124.335 257.982C125.482 257.987 126.522 258.023 127.271 258.08C127.679 258.082 128.085 258.13 128.481 258.226Z" fill="#263238"/>
<path d="M159.687 259.091C158.25 259.228 156.804 259.273 155.361 259.226C153.916 259.273 152.469 259.228 151.029 259.091C152.469 258.958 153.916 258.913 155.361 258.957C156.804 258.913 158.249 258.958 159.687 259.091Z" fill="#263238"/>
<path d="M159.333 259.159C159.333 259.159 161.457 278.511 155.384 280.413C149.311 282.316 137.336 273.306 137.336 273.306L140.786 266.484C140.786 266.484 148.749 271.886 150.469 270.667C152.188 269.449 151.291 259.159 151.291 259.159H159.333Z" fill="#B78876"/>
<path d="M120.382 258.227C120.382 258.227 118.221 277.381 124.288 279.289C130.356 281.197 142.337 272.177 142.337 272.177L138.881 265.355C138.881 265.355 130.871 270.357 129.209 269.092C128.248 268.356 128.222 258.325 128.222 258.325C125.398 258.206 122.781 258.087 120.382 258.227Z" fill="#B78876"/>
<path d="M155.553 262.217L151.524 281.501C151.524 281.501 126.766 281.315 126.512 281.242C126.257 281.17 123.857 262.217 123.857 262.217H155.553Z" fill="#263238"/>
<path d="M137.769 271.99C137.749 272.28 137.819 272.57 137.969 272.821C138.12 273.072 138.344 273.274 138.613 273.399C138.882 273.524 139.184 273.567 139.479 273.523C139.773 273.478 140.047 273.348 140.265 273.15C140.483 272.951 140.635 272.693 140.701 272.409C140.767 272.126 140.744 271.829 140.636 271.558C140.527 271.287 140.337 271.054 140.091 270.89C139.845 270.726 139.553 270.637 139.255 270.637C138.875 270.625 138.506 270.761 138.227 271.015C137.949 271.268 137.784 271.618 137.769 271.99Z" fill="white"/>
<path d="M142.973 229.679C143.197 229.544 143.452 229.465 143.715 229.449C143.978 229.434 144.241 229.483 144.48 229.591C144.785 229.831 144.986 230.176 145.043 230.555C145.114 230.862 145.11 231.181 145.032 231.486C144.953 231.792 144.803 232.075 144.592 232.312C144.371 232.542 144.077 232.69 143.758 232.733C143.439 232.775 143.115 232.709 142.84 232.546" fill="#B78876"/>
<path d="M143.61 232.017C143.61 231.975 143.78 231.949 143.977 231.804C144.106 231.722 144.211 231.608 144.28 231.473C144.349 231.338 144.38 231.187 144.369 231.037C144.354 230.888 144.3 230.746 144.211 230.624C144.123 230.502 144.004 230.405 143.865 230.342C143.642 230.238 143.472 230.244 143.467 230.202C143.462 230.161 143.637 230.083 143.934 230.156C144.128 230.212 144.301 230.323 144.429 230.476C144.558 230.629 144.636 230.816 144.655 231.013C144.674 231.209 144.632 231.407 144.535 231.581C144.438 231.754 144.289 231.895 144.109 231.985C143.801 232.099 143.61 232.074 143.61 232.017Z" fill="#A36957"/>
<defs>
<radialGradient id="paint0_radial_175_1144" cx="0" cy="0" r="1" gradientUnits="userSpaceOnUse" gradientTransform="translate(179.5 150.5) rotate(90) scale(150.5 179.5)">
<stop stop-color="#0C7978" stop-opacity="0.51"/>
<stop offset="1" stop-color="#FDFDFD" stop-opacity="0"/>
</radialGradient>
</defs>
</svg>
