<svg width="359" height="301" viewBox="0 0 359 301" fill="none" xmlns="http://www.w3.org/2000/svg">
<ellipse cx="179.5" cy="150.5" rx="179.5" ry="150.5" fill="url(#paint0_radial_175_1145)"/>
<path d="M165.118 98.0486H131.031V134.283H165.118V98.0486Z" fill="#E0E0E0"/>
<path d="M162.811 98.0486H128.725V134.283H162.811V98.0486Z" fill="#EBEBEB"/>
<path d="M158.23 102.921H133.309V129.413H158.23V102.921Z" fill="#FAFAFA"/>
<path d="M133.308 129.587C133.125 129.854 132.916 130.103 132.686 130.328C132.284 130.738 131.722 131.331 131.08 131.966C130.438 132.6 129.876 133.161 129.474 133.558C129.257 133.788 129.019 133.997 128.764 134.181C128.94 133.913 129.143 133.665 129.37 133.44C129.771 133.03 130.333 132.433 130.976 131.802C131.618 131.172 132.18 130.607 132.601 130.206C132.814 129.974 133.051 129.766 133.308 129.587Z" fill="#E0E0E0"/>
<path d="M158.23 129.51C158.485 129.698 158.722 129.911 158.937 130.145C159.338 130.554 159.921 131.127 160.543 131.782C161.165 132.437 161.711 133.01 162.104 133.42C162.331 133.64 162.535 133.883 162.715 134.144C162.458 133.96 162.221 133.749 162.008 133.514C161.607 133.104 161.025 132.531 160.402 131.876C159.78 131.221 159.234 130.648 158.841 130.239C158.613 130.018 158.408 129.774 158.23 129.51Z" fill="#E0E0E0"/>
<path d="M158.16 102.99C158.343 102.729 158.552 102.488 158.782 102.27C159.184 101.86 159.742 101.267 160.368 100.632C160.994 99.9977 161.572 99.4369 161.994 99.0397C162.212 98.8092 162.451 98.6008 162.708 98.4175C162.525 98.6767 162.316 98.9167 162.086 99.1339C161.685 99.5433 161.127 100.141 160.48 100.771C159.834 101.402 159.276 101.967 158.851 102.368C158.642 102.599 158.41 102.807 158.16 102.99Z" fill="#E0E0E0"/>
<path d="M133.24 103.056C132.985 102.868 132.749 102.655 132.533 102.421C132.132 102.012 131.546 101.439 130.928 100.784C130.309 100.129 129.755 99.5556 129.362 99.1462C129.136 98.9267 128.933 98.6839 128.756 98.4216C129.01 98.6078 129.245 98.819 129.458 99.0521C129.86 99.4615 130.446 100.035 131.064 100.69C131.682 101.345 132.236 101.918 132.63 102.327C132.858 102.547 133.062 102.792 133.24 103.056Z" fill="#E0E0E0"/>
<path d="M158.162 129.412C158.162 129.412 158.162 129.367 158.162 129.285C158.162 129.203 158.162 129.072 158.162 128.916C158.162 128.585 158.162 128.098 158.162 127.488C158.162 126.235 158.162 124.409 158.162 122.088C158.162 117.449 158.137 110.838 158.117 102.92L158.202 103.002H133.348L133.441 102.908C133.441 112.631 133.441 121.74 133.441 129.399L133.36 129.318L151.361 129.358L156.411 129.383H157.748H156.431H151.393L133.328 129.424H133.248V129.342C133.248 121.67 133.248 112.557 133.248 102.851V102.752H133.344H158.198H158.278V102.838C158.278 110.776 158.246 117.408 158.238 122.08C158.238 124.393 158.238 126.21 158.214 127.459C158.214 128.073 158.214 128.548 158.214 128.871C158.214 129.027 158.214 129.146 158.214 129.232C158.214 129.318 158.162 129.412 158.162 129.412Z" fill="#E0E0E0"/>
<path d="M139.884 113.986C139.884 113.986 139.351 120.537 146.308 120.537C146.316 117.044 143.485 114.281 139.884 113.986Z" fill="#EBEBEB"/>
<path d="M152.63 113.99C152.63 113.99 146.207 113.446 146.207 120.541C149.631 120.553 152.341 117.663 152.63 113.99Z" fill="#EBEBEB"/>
<path d="M146.006 110.4C146.006 110.4 140.751 115.21 146.295 120.545C148.872 117.761 148.64 113.393 146.006 110.4Z" fill="#E0E0E0"/>
<path d="M252.877 230.736C250.756 229.384 248.36 228.544 245.872 228.28C244.728 228.161 243.463 228.194 242.556 228.902C242.451 228.965 242.364 229.056 242.304 229.164C242.244 229.273 242.213 229.396 242.215 229.52C242.272 229.692 242.387 229.837 242.54 229.93C245.39 232.144 249.702 232.427 252.877 230.728" fill="#E0E0E0"/>
<path d="M252.697 230.531C251.075 229.317 249.561 227.96 248.173 226.474C246.779 224.978 245.8 223.132 245.335 221.123C245.214 220.514 245.178 219.818 245.559 219.334C249.172 222.2 251.983 225.922 252.697 230.531Z" fill="#E0E0E0"/>
<path d="M252.842 230.707C252.507 228.7 252.534 226.646 252.922 224.649C253.376 222.671 254.432 220.78 256.089 219.65C256.712 221.136 256.443 222.847 256.005 224.399C255.325 226.804 254.265 229.08 252.866 231.137" fill="#E0E0E0"/>
<path d="M256.375 237.178C254.231 237.445 252.36 238.599 250.755 240.077C249.146 241.574 248.025 243.536 247.543 245.702C249.651 245.571 251.437 244.064 252.73 242.361C254.022 240.658 254.925 238.8 256.343 237.211" fill="#E0E0E0"/>
<path d="M257.144 238.199C256.299 236.011 256.004 233.644 256.284 231.31C256.565 228.977 257.412 226.752 258.749 224.837C259.974 229.27 259.524 234.281 257.144 238.199Z" fill="#E0E0E0"/>
<path d="M261.815 243.872C259.853 243.747 257.898 244.214 256.195 245.214C254.492 246.215 253.115 247.704 252.236 249.497C252.116 249.738 252.011 250.045 252.172 250.262C252.255 250.344 252.356 250.404 252.466 250.437C252.577 250.47 252.693 250.474 252.806 250.451C254.693 250.328 256.367 249.169 257.748 247.851C259.129 246.533 260.333 245.006 261.859 243.868" fill="#E0E0E0"/>
<path d="M261.665 243.566C260.66 240.263 260.599 236.737 261.488 233.4C261.838 232.09 262.428 230.715 263.616 230.101C263.663 230.068 263.716 230.046 263.773 230.036C263.829 230.027 263.886 230.029 263.941 230.043C264.037 230.095 264.11 230.181 264.146 230.285C264.544 231.2 264.716 232.201 264.648 233.2C264.576 234.195 264.426 235.182 264.198 236.152C263.825 237.957 263.628 239.897 262.657 241.453C262.426 241.827 262.22 242.215 262.038 242.616C261.854 243.025 261.854 243.152 261.685 243.467" fill="#E0E0E0"/>
<path d="M274.031 245.445C273.115 241.887 274.087 237.58 276.283 234.665C276.447 234.453 276.66 234.223 276.925 234.256C277.326 234.293 277.435 234.846 277.415 235.259C277.25 238.914 276.077 242.448 274.031 245.453" fill="#E0E0E0"/>
<path d="M275.145 246.218C279.38 247.344 284.237 246.251 287.758 243.602C285.648 242.523 283.236 242.222 280.933 242.75C278.653 243.282 276.57 244.322 275.149 246.218" fill="#E0E0E0"/>
<path d="M276.086 243.852C278.458 239.91 283.003 237.339 287.535 237.105C287.013 238.985 285.496 240.442 283.79 241.326C282.083 242.211 280.177 242.591 278.294 242.964C277.563 243.107 276.56 243.267 276.086 243.852Z" fill="#E0E0E0"/>
<path d="M274.266 232.373C274.908 230.129 275.554 227.869 275.731 225.536C275.908 223.202 275.578 220.775 274.394 218.773C272.178 223.145 271.957 228.25 274.197 232.606" fill="#E0E0E0"/>
<path d="M281.725 228.529C284.314 223.727 289.597 219.895 294.944 219.354C292.881 224.594 287.256 228.639 281.725 228.529Z" fill="#E0E0E0"/>
<path d="M280.096 229.47C283.958 230.067 287.249 232.585 290.858 234.108C291.614 234.482 292.453 234.646 293.291 234.583C293.682 234.581 294.062 234.456 294.381 234.226C294.7 233.996 294.942 233.671 295.073 233.296C295.205 232.921 295.22 232.513 295.116 232.129C295.013 231.745 294.796 231.402 294.495 231.148C293.984 230.667 293.383 230.296 292.729 230.055C288.795 228.385 284.58 228.344 280.437 229.355" fill="#E0E0E0"/>
<path d="M277.859 232.234C278.735 232.488 279.032 232.95 279.726 233.552C282.087 235.599 284.88 237.062 287.887 237.826C288.2 237.904 288.606 237.937 288.763 237.65C288.919 237.364 288.726 237.093 288.55 236.872C287.239 235.303 285.537 234.124 283.624 233.458C281.737 232.746 280.107 231.882 277.859 232.066" fill="#E0E0E0"/>
<path d="M275.334 215.543C276.919 217.03 278.792 218.163 280.833 218.868C282.873 219.573 285.035 219.835 287.181 219.637C287.377 219.641 287.569 219.571 287.718 219.44C288.016 219.109 287.658 218.597 287.317 218.323C283.833 215.555 279.617 214.405 275.338 215.527" fill="#E0E0E0"/>
<path d="M278.324 214.43C280.421 212.855 282.853 211.809 285.422 211.377C287.991 210.944 290.624 211.137 293.105 211.94C291.243 213.811 288.661 214.806 286.06 215.093C283.463 215.335 280.845 215.111 278.324 214.43Z" fill="#E0E0E0"/>
<path d="M277.138 206.761C276.797 203.216 277.017 200.42 276.776 196.858C276.776 196.571 276.7 196.232 276.439 196.129C276.074 195.986 275.773 196.44 275.636 196.817C275.13 198.468 275 200.215 275.257 201.925C275.514 203.635 276.15 205.262 277.118 206.683" fill="#E0E0E0"/>
<path d="M276.887 207.151C279.243 205.665 281.01 203.729 282.643 201.448C283.779 199.86 284.739 197.96 284.482 196.012C282.876 195.979 281.367 196.875 280.327 198.116C279.336 199.4 278.616 200.879 278.211 202.459C277.75 204.019 277.429 205.62 276.887 207.151Z" fill="#E0E0E0"/>
<path d="M282.545 205.55C287.727 203.593 292.524 200.708 296.712 197.03C295.022 196.334 293.099 196.752 291.393 197.44C287.527 199.032 284.367 201.718 282.473 205.501" fill="#E0E0E0"/>
<path d="M278.479 209.091C281.096 209.382 283.753 209.574 286.347 209.132C288.94 208.69 291.309 207.666 293.689 206.643C293.901 206.576 294.081 206.43 294.191 206.233C294.228 206.121 294.23 205.999 294.198 205.885C294.166 205.771 294.1 205.67 294.01 205.595C293.828 205.446 293.613 205.344 293.384 205.296C290.795 204.555 287.997 204.886 285.448 205.779C283.019 206.619 280.683 207.717 278.479 209.054" fill="#E0E0E0"/>
<path d="M263.544 215.666C261.761 211.981 261.878 207.707 263.415 203.92C264.503 205.607 264.619 207.752 264.435 209.762C264.25 211.772 263.632 213.832 263.6 215.85" fill="#E0E0E0"/>
<path d="M256.413 211.998C254.18 211.968 251.964 212.414 249.909 213.307C247.854 214.2 246.005 215.521 244.479 217.185C246.703 217.541 248.991 216.955 251.014 215.956C253.037 214.958 254.836 213.537 256.634 212.133" fill="#E0E0E0"/>
<path d="M251.625 210.364C249.445 210.184 247.345 209.91 245.25 210.565C243.154 211.22 241.235 212.706 240.396 214.765C242.453 214.933 244.516 214.536 246.37 213.615C248.213 212.693 249.972 211.605 251.625 210.364Z" fill="#E0E0E0"/>
<path d="M258.719 210.438C256.76 209.128 254.745 207.797 252.465 207.253C250.185 206.708 247.535 207.109 245.941 208.866C247.792 209.971 250.032 210.094 252.176 210.094C254.319 210.094 256.945 210.065 258.964 210.794" fill="#E0E0E0"/>
<path d="M258.73 210.545C255.378 207.188 254.11 201.158 255.459 196.573C258.104 200.703 259.26 205.642 258.73 210.545Z" fill="#E0E0E0"/>
<path d="M267.947 201.035C268.582 199.536 269.023 197.964 269.593 196.437C270.109 194.889 270.903 193.453 271.934 192.2C272.983 190.942 274.475 190.154 276.088 190.006C275.572 192.318 274.589 194.495 273.202 196.398C271.814 198.301 270.054 199.889 268.032 201.059" fill="#E0E0E0"/>
<path d="M266.281 203.015C265.233 201.55 264.024 199.556 262.607 198.459C261.19 197.362 259.34 196.698 257.609 197.12C258.506 198.722 259.757 200.089 261.262 201.112C262.767 202.136 264.485 202.787 266.281 203.015Z" fill="#E0E0E0"/>
<path d="M266.614 201.154C265.928 199.377 265.237 197.58 264.96 195.692C264.683 193.805 264.852 191.787 265.799 190.141C267.638 193.686 268.232 197.51 266.707 201.195" fill="#E0E0E0"/>
<path d="M267.963 190.145C269.007 186.628 272.162 184.037 275.57 182.85C275.994 182.675 276.452 182.605 276.907 182.645C277.133 182.672 277.347 182.766 277.522 182.915C277.697 183.064 277.825 183.262 277.891 183.484C278.015 184.082 277.529 184.618 277.088 185.015C274.422 187.335 271.324 189.08 267.979 190.145" fill="#E0E0E0"/>
<path d="M268.003 187.267C268.136 185.003 268.272 182.702 268.995 180.553C269.718 178.404 271.115 176.39 273.142 175.452C273.487 177.741 272.496 180.017 271.299 182.002C270.103 183.988 268.666 185.83 267.947 188.029" fill="#E0E0E0"/>
<path d="M267.948 188.831C267.089 186.268 266.996 183.013 265.495 180.778C264.443 179.218 262.757 178.154 261.85 176.504C261.303 178.088 261.379 179.827 262.062 181.355C262.746 182.868 263.688 184.244 264.844 185.42C265.96 186.649 266.912 187.545 267.948 188.831Z" fill="#E0E0E0"/>
<path d="M267.963 264.292C267.898 264.292 267.838 247.196 267.834 226.117C267.83 205.038 267.878 187.933 267.947 187.933C268.015 187.933 268.071 205.025 268.075 226.117C268.079 247.208 268.031 264.292 267.963 264.292Z" fill="#E0E0E0"/>
<path d="M282.613 213.086C282.411 213.187 282.2 213.268 281.983 213.328L280.249 213.925C278.788 214.433 276.776 215.154 274.597 216.079C272.417 217.004 270.402 217.79 269.241 218.814C268.78 219.209 268.412 219.706 268.165 220.267C268.001 220.676 267.973 220.914 267.949 220.91C267.939 220.85 267.939 220.789 267.949 220.729C267.975 220.559 268.016 220.392 268.073 220.23C268.292 219.634 268.652 219.102 269.121 218.683C269.821 218.079 270.604 217.584 271.445 217.213C272.373 216.771 273.404 216.308 274.496 215.85C276.684 214.937 278.711 214.212 280.189 213.758C280.927 213.524 281.529 213.348 281.951 213.234C282.167 213.163 282.388 213.114 282.613 213.086Z" fill="#E0E0E0"/>
<path d="M287.413 201.06C287.413 201.06 287.361 201.133 287.237 201.252L286.699 201.768L284.692 203.626L278.008 209.698C275.398 212.064 273.146 214.328 271.585 216.031C270.802 216.882 270.184 217.587 269.762 218.078C269.569 218.307 269.409 218.487 269.276 218.643C269.144 218.798 269.104 218.839 269.096 218.831C269.137 218.754 269.186 218.682 269.24 218.614C269.341 218.475 269.489 218.27 269.69 218.016C270.091 217.505 270.689 216.788 271.456 215.912C273.473 213.665 275.607 211.529 277.847 209.513C280.465 207.147 282.849 205.01 284.579 203.495L286.639 201.694L287.205 201.215C287.268 201.155 287.338 201.103 287.413 201.06Z" fill="#E0E0E0"/>
<path d="M275.193 212.104C275.125 212.071 275.667 210.79 276.213 209.165C276.759 207.539 277.016 206.172 277.088 206.184C277.16 206.197 276.996 207.601 276.442 209.247C276.21 209.943 275.942 210.626 275.639 211.294C275.529 211.584 275.379 211.857 275.193 212.104Z" fill="#E0E0E0"/>
<path d="M267.98 222.442C267.83 222.298 267.696 222.139 267.579 221.967L266.547 220.62C265.684 219.478 264.488 217.906 263.147 216.182C261.806 214.459 260.574 212.907 259.682 211.797L258.635 210.475C258.497 210.319 258.376 210.149 258.273 209.968C258.432 210.101 258.578 210.25 258.707 210.414C258.976 210.709 259.357 211.147 259.819 211.691C260.746 212.784 262.003 214.311 263.344 216.039C264.684 217.766 265.865 219.355 266.696 220.522C267.097 221.107 267.438 221.582 267.663 221.918C267.784 222.083 267.89 222.258 267.98 222.442Z" fill="#E0E0E0"/>
<path d="M264.768 218.245C264.728 218.29 263.873 217.25 263.423 215.678C263.17 214.84 263.067 213.962 263.118 213.087H263.223C263.178 213.283 263.142 213.39 263.122 213.386C263.102 213.382 263.102 213.271 263.122 213.071H263.231C263.281 213.924 263.425 214.768 263.66 215.588C264.09 217.119 264.832 218.204 264.768 218.245Z" fill="#E0E0E0"/>
<path d="M260.643 212.927C260.354 212.702 260.038 212.515 259.703 212.37C258.858 212.113 257.969 212.04 257.094 212.158C256.208 212.227 255.33 212.372 254.469 212.592C254.116 212.707 253.755 212.794 253.389 212.854C253.711 212.659 254.06 212.514 254.424 212.424C255.287 212.15 256.177 211.979 257.078 211.912C257.985 211.789 258.907 211.89 259.768 212.207C260.133 212.334 260.443 212.589 260.643 212.927Z" fill="#E0E0E0"/>
<path d="M259.638 211.637C259.638 211.674 259.092 211.412 258.201 211.101C255.869 210.286 253.372 210.093 250.947 210.54C250.019 210.708 249.457 210.884 249.445 210.843C249.563 210.768 249.692 210.712 249.827 210.679C250.182 210.552 250.546 210.448 250.915 210.368C253.364 209.82 255.917 210.018 258.257 210.937C258.608 211.075 258.952 211.233 259.285 211.412C259.521 211.543 259.646 211.621 259.638 211.637Z" fill="#E0E0E0"/>
<path d="M267.948 206.185C267.883 206.185 267.414 204.547 266.9 202.467C266.386 200.388 266.017 198.705 266.097 198.689C266.177 198.672 266.631 200.326 267.145 202.406C267.659 204.486 268.012 206.168 267.948 206.185Z" fill="#E0E0E0"/>
<path d="M268.015 206.185C267.943 206.209 267.638 205.096 266.851 203.958C266.357 203.285 265.781 202.679 265.137 202.156C265.381 202.218 265.608 202.337 265.799 202.504C266.285 202.867 266.707 203.312 267.048 203.818C267.567 204.508 267.9 205.323 268.015 206.185Z" fill="#E0E0E0"/>
<path d="M267.962 255.192C267.938 255.192 267.886 254.782 267.697 254.054C267.421 253.032 267.046 252.04 266.577 251.094C265.421 248.683 263.314 245.62 260.636 242.558C259.307 241.011 258.023 239.553 256.931 238.157C255.95 236.928 255.063 235.623 254.277 234.256C253.752 233.333 253.305 232.366 252.941 231.366C252.816 231.005 252.728 230.731 252.676 230.547C252.641 230.441 252.619 230.331 252.611 230.219C252.635 230.219 252.756 230.629 253.033 231.308C253.429 232.289 253.896 233.239 254.43 234.149C255.23 235.495 256.125 236.78 257.107 237.993C258.203 239.373 259.492 240.826 260.821 242.374C263.506 245.448 265.61 248.543 266.738 251C267.196 251.962 267.55 252.972 267.794 254.013C267.861 254.295 267.91 254.58 267.942 254.868C267.961 254.975 267.968 255.084 267.962 255.192Z" fill="#E0E0E0"/>
<path d="M281.202 239.934C280.979 240.084 280.747 240.221 280.508 240.343C279.88 240.708 279.279 241.118 278.709 241.571C277.866 242.24 277.075 242.975 276.345 243.77C275.514 244.662 274.659 245.702 273.788 246.812C272.046 249.043 270.416 251.016 269.44 252.592C268.942 253.374 268.581 254.033 268.344 254.496C268.235 254.743 268.107 254.981 267.963 255.208C267.974 255.138 267.996 255.071 268.027 255.007C268.079 254.881 268.152 254.688 268.26 254.455C268.566 253.783 268.911 253.129 269.292 252.498C270.243 250.885 271.861 248.883 273.599 246.656C274.474 245.542 275.337 244.503 276.184 243.61C276.927 242.818 277.733 242.089 278.593 241.432C279.178 240.991 279.8 240.603 280.452 240.274C280.681 240.155 280.853 240.081 280.994 240.028C281.056 239.982 281.127 239.95 281.202 239.934Z" fill="#E0E0E0"/>
<path d="M281.459 244.88C280.977 244.99 280.487 245.063 279.994 245.097C278.817 245.221 277.653 245.454 276.518 245.793C275.395 246.166 274.342 246.73 273.402 247.459C272.684 248.028 272.347 248.495 272.314 248.466C272.365 248.338 272.438 248.222 272.531 248.122C272.759 247.825 273.014 247.551 273.294 247.303C274.222 246.515 275.291 245.916 276.441 245.539C277.593 245.191 278.779 244.977 279.978 244.9C280.47 244.847 280.966 244.84 281.459 244.88Z" fill="#E0E0E0"/>
<path d="M272.74 247.925C272.664 247.88 273.327 246.848 273.836 245.469C274.346 244.089 274.43 242.849 274.519 242.861C274.557 243.133 274.548 243.41 274.495 243.68C274.421 244.325 274.277 244.959 274.065 245.571C273.843 246.178 273.558 246.758 273.214 247.303C273.091 247.535 272.931 247.745 272.74 247.925Z" fill="#E0E0E0"/>
<path d="M285.49 226.654C285.415 226.704 285.335 226.746 285.253 226.781L284.562 227.101C284.261 227.232 283.896 227.399 283.483 227.62C283.069 227.842 282.587 228.063 282.081 228.374L281.279 228.836C281.002 229 280.725 229.192 280.436 229.377C279.845 229.745 279.255 230.195 278.625 230.65C275.925 232.706 273.569 235.195 271.648 238.019C271.222 238.678 270.801 239.296 270.464 239.91C270.291 240.213 270.11 240.5 269.962 240.786L269.532 241.605C269.247 242.129 269.047 242.629 268.846 243.058C268.645 243.488 268.489 243.877 268.372 244.18L268.083 244.892C268.054 244.979 268.015 245.061 267.967 245.138C267.979 245.048 268.002 244.96 268.035 244.876C268.103 244.684 268.184 244.442 268.284 244.143C268.411 243.757 268.557 243.377 268.722 243.005C268.91 242.567 269.103 242.06 269.38 241.527L269.781 240.684C269.926 240.393 270.102 240.103 270.275 239.792C270.604 239.169 271.022 238.563 271.447 237.88C273.36 235.02 275.735 232.513 278.473 230.466C279.115 230.007 279.713 229.561 280.311 229.201C280.608 229.016 280.885 228.828 281.166 228.668L281.969 228.214C282.479 227.915 282.973 227.698 283.394 227.494C283.752 227.312 284.119 227.149 284.494 227.006L285.205 226.732C285.296 226.692 285.392 226.666 285.49 226.654Z" fill="#E0E0E0"/>
<path d="M275.012 233.809C275.11 233.465 275.311 233.16 275.586 232.937C276.231 232.363 277.054 232.041 277.91 232.028C278.747 232.023 279.577 232.188 280.351 232.516C280.678 232.621 280.989 232.774 281.274 232.97C280.945 232.903 280.622 232.805 280.311 232.675C279.544 232.408 278.74 232.27 277.93 232.266C277.127 232.283 276.351 232.561 275.714 233.06C275.463 233.293 275.228 233.543 275.012 233.809Z" fill="#E0E0E0"/>
<path d="M273.447 235.459C273.379 235.423 273.969 234.538 274.105 233.273C274.242 232.008 273.884 231.009 273.957 230.989C274.029 230.969 274.117 231.21 274.23 231.628C274.516 232.728 274.382 233.898 273.856 234.903C273.652 235.279 273.487 235.476 273.447 235.459Z" fill="#E0E0E0"/>
<path d="M256.387 257.648C256.748 264.199 258.679 270.827 261.65 277.545H274.56C277.394 270.872 279.189 264.24 279.51 257.648H256.387Z" fill="#E0E0E0"/>
<path d="M277.418 268.198C277.418 268.268 273.167 268.325 267.92 268.325C262.673 268.325 258.426 268.268 258.426 268.198C258.426 268.129 262.677 268.075 267.92 268.075C273.163 268.075 277.418 268.133 277.418 268.198Z" fill="#FAFAFA"/>
<path d="M277.128 270.565C277.128 270.635 273.142 270.692 268.228 270.692C263.315 270.692 259.324 270.635 259.324 270.565C259.324 270.496 263.311 270.442 268.228 270.442C273.146 270.442 277.128 270.5 277.128 270.565Z" fill="#FAFAFA"/>
<path d="M261.847 261.919C262.008 263.938 262.008 265.967 261.847 267.986C261.779 267.986 261.727 266.627 261.727 264.952C261.727 263.278 261.791 261.919 261.847 261.919Z" fill="#FAFAFA"/>
<path d="M268.775 261.919C268.843 261.919 268.895 263.323 268.895 265.059C268.895 266.795 268.843 268.199 268.775 268.199C268.706 268.199 268.654 266.795 268.654 265.059C268.654 263.323 268.706 261.919 268.775 261.919Z" fill="#FAFAFA"/>
<path d="M275.269 261.865C275.337 261.865 275.389 263.298 275.389 265.067C275.389 266.835 275.337 268.272 275.269 268.272C275.201 268.272 275.148 266.839 275.148 265.067C275.148 263.294 275.201 261.865 275.269 261.865Z" fill="#FAFAFA"/>
<path d="M279.108 261.919C279.108 261.989 274.122 262.042 267.972 262.042C261.822 262.042 256.836 261.989 256.836 261.919C256.836 261.849 261.818 261.796 267.972 261.796C274.126 261.796 279.108 261.849 279.108 261.919Z" fill="#FAFAFA"/>
<path d="M272.171 196.744H125.854V201.342H272.171V196.744Z" fill="#EBEBEB"/>
<path d="M138.51 200.777L127.547 277.524H129.899L143.42 201.342L138.51 200.777Z" fill="#EBEBEB"/>
<path d="M261.837 200.29L273.403 277.524H271.055L256.924 200.994L261.837 200.29Z" fill="#EBEBEB"/>
<path d="M131.409 178.227V188.577H129.715V189.69H131.409V196.617H163.091V190.312H160.746V188.937H163.091V186.89H164.134V185.957H162.89V178.227H131.409Z" fill="#F5F5F5"/>
<path d="M154.674 178.243V196.498H163.084V190.197H160.74V188.941L163.084 188.981V186.922H164.148L164.128 185.858L162.891 185.829V178.215L154.674 178.243Z" fill="#E0E0E0"/>
<path d="M155.27 189.539C155.27 189.605 149.541 189.654 142.472 189.654C135.403 189.654 129.67 189.605 129.67 189.539C129.67 189.474 135.403 189.425 142.472 189.425C149.541 189.425 155.27 189.478 155.27 189.539Z" fill="#E0E0E0"/>
<path d="M155.27 188.486C155.27 188.551 149.541 188.601 142.472 188.601C135.403 188.601 129.67 188.551 129.67 188.486C129.67 188.42 135.403 188.371 142.472 188.371C149.541 188.371 155.27 188.425 155.27 188.486Z" fill="#E0E0E0"/>
<path d="M156.916 185.657C156.916 185.723 151.184 185.772 144.118 185.772C137.053 185.772 131.316 185.723 131.316 185.657C131.316 185.592 137.045 185.543 144.118 185.543C151.192 185.543 156.916 185.596 156.916 185.657Z" fill="#E0E0E0"/>
<path d="M157.071 193.374C157.071 193.44 151.342 193.493 144.273 193.493C137.203 193.493 131.471 193.44 131.471 193.374C131.471 193.309 137.199 193.26 144.273 193.26C151.346 193.26 157.071 193.305 157.071 193.374Z" fill="#E0E0E0"/>
<path d="M165.432 171.285H159.908V177.982H165.432V171.285Z" fill="#F5F5F5"/>
<path d="M160.096 170.847H135.135V178.4H160.096V170.847Z" fill="#E0E0E0"/>
<path d="M165.596 171.485H159.426V170.858H165.596C165.679 170.858 165.759 170.892 165.817 170.952C165.876 171.012 165.909 171.093 165.909 171.177C165.906 171.26 165.872 171.338 165.813 171.395C165.755 171.453 165.677 171.485 165.596 171.485Z" fill="#E0E0E0"/>
<path d="M165.596 178.404H159.426V177.765H165.596C165.679 177.765 165.759 177.799 165.817 177.859C165.876 177.919 165.909 178 165.909 178.085C165.909 178.169 165.876 178.251 165.817 178.31C165.759 178.37 165.679 178.404 165.596 178.404Z" fill="#E0E0E0"/>
<path d="M158.138 170.847H155.188V178.4H158.138V170.847Z" fill="#EBEBEB"/>
<path d="M140.462 170.933H137.512V178.486H140.462V170.933Z" fill="#EBEBEB"/>
<path d="M165.431 172.393C165.431 172.393 164.227 172.426 162.761 172.426C161.296 172.426 160.088 172.426 160.088 172.393C160.088 172.36 161.292 172.356 162.761 172.356C164.231 172.356 165.431 172.373 165.431 172.393Z" fill="#E0E0E0"/>
<path d="M165.431 173.397C165.431 173.397 164.227 173.43 162.761 173.43C161.296 173.43 160.088 173.43 160.088 173.397C160.088 173.364 161.292 173.364 162.761 173.364C164.231 173.364 165.431 173.377 165.431 173.397Z" fill="#E0E0E0"/>
<path d="M165.431 174.633C165.431 174.633 164.227 174.666 162.761 174.666C161.296 174.666 160.088 174.666 160.088 174.633C160.088 174.6 161.292 174.6 162.761 174.6C164.231 174.6 165.431 174.613 165.431 174.633Z" fill="#E0E0E0"/>
<path d="M165.431 175.869C165.431 175.869 164.227 175.902 162.761 175.902C161.296 175.902 160.088 175.902 160.088 175.869C160.088 175.836 161.292 175.836 162.761 175.836C164.231 175.836 165.431 175.849 165.431 175.869Z" fill="#E0E0E0"/>
<path d="M165.431 177.106C165.431 177.106 164.227 177.138 162.761 177.138C161.296 177.138 160.088 177.138 160.088 177.106C160.088 177.073 161.292 177.073 162.761 177.073C164.231 177.073 165.431 177.085 165.431 177.106Z" fill="#E0E0E0"/>
<path d="M153.597 173.953H142.369V175.312H153.597V173.953Z" fill="#EBEBEB"/>
<path d="M154.855 163.514L157.962 170.957H155.963L154.582 166.982L154.855 163.514Z" fill="#E0E0E0"/>
<path d="M145.316 156.783L144.115 170.956H154.268L155.384 156.783H145.316Z" fill="#EBEBEB"/>
<path d="M146.308 157.906L145.256 169.778L152.879 169.88L153.907 157.836L146.308 157.906Z" fill="#FAFAFA"/>
<path d="M147.924 159.551L147.326 167.718H151.393L152.107 159.551H147.924Z" fill="#E0E0E0"/>
<path d="M264.593 104.102L260.84 104.122L260.941 123.171L264.694 123.15L264.593 104.102Z" fill="#E0E0E0"/>
<path d="M238.037 104.15L228.314 104.204L228.37 114.721L238.093 114.667L238.037 104.15Z" fill="#EBEBEB"/>
<path d="M247.711 104.101L237.988 104.155L238.044 114.672L247.767 114.618L247.711 104.101Z" fill="#F5F5F5"/>
<path d="M228.328 107.117C234.788 107.175 241.267 107.117 247.726 107.027C247.75 107.023 247.771 107.009 247.786 106.99C247.802 106.971 247.81 106.948 247.81 106.923C247.81 106.898 247.802 106.874 247.786 106.855C247.771 106.836 247.75 106.823 247.726 106.819C241.268 106.78 234.804 106.82 228.332 106.937C228.309 106.937 228.287 106.947 228.27 106.964C228.253 106.981 228.244 107.003 228.244 107.027C228.244 107.051 228.253 107.074 228.27 107.091C228.287 107.108 228.309 107.117 228.332 107.117H228.328Z" fill="#E0E0E0"/>
<path d="M239.919 114.497L222.256 114.594L222.301 123.163L239.964 123.065L239.919 114.497Z" fill="#EBEBEB"/>
<path d="M257.497 114.397L239.834 114.495L239.879 123.063L257.543 122.966L257.497 114.397Z" fill="#F5F5F5"/>
<path d="M222.264 116.983C233.998 117.118 245.773 116.983 257.507 116.807C257.534 116.807 257.561 116.795 257.58 116.775C257.6 116.755 257.611 116.728 257.611 116.7C257.611 116.672 257.6 116.645 257.58 116.625C257.561 116.605 257.534 116.594 257.507 116.594C245.773 116.532 233.994 116.536 222.264 116.802C222.241 116.802 222.218 116.812 222.202 116.829C222.185 116.846 222.176 116.869 222.176 116.893C222.176 116.916 222.185 116.939 222.202 116.956C222.218 116.973 222.241 116.983 222.264 116.983Z" fill="#E0E0E0"/>
<path d="M284.09 123.169H215.66V126.239H284.09V123.169Z" fill="#E0E0E0"/>
<path d="M229.641 124.647H226.863V135.123H229.641V124.647Z" fill="#E0E0E0"/>
<path d="M271.112 124.647H268.334V135.123H271.112V124.647Z" fill="#E0E0E0"/>
<path d="M268.251 97L264.498 97.0208L264.637 123.221L268.39 123.2L268.251 97Z" fill="#EBEBEB"/>
<path d="M274.12 101.88L268.287 101.912L268.4 123.142L274.233 123.11L274.12 101.88Z" fill="#F5F5F5"/>
<path d="M274.081 105.975C273.112 106.077 272.136 106.111 271.163 106.077C270.19 106.111 269.216 106.077 268.248 105.975C270.19 105.838 272.139 105.838 274.081 105.975Z" fill="#E0E0E0"/>
<path d="M274.081 105.082C273.112 105.185 272.136 105.219 271.163 105.184C270.19 105.219 269.216 105.185 268.248 105.082C270.19 104.946 272.139 104.946 274.081 105.082Z" fill="#E0E0E0"/>
<path d="M274.081 119.923C272.139 120.06 270.19 120.06 268.248 119.923C270.19 119.787 272.139 119.787 274.081 119.923Z" fill="#E0E0E0"/>
<path d="M274.081 119.03C272.139 119.167 270.19 119.167 268.248 119.03C270.19 118.894 272.139 118.894 274.081 119.03Z" fill="#E0E0E0"/>
<path d="M271.259 117.086C271.202 117.086 271.154 114.945 271.154 112.3C271.154 109.655 271.202 107.518 271.259 107.518C271.315 107.518 271.359 109.659 271.359 112.3C271.359 114.94 271.311 117.086 271.259 117.086Z" fill="#E0E0E0"/>
<path d="M280.491 107.1H274.141V123.128H280.491V107.1Z" fill="#EBEBEB"/>
<path d="M267.402 101.48C267.403 101.698 267.34 101.911 267.222 102.093C267.104 102.275 266.935 102.416 266.738 102.5C266.541 102.584 266.324 102.607 266.114 102.565C265.904 102.523 265.711 102.418 265.56 102.264C265.408 102.11 265.305 101.914 265.263 101.7C265.221 101.487 265.242 101.265 265.324 101.064C265.406 100.862 265.544 100.69 265.722 100.569C265.899 100.448 266.108 100.383 266.322 100.383C266.608 100.383 266.882 100.498 267.084 100.704C267.287 100.91 267.401 101.189 267.402 101.48Z" fill="#E0E0E0"/>
<path d="M266.655 104.51H265.988V120.095H266.655V104.51Z" fill="#E0E0E0"/>
<path d="M289.485 277.523C289.485 277.58 251.749 277.63 205.246 277.63C158.744 277.63 121 277.58 121 277.523C121 277.466 158.711 277.417 205.246 277.417C251.782 277.417 289.485 277.462 289.485 277.523Z" fill="#263238"/>
<path d="M204.554 225.663L221.106 277.524H218.091L198.701 225.663H204.554Z" fill="#E0E0E0"/>
<path d="M204.555 225.664H204.154H203.03L198.686 225.688L198.726 225.627C202.05 234.457 209.216 253.555 217.518 275.662C217.742 276.268 217.967 276.89 218.192 277.467L218.096 277.402H221.106L221.006 277.541C216.386 263.004 212.263 250.047 209.296 240.721C207.819 236.05 206.631 232.292 205.812 229.692C205.41 228.394 205.089 227.387 204.872 226.699L204.631 225.917C204.579 225.741 204.555 225.647 204.555 225.647C204.555 225.647 204.587 225.729 204.643 225.901L204.896 226.667C205.117 227.35 205.442 228.345 205.86 229.63C206.695 232.222 207.899 235.968 209.4 240.618C212.391 249.957 216.546 262.926 221.203 277.463L221.247 277.602H218.035L218.007 277.533C217.787 276.935 217.558 276.333 217.333 275.727C209.083 253.588 201.958 234.469 198.67 225.651V225.59H198.734L203.102 225.614H204.214C204.439 225.655 204.555 225.664 204.555 225.664Z" fill="#263238"/>
<path d="M171.983 225.663L155.432 277.524H158.442L177.836 225.663H171.983Z" fill="#E0E0E0"/>
<path d="M171.983 225.664C171.983 225.664 172.107 225.664 172.356 225.664H173.468L177.836 225.639H177.9L177.876 225.701C174.592 234.519 167.466 253.637 159.217 275.777L158.538 277.582L158.514 277.652H155.303L155.347 277.513L167.153 240.668L170.694 229.68C171.095 228.394 171.437 227.4 171.657 226.716L171.91 225.95C171.967 225.778 171.999 225.696 171.999 225.696C171.999 225.696 171.975 225.791 171.922 225.967L171.682 226.749C171.465 227.436 171.148 228.443 170.742 229.741C169.919 232.341 168.735 236.099 167.258 240.77C164.287 250.096 160.168 263.053 155.548 277.59L155.447 277.451H158.458L158.362 277.517L159.036 275.711C167.338 253.604 174.504 234.49 177.808 225.68L177.852 225.742L173.504 225.717H172.384L171.983 225.664Z" fill="#263238"/>
<path d="M199.128 226.802C199.038 226.881 198.941 226.952 198.839 227.015L197.988 227.588L194.853 229.684C192.207 231.461 188.558 233.926 184.548 236.668L174.279 243.73L171.164 245.863L170.317 246.412C170.221 246.484 170.119 246.547 170.012 246.6C170.1 246.52 170.194 246.446 170.293 246.379L171.12 245.777L174.199 243.591C176.804 241.757 180.421 239.239 184.436 236.497C188.45 233.754 192.107 231.306 194.777 229.562C196.109 228.694 197.185 227.994 197.948 227.515L198.819 226.974C198.918 226.909 199.021 226.851 199.128 226.802Z" fill="#263238"/>
<path d="M167.374 170.376C167.374 170.376 162.187 170.92 161.433 174.105C160.678 177.29 158.221 216.681 161.433 222.261C164.644 227.841 205.993 227.063 208.863 226.298C211.733 225.532 213.086 223.633 212.793 221.312C212.5 218.99 184.343 216.112 184.343 216.112L186.061 175.002C186.061 175.002 175.937 169.803 167.374 170.376Z" fill="#263238"/>
<path d="M212.818 222.306H212.693H212.324L210.907 222.343C209.674 222.375 207.892 222.392 205.688 222.388C201.272 222.388 195.19 222.232 188.482 221.741C185.13 221.491 181.939 221.176 179.044 220.84C176.15 220.504 173.549 220.136 171.373 219.788C170.281 219.624 169.301 219.448 168.438 219.301C167.575 219.153 166.832 219.018 166.226 218.891L164.833 218.617L164.472 218.543L164.352 218.511C164.393 218.505 164.435 218.505 164.476 218.511L164.841 218.564L166.242 218.797C166.849 218.904 167.591 219.031 168.458 219.162C169.325 219.293 170.305 219.465 171.393 219.616C173.573 219.948 176.174 220.287 179.064 220.623C181.955 220.959 185.146 221.258 188.498 221.507C195.202 221.999 201.284 222.167 205.688 222.216C207.888 222.24 209.67 222.244 210.907 222.24H212.697L212.818 222.306Z" fill="#455A64"/>
<path d="M206.746 247.18C206.714 247.23 200.163 242.534 192.118 236.7C184.073 230.866 177.573 226.089 177.606 226.056C177.638 226.023 184.189 230.703 192.238 236.54C200.287 242.378 206.778 247.131 206.746 247.18Z" fill="#263238"/>
<path d="M171.04 135.01L167.728 129.061C169.774 125.674 170.503 121.63 169.773 117.722C169.042 113.815 166.905 110.327 163.782 107.945C160.658 105.563 156.773 104.459 152.892 104.849C149.01 105.24 145.412 107.096 142.804 110.055C140.197 113.013 138.769 116.859 138.801 120.837C138.834 124.815 140.323 128.636 142.978 131.55C145.633 134.465 149.261 136.261 153.148 136.586C157.036 136.911 160.902 135.741 163.987 133.307L171.04 135.01Z" fill="white"/>
<path d="M171.04 135.01L163.966 133.372H163.87L163.93 133.29L164.019 133.38C161.844 135.113 159.258 136.226 156.524 136.606C155.705 136.725 154.877 136.769 154.051 136.737C153.625 136.713 153.192 136.7 152.754 136.664L151.433 136.463C147.498 135.676 144.004 133.389 141.662 130.068C140.362 128.237 139.46 126.143 139.017 123.928C138.567 121.578 138.63 119.155 139.202 116.833C139.793 114.409 140.942 112.164 142.554 110.283C144.19 108.352 146.254 106.848 148.575 105.894C150.802 104.998 153.197 104.623 155.584 104.797C157.839 104.956 160.032 105.618 162.007 106.737C165.558 108.74 168.219 112.057 169.442 116.002C169.924 117.686 170.153 119.435 170.121 121.189C170.035 123.987 169.228 126.712 167.78 129.09V129.024L171.04 135.006C170.823 134.629 169.803 132.832 167.676 129.086V129.057V129.024C169.093 126.658 169.875 123.953 169.944 121.181C169.97 119.449 169.737 117.723 169.253 116.063C168.045 112.163 165.418 108.883 161.911 106.897C159.962 105.797 157.799 105.149 155.576 104.998C153.225 104.827 150.867 105.198 148.676 106.082C146.391 107.022 144.36 108.505 142.75 110.406C141.163 112.258 140.031 114.47 139.45 116.858C138.884 119.143 138.819 121.528 139.262 123.842C139.691 126.034 140.575 128.106 141.855 129.921C144.16 133.205 147.605 135.47 151.49 136.254L152.794 136.459C153.228 136.496 153.653 136.508 154.075 136.537C154.892 136.57 155.71 136.53 156.52 136.418C159.229 136.053 161.796 134.968 163.962 133.27L164.364 132.963L164.063 133.372L164.027 133.274L171.04 135.01Z" fill="#263238"/>
<path d="M151.758 118.594H152.746L154.897 115.532V113.522C154.897 113.522 156.423 113.427 156.246 116.056C156.07 118.684 156.246 118.017 156.246 118.017C156.246 118.017 159.486 118.017 159.755 118.32C159.952 118.524 160.04 121.808 160.072 123.584C160.094 124.014 159.975 124.438 159.732 124.79C159.49 125.142 159.139 125.401 158.735 125.525C158.621 125.557 158.504 125.574 158.386 125.574C157.583 125.574 153.452 124.903 153.452 124.903H151.746L151.758 118.594Z" fill="#1A9C9A"/>
<path d="M148.934 118.041L149.544 124.922H151.234V118.18L148.934 118.041Z" fill="#1A9C9A"/>
<path d="M233.494 205.248C233.494 205.248 242.783 205.248 243.165 214.074C243.546 222.901 216.124 269.464 216.124 269.464L207.44 265.26L226.059 220.076L185.658 216.023L186.802 205.657L233.494 205.248Z" fill="#B78876"/>
<path d="M217.959 266.777L217.69 267.404C217.69 267.404 226.2 276.328 225.438 278.384L204.92 268.968L208.272 262.131C210.685 264.976 213.808 266.605 217.959 266.777Z" fill="#455A64"/>
<g opacity="0.6">
<path d="M209.367 265.318C209.143 265.289 208.916 265.345 208.729 265.476C208.543 265.606 208.41 265.802 208.356 266.026C208.319 266.254 208.369 266.488 208.496 266.679C208.623 266.87 208.817 267.004 209.038 267.054C209.276 267.083 209.516 267.022 209.712 266.883C209.909 266.743 210.047 266.534 210.102 266.296C210.118 266.055 210.04 265.817 209.887 265.633C209.733 265.448 209.515 265.332 209.279 265.31" fill="white"/>
</g>
<g opacity="0.6">
<path d="M204.918 268.972L205.721 267.334L225.09 276.959C225.09 276.959 225.825 277.777 225.432 278.392L204.918 268.972Z" fill="white"/>
</g>
<path d="M217.735 267.495C217.687 267.593 217.165 267.413 216.531 267.515C215.896 267.617 215.439 267.924 215.362 267.843C215.286 267.761 215.7 267.237 216.474 267.126C217.249 267.016 217.799 267.409 217.735 267.495Z" fill="#263238"/>
<path d="M219.487 269.39C219.467 269.497 218.953 269.472 218.424 269.751C217.894 270.029 217.593 270.438 217.496 270.389C217.4 270.34 217.589 269.73 218.255 269.399C218.921 269.067 219.528 269.292 219.487 269.39Z" fill="#263238"/>
<path d="M219.551 272.575C219.45 272.575 219.551 271.981 220.037 271.539C220.522 271.097 221.108 271.093 221.112 271.195C221.116 271.297 220.711 271.465 220.31 271.834C219.908 272.202 219.655 272.612 219.551 272.575Z" fill="#263238"/>
<path d="M215.92 171.969L217.569 177.115L208.573 177.831L207.525 175.076L215.92 171.969Z" fill="#B78876"/>
<path d="M241.463 178.72C241.636 179.072 242.085 179.129 242.431 179.313C242.752 179.501 243.016 179.777 243.191 180.11C243.366 180.443 243.446 180.819 243.422 181.197C243.364 181.951 243.12 182.677 242.712 183.309C242.586 183.566 242.403 183.789 242.178 183.96C242.063 184.041 241.928 184.084 241.788 184.084C241.649 184.084 241.513 184.041 241.399 183.96C241.134 183.735 241.166 183.317 241.222 182.969C241.435 181.663 241.158 180.013 241.459 178.724" fill="#B78876"/>
<path d="M181.632 114.196C181.556 113.622 181.693 113.039 182.017 112.564C182.341 112.088 182.828 111.753 183.382 111.625L193.314 105.181C197.099 104.313 201.869 110.761 202.547 114.65C203.233 118.925 203.501 123.258 203.35 127.587C203.077 134.244 198.798 134.956 198.798 134.956L202.009 157.091L186.533 147.36L181.632 114.196Z" fill="#B78876"/>
<path d="M200.484 120.172C200.51 120.39 200.453 120.61 200.323 120.785C200.193 120.96 200.002 121.076 199.789 121.11C199.58 121.149 199.364 121.103 199.189 120.98C199.013 120.857 198.893 120.668 198.854 120.455C198.827 120.237 198.885 120.017 199.015 119.842C199.144 119.667 199.336 119.551 199.548 119.517C199.758 119.478 199.974 119.525 200.149 119.647C200.324 119.77 200.445 119.959 200.484 120.172Z" fill="#263238"/>
<path d="M201.761 117.782C201.681 117.872 201.022 117.86 200.191 118.191C199.361 118.523 198.811 118.965 198.706 118.941C198.602 118.916 198.706 118.797 198.959 118.593C199.308 118.302 199.703 118.075 200.127 117.921C200.532 117.762 200.962 117.68 201.396 117.68C201.685 117.671 201.801 117.741 201.761 117.782Z" fill="#263238"/>
<path d="M192.264 120.578C192.289 120.796 192.23 121.016 192.1 121.191C191.97 121.365 191.778 121.482 191.565 121.515C191.356 121.554 191.142 121.506 190.967 121.384C190.793 121.261 190.673 121.073 190.634 120.86C190.606 120.642 190.663 120.422 190.793 120.247C190.923 120.072 191.115 119.955 191.328 119.923C191.537 119.883 191.753 119.93 191.929 120.053C192.104 120.176 192.225 120.365 192.264 120.578Z" fill="#263238"/>
<path d="M193.124 119.498C193.004 119.547 192.385 119.17 191.426 119.027C190.466 118.883 189.716 119.027 189.623 118.961C189.531 118.896 189.716 118.826 190.025 118.748C190.506 118.651 191.001 118.641 191.486 118.72C191.956 118.785 192.41 118.941 192.823 119.178C193.108 119.346 193.2 119.477 193.124 119.498Z" fill="#263238"/>
<path d="M197.043 125.064C197.491 124.857 197.963 124.71 198.448 124.626C198.669 124.577 198.878 124.507 198.898 124.344C198.891 124.104 198.811 123.872 198.669 123.68C198.401 123.135 198.112 122.576 197.802 122.006C196.597 119.619 195.682 117.646 195.795 117.597C195.907 117.548 196.951 119.443 198.163 121.83L199.002 123.517C199.176 123.778 199.255 124.094 199.223 124.409C199.199 124.494 199.157 124.572 199.099 124.638C199.041 124.704 198.97 124.756 198.89 124.79C198.768 124.838 198.642 124.871 198.512 124.888C198.032 125.009 197.538 125.068 197.043 125.064Z" fill="#263238"/>
<path d="M198.795 134.972C195.796 135.424 192.733 134.998 189.963 133.743C189.963 133.743 192.6 138.345 198.943 136.969L198.795 134.972Z" fill="#AA6550"/>
<path d="M197.145 127.271C196.929 126.984 196.653 126.75 196.337 126.586C196.021 126.423 195.673 126.333 195.318 126.325C195.113 126.329 194.915 126.397 194.748 126.519C194.582 126.641 194.456 126.812 194.387 127.009C194.318 127.263 194.309 127.53 194.363 127.788C194.417 128.046 194.531 128.287 194.696 128.491C194.858 128.706 195.078 128.868 195.329 128.958C195.58 129.047 195.851 129.06 196.109 128.994C196.528 128.818 196.885 128.517 197.133 128.13C197.223 128.032 197.288 127.912 197.321 127.782C197.336 127.7 197.333 127.616 197.312 127.535C197.291 127.455 197.253 127.38 197.201 127.316" fill="#AA6550"/>
<path d="M194.511 125.998C194.655 125.969 194.768 126.947 195.667 127.545C196.566 128.143 197.578 127.914 197.602 128.049C197.602 128.11 197.397 128.266 196.963 128.331C196.403 128.406 195.834 128.277 195.358 127.967C194.9 127.667 194.575 127.197 194.45 126.657C194.366 126.235 194.446 125.998 194.511 125.998Z" fill="#263238"/>
<path d="M193.407 115.473C193.323 115.718 192.431 115.616 191.4 115.763C190.368 115.911 189.517 116.21 189.372 115.993C189.308 115.886 189.453 115.653 189.774 115.407C190.223 115.105 190.733 114.911 191.267 114.84C191.801 114.769 192.343 114.823 192.853 114.998C193.246 115.182 193.443 115.354 193.407 115.473Z" fill="#263238"/>
<path d="M201.808 115.763C201.636 115.989 200.857 115.866 199.946 115.96C199.034 116.054 198.28 116.292 198.079 116.095C197.986 116.001 198.079 115.78 198.404 115.551C198.846 115.262 199.35 115.086 199.873 115.039C200.396 114.992 200.922 115.075 201.407 115.28C201.752 115.456 201.88 115.653 201.808 115.763Z" fill="#263238"/>
<path d="M177.277 131.21C177.437 128.242 177.903 118.74 179.782 113.557C181.661 108.374 184.306 106.053 187.028 104.96C188.056 104.512 189.18 104.343 190.291 104.467C191.402 104.592 192.463 105.007 193.371 105.673C194.768 106.68 195.579 109.996 195.579 109.996C195.579 109.996 188.975 112.321 187.148 116.546C185.033 121.377 184.655 123.726 184.655 123.726L184.085 126.302C184.085 126.302 185.326 137.494 185.884 139.811L176.932 148.638C177.225 145.723 177.116 134.174 177.277 131.21Z" fill="#263238"/>
<path d="M195.775 110.011C195.775 110.011 199.601 109.131 201.531 113.426C202.407 115.37 203.274 121.257 203.274 121.257C203.274 121.257 203.599 116.447 203.093 113.831C202.587 111.215 200.921 108.022 198.729 106.405C196.538 104.788 194.876 104.178 191.447 104.792C192.48 105.055 193.417 105.613 194.149 106.401C194.667 107.019 194.924 107.567 195.775 110.011Z" fill="#263238"/>
<path d="M184.727 124.045C184.494 122.604 182.84 121.818 181.692 122.69C181.062 123.165 180.636 124.025 180.869 125.556C181.495 129.65 185.377 128.151 185.365 128.037C185.353 127.922 185 125.728 184.727 124.045Z" fill="#B78876"/>
<path d="M183.907 126.682C183.907 126.682 183.847 126.743 183.739 126.817C183.582 126.914 183.396 126.947 183.217 126.911C182.771 126.821 182.314 126.19 182.181 125.462C182.117 125.114 182.131 124.755 182.221 124.414C182.238 124.28 182.286 124.152 182.363 124.042C182.439 123.932 182.541 123.843 182.659 123.783C182.736 123.75 182.822 123.745 182.902 123.769C182.983 123.793 183.053 123.844 183.1 123.914C183.173 124.021 183.157 124.102 183.181 124.107C183.205 124.111 183.257 124.025 183.181 123.861C183.143 123.764 183.074 123.682 182.984 123.632C182.861 123.565 182.716 123.55 182.583 123.591C182.423 123.65 182.281 123.75 182.17 123.882C182.059 124.013 181.983 124.17 181.948 124.34C181.833 124.719 181.811 125.121 181.884 125.511C182.033 126.33 182.562 127.034 183.169 127.111C183.28 127.126 183.394 127.115 183.501 127.079C183.608 127.042 183.706 126.982 183.787 126.903C183.915 126.78 183.923 126.686 183.907 126.682Z" fill="#AA6550"/>
<path d="M188.605 104.509C188.605 104.542 189.159 104.46 190.043 104.477C190.559 104.487 191.071 104.58 191.56 104.751C192.154 104.975 192.699 105.314 193.166 105.75C194.03 106.537 194.703 107.518 195.133 108.616C195.462 109.434 195.534 110.016 195.583 110.007C195.577 109.876 195.558 109.746 195.526 109.619C195.206 108.085 194.413 106.696 193.262 105.656C192.781 105.201 192.214 104.85 191.596 104.624C191.094 104.453 190.568 104.368 190.039 104.374C189.684 104.374 189.33 104.397 188.979 104.444C188.853 104.455 188.728 104.477 188.605 104.509Z" fill="#455A64"/>
<path d="M181.344 127.439C181.345 127.416 181.345 127.393 181.344 127.37L181.288 127.186C181.26 127.1 181.232 126.997 181.195 126.883L181.087 126.473C180.868 125.578 180.776 124.656 180.814 123.734C180.865 122.367 181.195 121.026 181.782 119.796C182.532 118.307 183.602 117.01 184.913 116.001C185.585 115.472 186.289 114.985 187.02 114.544C187.727 114.11 188.437 113.749 189.096 113.348C190.247 112.632 191.342 111.826 192.372 110.937C193.251 110.18 193.929 109.529 194.379 109.07C194.608 108.841 194.78 108.661 194.897 108.534L195.029 108.391C195.057 108.358 195.073 108.341 195.069 108.337L195.021 108.378L194.877 108.513L194.347 109.042C193.877 109.488 193.19 110.126 192.303 110.867C191.27 111.742 190.175 112.537 189.028 113.246C188.377 113.655 187.659 113.995 186.948 114.433C186.21 114.874 185.5 115.364 184.824 115.899C183.492 116.917 182.404 118.232 181.645 119.743C181.056 120.99 180.733 122.351 180.698 123.734C180.67 124.664 180.777 125.592 181.015 126.49L181.135 126.899C181.179 127.014 181.215 127.112 181.244 127.198L181.316 127.382C181.332 127.419 181.34 127.439 181.344 127.439Z" fill="#455A64"/>
<path d="M180.238 125.999C180.238 125.999 180.238 125.974 180.238 125.933L180.214 125.737C180.214 125.565 180.149 125.327 180.117 124.987C180.023 124.065 180.008 123.137 180.073 122.212C180.171 120.842 180.441 119.491 180.876 118.192C181.419 116.604 182.213 115.118 183.224 113.791C184.267 112.479 185.482 111.322 186.837 110.352C188.042 109.435 189.246 108.714 190.206 108.068C191.165 107.421 191.964 106.925 192.498 106.549C192.767 106.369 192.967 106.217 193.104 106.115L193.261 106L193.313 105.955C193.313 105.955 193.289 105.955 193.253 105.988L193.088 106.09L192.466 106.5C191.928 106.856 191.133 107.359 190.149 107.973C189.166 108.587 187.994 109.324 186.757 110.241C185.399 111.212 184.183 112.374 183.144 113.692C182.112 115.032 181.305 116.538 180.756 118.147C180.316 119.459 180.046 120.824 179.953 122.208C179.897 123.137 179.928 124.069 180.045 124.992C180.085 125.319 180.141 125.569 180.17 125.741C180.17 125.819 180.198 125.884 180.21 125.933C180.222 125.982 180.234 125.999 180.238 125.999Z" fill="#455A64"/>
<path d="M201.672 141.763C201.672 141.763 206.846 143.908 207.838 146.655C208.83 149.402 216.353 172.086 216.353 172.086L207.621 175.501L203.639 156.832L201.672 141.763Z" fill="#455A64"/>
<path d="M174.92 206.181C174.92 206.181 228.312 203.68 231.664 204.58C235.016 205.481 237.019 207.205 237.685 211.303C238.352 215.4 248.645 269.693 248.645 269.693L239.283 272.502C239.283 272.502 226.148 241.921 225.59 236.803C225.032 231.686 223.181 221.197 223.181 221.197C223.181 221.197 202.884 221.537 187.939 221.197C172.993 220.858 175 206.75 175 206.75L174.92 206.181Z" fill="#B78876"/>
<path d="M239.167 272.747L239.099 272.583C238.561 271.331 225.948 241.916 225.394 236.823C224.88 232.128 223.262 222.781 223.021 221.402C221.014 221.434 201.998 221.721 187.943 221.402C183.299 221.295 179.802 219.858 177.542 217.136C174.122 213.013 174.732 207.241 174.808 206.754L174.684 205.988H174.908C177.092 205.886 228.376 203.495 231.716 204.396C235.466 205.407 237.252 207.401 237.887 211.278C238.545 215.322 248.725 269.124 248.846 269.668L248.878 269.849L239.167 272.747ZM223.354 220.988L223.386 221.16C223.407 221.263 225.241 231.714 225.795 236.778C226.321 241.613 238.356 269.82 239.4 272.252L248.42 269.55C247.762 266.074 238.135 215.265 237.493 211.335C236.891 207.65 235.189 205.743 231.616 204.785C228.453 203.929 178.943 206.205 175.157 206.381L175.218 206.754V206.782C175.218 206.844 174.415 212.735 177.859 216.878C180.043 219.506 183.439 220.89 187.959 220.996C202.728 221.332 222.989 220.996 223.194 220.996L223.354 220.988Z" fill="#AA6550"/>
<path d="M178.524 176.815L179.869 185.298C179.869 185.298 174.028 196.585 173.37 206.287C173.057 210.897 175.65 220.337 175.65 220.337C175.65 220.337 196.22 222.642 207.316 222.347L219.154 221.819L221.242 202.959L207.954 201.002L208.155 175.301C208.155 175.301 210.564 168.533 210.748 166.532C211.174 162.307 210.997 158.033 206.858 152.555L201.672 141.764L199.941 140.945L200.764 154.017L185.855 139.569L178.304 142.333L176.164 152.629L178.524 176.815Z" fill="#455A64"/>
<g opacity="0.3">
<path d="M204.369 204.124C203.401 204.296 196.42 204.398 195.453 204.57C195.288 204.622 195.115 204.639 194.944 204.619C194.773 204.6 194.607 204.546 194.457 204.46C194.336 204.343 194.253 204.192 194.217 204.027C194.181 203.861 194.195 203.688 194.256 203.53C194.384 203.213 194.585 202.933 194.842 202.712C196.533 201.074 198.728 200.128 200.864 199.203C201.547 198.913 202.285 198.614 203 198.794C203.35 198.912 203.667 199.115 203.923 199.386C204.179 199.658 204.366 199.988 204.469 200.35C204.673 201.071 204.757 201.823 204.718 202.573" fill="black"/>
</g>
<g opacity="0.3">
<path d="M179.076 182.729C181.569 182.136 183.135 179.63 184.147 177.231C185.158 174.832 185.993 172.183 187.976 170.529C189.43 169.301 191.377 168.761 192.633 167.336C193.23 166.638 193.626 165.785 193.777 164.872C193.928 163.959 193.828 163.021 193.488 162.162C193.127 161.286 192.4 160.459 191.481 160.409C190.397 160.352 189.554 161.31 188.892 162.19C185.862 166.238 183.005 170.413 180.321 174.718C178.88 177.031 177.443 179.839 178.446 182.381" fill="black"/>
</g>
<path d="M179.092 143.683C179.092 143.683 174.872 145.051 173.347 147.749C171.821 150.446 169.292 163.547 168.682 167.076C168.072 170.605 165.121 185.126 168.682 187.41C172.243 189.694 176.924 186.182 178.144 184.09C179.365 181.998 184.346 171.12 184.346 171.12L179.87 167.285C179.87 167.285 180.673 156.911 180.38 154.729C180.087 152.547 179.092 143.683 179.092 143.683Z" fill="#B78876"/>
<path d="M165.859 170.617L175.651 171.268L180.123 165.913L181.359 157.48L181.03 141.346C181.03 141.346 172.29 143.52 170.4 150.295C168.999 155.302 165.859 170.617 165.859 170.617Z" fill="#455A64"/>
<path d="M183.185 151.536C182.623 151.458 181.904 152.133 182.382 153.763C182.784 155.122 183.538 156.444 183.482 157.202C183.426 157.959 183.137 159.535 183.137 160.354C183.102 161.154 183.026 161.953 182.908 162.745L176.244 170.933L182.013 176.124L186.577 168.812C186.577 168.812 187.954 169.045 188.753 168.112L189.957 166.708C189.957 166.708 193.048 165.541 192.418 163.842C192.418 163.842 193.334 162.954 192.503 161.529C192.503 161.529 192.936 160.047 192.306 159.175C192.306 159.175 192.25 157.189 191.732 156.837C191.214 156.485 185.859 156.428 185.859 156.428C185.567 155.52 185.231 154.628 184.851 153.755C184.265 152.768 183.968 151.642 183.185 151.536Z" fill="#B78876"/>
<path d="M185.466 159.588C185.466 159.608 185.325 159.531 185.201 159.338C185.038 159.079 184.968 158.771 185 158.465C185.032 158.16 185.165 157.874 185.377 157.656C185.538 157.496 185.674 157.447 185.686 157.467C185.448 157.762 185.284 158.112 185.209 158.487C185.209 158.869 185.297 159.246 185.466 159.588Z" fill="#AA6550"/>
<path d="M192.082 159.027C191.274 159.267 190.444 159.417 189.605 159.473C188.773 159.597 187.93 159.626 187.092 159.559C187.917 159.413 188.749 159.313 189.585 159.26C190.412 159.134 191.246 159.056 192.082 159.027Z" fill="#AA6550"/>
<path d="M192.555 161.369C191.89 161.644 191.187 161.816 190.472 161.877C189.766 162.01 189.045 162.035 188.332 161.95C188.332 161.889 189.279 161.827 190.444 161.664C191.608 161.5 192.543 161.312 192.555 161.369Z" fill="#AA6550"/>
<path d="M192.438 163.772C191.399 164.096 190.308 164.206 189.227 164.095C189.755 163.977 190.292 163.907 190.832 163.886C191.363 163.801 191.901 163.762 192.438 163.772Z" fill="#AA6550"/>
<path d="M187.381 164.509C187.381 164.534 187.269 164.509 187.132 164.431C186.952 164.306 186.826 164.116 186.779 163.899C186.727 163.685 186.756 163.459 186.859 163.265C186.939 163.121 187.028 163.064 187.048 163.08C187.068 163.097 186.883 163.437 186.98 163.85C187.076 164.263 187.409 164.456 187.381 164.509Z" fill="#AA6550"/>
<path d="M186.064 162.56C186.064 162.581 185.931 162.511 185.807 162.335C185.647 162.102 185.555 161.828 185.542 161.545C185.525 161.261 185.586 160.977 185.718 160.726C185.827 160.538 185.931 160.456 185.951 160.472C185.828 160.811 185.761 161.168 185.75 161.528C185.802 161.887 185.907 162.235 186.064 162.56Z" fill="#AA6550"/>
<path d="M190.794 166.355C190.503 166.513 190.183 166.607 189.855 166.634C189.536 166.727 189.203 166.751 188.875 166.703C189.165 166.544 189.486 166.449 189.814 166.425C190.132 166.329 190.466 166.305 190.794 166.355Z" fill="#AA6550"/>
<path d="M188.211 156.465C188.211 156.527 187.408 156.527 186.393 156.629C185.377 156.731 184.594 156.891 184.578 156.834C185.147 156.588 185.755 156.449 186.373 156.424C186.983 156.327 187.606 156.341 188.211 156.465Z" fill="#AA6550"/>
<path d="M205.839 176.145H239.022C239.607 176.145 240.169 176.382 240.583 176.804C240.997 177.226 241.23 177.799 241.23 178.396V202.382H203.639V178.392C203.64 177.797 203.872 177.227 204.284 176.805C204.696 176.384 205.255 176.147 205.839 176.145Z" fill="#E0E0E0"/>
<path d="M241.231 204.126H197.072C197.072 203.668 197.251 203.228 197.568 202.904C197.886 202.58 198.317 202.398 198.766 202.398H241.231V204.126Z" fill="#E0E0E0"/>
<path d="M239.841 177.831H204.779V202.399H239.841V177.831Z" fill="white"/>
<path d="M239.837 202.381C239.837 202.381 239.837 202.226 239.837 201.931C239.837 201.636 239.837 201.194 239.837 200.629C239.837 199.487 239.837 197.817 239.813 195.68C239.813 191.406 239.789 185.277 239.768 177.814L239.853 177.9H204.795L204.899 177.794C204.899 186.567 204.899 194.898 204.899 202.357L204.807 202.259L230.062 202.308L237.288 202.336H239.21H239.704H239.877H239.716H239.231H237.328L230.138 202.361L204.819 202.41H204.723V202.381C204.723 194.918 204.723 186.587 204.723 177.818V177.712H204.827H239.885H239.969V177.818C239.969 185.302 239.937 191.451 239.925 195.737C239.925 197.866 239.925 199.528 239.925 200.65C239.925 201.21 239.925 201.64 239.925 201.935C239.925 202.23 239.837 202.381 239.837 202.381Z" fill="#263238"/>
<path d="M241.045 202.382C241.045 202.443 231.567 202.489 219.877 202.489C208.187 202.489 198.705 202.443 198.705 202.382C198.705 202.321 208.183 202.276 219.877 202.276C231.571 202.276 241.045 202.341 241.045 202.382Z" fill="#263238"/>
<path d="M222.305 199.511C227.393 199.511 231.518 195.305 231.518 190.116C231.518 184.927 227.393 180.72 222.305 180.72C217.217 180.72 213.092 184.927 213.092 190.116C213.092 195.305 217.217 199.511 222.305 199.511Z" fill="#1A9C9A"/>
<path d="M216.582 190.346L218.533 188.463L221.227 190.993L226.53 185.904L228.457 187.763L221.199 194.788L216.582 190.346Z" fill="white"/>
<path d="M182.916 162.744C182.96 162.781 180.194 166.187 176.738 170.347C173.281 174.506 170.443 177.846 170.399 177.818C170.355 177.789 173.121 174.379 176.577 170.216C180.034 166.052 182.872 162.707 182.916 162.744Z" fill="#AA6550"/>
<path d="M182.439 157.467C182.349 158.655 182.19 159.836 181.962 161.004C181.804 162.185 181.576 163.355 181.279 164.508C181.369 163.319 181.529 162.137 181.757 160.967C181.918 159.788 182.146 158.619 182.439 157.467Z" fill="#263238"/>
<path d="M208.155 175.3C208.169 175.216 208.191 175.134 208.219 175.054L208.436 174.367C208.629 173.773 208.914 172.913 209.239 171.845C209.627 170.597 209.951 169.328 210.21 168.046C210.534 166.48 210.678 164.881 210.64 163.281C210.495 160.367 209.692 157.528 208.295 154.982C207.88 154.207 207.425 153.456 206.93 152.731C206.762 152.473 206.617 152.28 206.529 152.145C206.477 152.078 206.433 152.005 206.396 151.928C206.458 151.985 206.513 152.048 206.561 152.117C206.665 152.248 206.822 152.432 207.003 152.686C207.524 153.395 208.002 154.138 208.432 154.909C209.071 156.056 209.597 157.266 210.001 158.519C210.505 160.055 210.796 161.655 210.865 163.272C210.905 164.89 210.754 166.506 210.415 168.087C210.145 169.373 209.804 170.643 209.395 171.89C209.05 172.954 208.745 173.81 208.528 174.395C208.424 174.668 208.339 174.893 208.275 175.071C208.244 175.152 208.204 175.229 208.155 175.3Z" fill="#263238"/>
<path d="M199.624 162.552C199.641 162.743 199.641 162.935 199.624 163.126C199.624 163.35 199.608 163.575 199.576 163.797C199.547 164.094 199.503 164.389 199.444 164.681C199.379 165.036 199.294 165.386 199.187 165.729C199.074 166.128 198.94 166.52 198.785 166.904C198.415 167.771 197.955 168.594 197.412 169.361C196.857 170.126 196.22 170.826 195.514 171.448C195.204 171.718 194.88 171.97 194.542 172.202C194.253 172.411 193.952 172.601 193.639 172.771C193.38 172.924 193.111 173.06 192.836 173.18C192.639 173.278 192.435 173.362 192.226 173.43C192.052 173.503 191.872 173.559 191.688 173.598C191.668 173.553 192.439 173.311 193.547 172.652C193.85 172.474 194.143 172.28 194.426 172.071C194.739 171.858 195.04 171.588 195.369 171.313C196.752 170.072 197.849 168.534 198.581 166.81C198.734 166.435 198.868 166.053 198.982 165.664C199.093 165.325 199.185 164.981 199.259 164.632C199.592 163.371 199.584 162.552 199.624 162.552Z" fill="#263238"/>
<path d="M210.66 166.273C210.637 166.251 210.618 166.224 210.604 166.196L210.463 165.946C210.331 165.721 210.15 165.414 209.921 165.033C209.693 164.652 209.335 164.185 208.962 163.653C208.589 163.121 208.115 162.54 207.613 161.889C205.55 159.318 202.503 155.94 199.01 152.334C195.518 148.727 192.238 145.583 189.833 143.327L188.195 141.833C187.714 141.399 187.296 141.014 186.947 140.719L186.144 140.027L185.939 139.843C185.913 139.824 185.89 139.801 185.871 139.774C185.9 139.788 185.927 139.806 185.951 139.827C186.012 139.872 186.084 139.925 186.168 139.995L186.995 140.654L188.268 141.743C188.761 142.177 189.315 142.672 189.926 143.217C192.362 145.427 195.65 148.567 199.159 152.17C202.667 155.773 205.69 159.179 207.726 161.778C208.223 162.437 208.673 163.031 209.058 163.563L209.99 164.971C210.202 165.381 210.391 165.676 210.5 165.909L210.628 166.155C210.655 166.234 210.665 166.273 210.66 166.273Z" fill="#263238"/>
<path d="M202.864 185.211C202.79 185.237 202.713 185.253 202.635 185.256L201.981 185.35C201.411 185.428 200.58 185.518 199.572 185.612C197.521 185.801 194.674 185.952 191.543 185.915C188.412 185.878 185.554 185.645 183.514 185.408C182.491 185.289 181.664 185.174 181.106 185.08L180.451 184.974C180.375 184.965 180.299 184.947 180.227 184.921C180.304 184.911 180.382 184.911 180.459 184.921L181.118 184.99C181.688 185.06 182.519 185.15 183.526 185.248C185.57 185.449 188.408 185.657 191.555 185.694C194.703 185.731 197.533 185.6 199.584 185.453C200.608 185.379 201.439 185.314 201.993 185.26L202.651 185.207C202.722 185.201 202.793 185.202 202.864 185.211Z" fill="#263238"/>
<path d="M220.252 176.115C220.252 176.115 226.828 173.499 227.45 173.291C228.072 173.082 233.821 172.623 233.821 172.623L241.231 175.338C241.231 175.338 241.3 176.889 239.569 176.68C238.044 176.418 236.54 176.04 235.069 175.55L234.029 176.181L220.252 176.115Z" fill="#B78876"/>
<path d="M240.873 177.11C241.046 177.466 241.495 177.52 241.84 177.708C242.16 177.898 242.421 178.175 242.596 178.507C242.771 178.839 242.853 179.215 242.832 179.591C242.774 180.344 242.53 181.07 242.121 181.7C241.996 181.954 241.815 182.175 241.592 182.346C241.477 182.427 241.341 182.471 241.202 182.471C241.063 182.471 240.927 182.427 240.813 182.346C240.703 182.21 240.629 182.048 240.598 181.874C240.568 181.701 240.58 181.522 240.636 181.356C240.849 180.05 240.572 178.396 240.873 177.106" fill="#B78876"/>
<path d="M248.323 267.667L248.547 268.306C248.547 268.306 260.751 268.793 261.586 270.815L240.358 278.422L238.162 271.114C241.835 271.474 245.195 270.459 248.323 267.667Z" fill="#455A64"/>
<g opacity="0.6">
<path d="M241.11 272.645C240.928 272.782 240.801 272.983 240.754 273.209C240.707 273.436 240.744 273.672 240.858 273.873C240.985 274.068 241.182 274.204 241.407 274.254C241.632 274.303 241.866 274.262 242.062 274.139C242.255 273.994 242.389 273.781 242.438 273.541C242.486 273.301 242.445 273.052 242.323 272.841C242.17 272.657 241.953 272.54 241.717 272.515C241.482 272.489 241.245 272.558 241.058 272.706" fill="white"/>
</g>
<g opacity="0.6">
<path d="M240.358 278.423L239.832 276.667L260.37 270.019C260.37 270.019 261.458 270.1 261.574 270.837L240.358 278.423Z" fill="white"/>
</g>
<path d="M248.645 268.342C248.677 268.449 248.175 268.682 247.781 269.206C247.388 269.73 247.272 270.27 247.163 270.262C247.055 270.254 246.995 269.587 247.48 268.965C247.966 268.342 248.633 268.236 248.645 268.342Z" fill="#263238"/>
<path d="M251.194 268.481C251.254 268.575 250.865 268.915 250.668 269.488C250.471 270.061 250.532 270.573 250.427 270.606C250.323 270.638 250.05 270.061 250.311 269.353C250.572 268.645 251.158 268.383 251.194 268.481Z" fill="#263238"/>
<path d="M253.393 270.749C253.309 270.807 252.991 270.34 253.048 269.656C253.104 268.972 253.521 268.579 253.594 268.649C253.666 268.719 253.477 269.14 253.429 269.693C253.381 270.246 253.493 270.7 253.393 270.749Z" fill="#263238"/>
<defs>
<radialGradient id="paint0_radial_175_1145" cx="0" cy="0" r="1" gradientUnits="userSpaceOnUse" gradientTransform="translate(179.5 150.5) rotate(90) scale(150.5 179.5)">
<stop stop-color="#0C7978" stop-opacity="0.51"/>
<stop offset="1" stop-color="#FDFDFD" stop-opacity="0"/>
</radialGradient>
</defs>
</svg>
